<svg xmlns="http://www.w3.org/2000/svg" width="1200" height="400" viewBox="0 0 120 40">
  <defs>
    <filter id="hue" >
      <feColorMatrix type="hueRotate" in="SourceGraphic" values="0" result="A">
        <animate attributeName="values" values="0; -50; 0" dur="60s" repeatCount="indefinite" />
      </feColorMatrix>
    </filter>
    <pattern id="a" patternUnits="userSpaceOnUse" width="10" height="9" stroke="#fff" stroke-width=".5">
      <path d="M0-1L6 9.8M5-1l6 10.8M-5-1L1 9.8M4-1L-2 9.8M9-1L3 9.8M14-1L8 9.8m-9-7.2h12M-1 7h12" />
    </pattern>



    <g id="bg-base" filter="url(#hue)">
      <path d="m0,15l3,-13l115,5l2,8z" fill="#3e7abf" />
      <path d="m0,15l3,23l116,-20l1,-3z" fill="#639ad9" />
    </g>

    <g id="JR" stroke="#666" stroke-width="2" fill="none">
      <path opacity=".5" d="m6,-1 l-5,9 5,9 h22 l5,-9 -5,-9" />
      <path d="m16.5,1 h3 a4,4,0,0,1,0,8 h-3 2 q3,0 4,3 t2.5,3" />
      <path d="m9.5,1 h5 v10 a4,4,0,0,1,-4,4 h-2" />
    </g>

  </defs>


 <use xlink:href="#bg-base" />
</svg>
