<svg xmlns="http://www.w3.org/2000/svg" width="100%" height="160" viewBox="0 0 34 16">
  <defs>
    <linearGradient id="grA" x1="0" x2="1" y1="1" y2="1">
      <stop stop-opacity="0" offset="50%" />
      <stop stop-opacity="1" offset="80%" />
    </linearGradient>
    <mask id="clipA"  height="20" width="20"  >
      <path fill="white" d="m10,0 h30 v30 h-30" />
      <path fill="url(#grA)" d="m1,2 h6 v6 h-6"/>
      <path d="m9,2 h2.5 a2.5,2.5,0,1,1,-2.5,2.5"/>      
    </mask>
  </defs>

  
  
<!--  <rect width="100%" height=100% fill="#222"/>-->
  
<!--
  <path d="m10,10h2 a3,3,0,0,1,3,2 l1,4 h-11" />
  <path d="m10,2 h3 a3,3,0,0,1,0,6 h-3 "/>
-->
  

  
<g>
  
      <path d="M6-1L1 8l5 9h22l5-9-5-9">
      <animate attributeName="stroke" values="#639ad9; #63d9a7; #639ad9;" dur="60s" repeatCount="indefinite"/>
    </path>
    <path d="M16.5 1h3a4 4 0 0 1 0 8h-3 2q3 0 4 3t2.5 3M9.5 1h5v10a4 4 0 0 1-4 4h-2"/>
  
<!--<path stroke="#fff" d="M0-1L6 9.8M5-1l6 10.8M-5-1L1 9.8M4-1L-2 9.8M9-1L3 9.8M14-1L8 9.8m-9-7.2h12M-1 7h12" />-->
  
<g id="JR" stroke="#666" stroke-width="2" fill="none">
  <path opacity=".5" d="m6,-1 l-5,9 5,9 h22 l5,-9 -5,-9" />
  <path d="m16.5,1 h3 a4,4,0,0,1,0,8 h-3 2 q3,0 4,3 t2.5,3" />
  <path d="m9.5,1 h5 v10 a4,4,0,0,1,-4,4 h-2" />
</g>
  

<!--a4,4,0,0,1,2,2 -->
  
<!--
    <path stroke="blue" stroke-width="2" stroke-linecap="round" fill="none" mask="url(#clipA)"
        d="m20,1 h10.5 a3.5,3.5,0,1,1,-3.5,3.5 v-3 v10 a3.5,3.5,0,1,1,-3.5,-3.5 h7 a3.5,3.5,0,0,1,3.5,3.5 v3.5" />  
-->
  

<!--
  <g>
    <path fill="white" d="m0,0 h200 v2000 h-200" />        
    <path fill="url(#grA)" d="m0,30 h70 v70 h-70z"/>
    <path d="m100,30 h20 a20,20,0,1,1,-20,20"/>
  </g>
-->


</svg>
