<svg xmlns="http://www.w3.org/2000/svg" width="960" height="120" viewBox="-0.5 -1 16 2">
  <defs>
    <filter id="hue" >
      <feColorMatrix type="hueRotate" in="SourceGraphic" values="0" result="A">
        <animate attributeName="values" values="0; -50; 0" dur="60s" repeatCount="indefinite" />
      </feColorMatrix>
    </filter>
    <pattern id="a" patternUnits="userSpaceOnUse" width="10" height="9" stroke="#fff" stroke-width=".5">
      <path d="M0-1L6 9.8M5-1l6 10.8M-5-1L1 9.8M4-1L-2 9.8M9-1L3 9.8M14-1L8 9.8m-9-7.2h12M-1 7h12" />
    </pattern>

    <linearGradient id="fade" >
      <stop offset="0%" stop-color="#858FAD"/>
      <stop offset="30%" stop-color="#A3ABC2"/>
      <stop offset="70%" stop-color="#A3ABC2"/>
      <stop offset="100%" stop-color="#858FAD"/>
    </linearGradient>


    <g id="bg-base" filter="url(#hue)">
      <path d="m0,15l3,-13l115,5l2,8z" fill="#3e7abf" />
      <path d="m0,15l3,23l116,-20l1,-3z" fill="#6fbaf4" />
    </g>

    <g id="JR" stroke="#666" stroke-width="2" fill="none">
      <path opacity=".5" d="m6,-1 l-5,9 5,9 h22 l5,-9 -5,-9" />
      <path d="m16.5,1 h3 a4,4,0,0,1,0,8 h-3 2 q3,0 4,3 t2.5,3" />
      <path d="m9.5,1 h5 v10 a4,4,0,0,1,-4,4 h-2" />
    </g>

  <pattern stroke="#6fbaf4" patternUnits="userSpaceOnUse" id="hex" fill="none" height="18" width="30" stroke-width="1">
      <path d="M5,14 l5 9 h10 l5-9 l-5-9 h-10z" />
      <path d="M-10,5 l5 9 h10 l5-9 l-5-9 h-10z" />
      <path d="M20,5 l5 9 h10 l5-9 l-5-9 h-10z" />
  </pattern>

  <mask id="m" maskUnits="userSpaceOnUse" >
    <radialGradient id="g" cx="0.5" cy="0.5" r="0.5"  gradientTransform="scale(1,0.6)">
      <stop stop-color="#fff" offset="0.2" />
      <stop stop-color="#000" offset="0.8"/>
    </radialGradient>
    <rect width="100%" height="100%" fill="url(#g)" />
  </mask>


  </defs>
  <g stroke-width="1">
    <path d="M0 0h3" stroke="#002B47" />
    <path d="M3 0h3" stroke="#003D66" />
    <path d="M6 0h3" stroke="#004C7E" />
    <path d="M9 0h3" stroke="#99C7E4" />
    <path d="M12 0h3" stroke="#ffffff" />
  </g>


</svg>
