<svg xmlns='http://www.w3.org/2000/svg' width='100%' height='100%'>
	<defs>
		<pattern id='bg1' patternUnits='userSpaceOnUse' width='10' height='20'
				 viewBox='0 0 5 10' stroke='#c4c9d4' stroke-width='1' >
			<line x1='-2' y1='1' x2='7' y2='10' />
			<line x1='-2' y1='6' x2='7' y2='15' />
			<line x1='-2' y1='-4' x2='7' y2='5' />
		</pattern>
		<radialGradient id='bg2' cx='50%' cy='200%' fy='2%' r='201%'>
			<stop offset='0%'   stop-opacity='.3' stop-color='#fff'/>
			<stop offset='10%'  stop-opacity='.1' />
			<stop offset='30%'  stop-opacity='.3' />
			<stop offset='90%'  stop-opacity='.55' />
			<stop offset='100%' stop-opacity='.6' />
		</radialGradient>
		<linearGradient id='bg3' x1="0%" y1="0%" x2="0%" y2="100%">
			<stop offset='0%'   stop-opacity='.5' />
			<stop offset='5%'   stop-opacity='0' />
			<stop offset='95%'  stop-opacity='0' />
			<stop offset='100%' stop-opacity='.5' />
		</linearGradient>
	</defs>
	<rect fill='url(#bg1)' width='100%' height='100%' />
	<rect fill='url(#bg2)' width='100%' height='100%' />
	<rect fill='url(#bg3)' width='100%' height='100%' />
</svg>


<svg xmlns='http://www.w3.org/2000/svg' xmlns:xlink='http://www.w3.org/1999/xlink' width='100%' height='250'>
	<defs>
		<path id='a' fill='#fff' d='M0,9 h10 l-5,9z'/>
		<path id='b' fill='#fff' d='M0,0 h10 l-5,-9z'/>
		<pattern id='bg' patternUnits='userSpaceOnUse' width='100' height='90'
				 viewBox='0 0 10 9' stroke='#c4c9d4' stroke-width='.1' >

			<path d='m0,0 l5,9' />
			<path d='m5,0 l5,9' />
			<path d='m-5,0 l5,9' />

			<path d='m4,0 l-5,9' />
			<path d='m9,0 l-5,9' />
			<path d='m14,0 l-5,9' />

			<path d='m-1,3.6 h12' />
			<path d='m-1,8.1 h12' />
		</pattern>
	</defs>

	<g>
		<rect fill='url(#bg)' width='100%' height='100%' />
		<use x='50' y='4' xlink:href='#a' />
		<use x='50' y='50' xlink:href='#b' />
	</g>
</svg>

<svg xmlns='http://www.w3.org/2000/svg' xmlns:xlink='http://www.w3.org/1999/xlink' width='1920' height='250'>
	<polygon id="_x30_9" opacity="0.2" fill="#55C4C1" points="1820,-3 1845,42 1795,132 1745,132 1720,177 1770,177 1745,222 1720,267 -30,267 -30,-3" />
	<polygon id="_x30_8" opacity="0.2" fill="#55C4C1" points="1645,42 1695,42 1670,87 1620,87 1645,132 1545,132 1570,177 1545,222 1520,181 1470,267 -30,267 -30,-3 1670,-3" />
	<polygon id="_x30_7" opacity="0.2" fill="#55C4C1" points="1445,42 1395,42 1420,87 1395,132 1370,87 1295,222 1320,267 -30,267 -30,-3 1420,-3" />
	<polygon id="_x30_6" opacity="0.2" fill="#55C4C1" points="1320,-3 1295,42 1270,-3 1220,87 1195,42 1170,87 1195,132 1145,132 1170,177 1070,177 1095,222 1045,222 1070,267 -30,267 -30,-3" />
	<polygon id="_x30_5" opacity="0.2" fill="#55C4C1" points="970,-3 995,42 945,42 995,132 945,132 970,177 945,222 918.553,179.604
		895,222 920,267 -30,267 -30,-3 	"/>
	<polygon id="_x30_4" opacity="0.2" fill="#55C4C1" points="770,-3 745,42 795,42 770,87 720,87 745,132 795,132 770,177 720,177
		695,222 745,222 720,267 -30,267 -30,-3 	"/>
	<polygon id="_x30_3" opacity="0.2" fill="#55C4C1" points="620,-3 645,42 620,87 570,-3 520,87 570,87 545,132 595,132 545,222
		520,177 470,267 -30,267 -32.667,-3 	"/>
	<polygon id="_x30_2" opacity="0.2" fill="#55C4C1" points="370,-3 345,42 370,87 320,87 295,132 345,132 320,177 345,222 320,267
		270,267 245,222 220,267 -30,267 -30,-3 	"/>
	<polygon id="_x30_1" opacity="0.2" fill="#55C4C1" points="220,-3 170,87 120,87 145,132 95,132 20,267 -30,267 -30,-3 	"/>
</svg>

<svg xmlns='http://www.w3.org/2000/svg'>
  <defs>
    <pattern id='a' patternUnits='userSpaceOnUse' width='100' height='90' viewBox='0 0 10 9' stroke='#fff' stroke-width='0.4' >
      <path d="M0-1L6 9.8M5-1l6 10.8M-5-1L1 9.8M4-1L-2 9.8M9-1L3 9.8M14-1L8 9.8M-1 2.6h12M-1 7.1h12"/>
    </pattern>
    <filter id='HueRotate1'>
  	<feColorMatrix type="hueRotate" in='SourceGraphic' values="180" >
    <animate attributeName='values' values='0; 360' dur='120s' repeatCount='indefinite' />
  	</feColorMatrix>
	</filter>
  </defs>
  <rect  width='100%' height='100%' fill='#9DC49F' filter='url(#HueRotate1)' />
  <rect fill='url(#a)' width='100%' height='100%' opacity="0.1" />
</svg>

<svg xmlns="http://www.w3.org/2000/svg"><defs><pattern id="b" patternUnits="userSpaceOnUse" width="100" height="90" viewBox="0 0 10 9" stroke="#fff" stroke-width=".4"><path d="M0-1L6 9.8M5-1l6 10.8M-5-1L1 9.8M4-1L-2 9.8M9-1L3 9.8M14-1L8 9.8m-9-7.2h12M-1 7h12"/></pattern><filter id="a"><feColorMatrix type="hueRotate" in="SourceGraphic" values="180"><animate attributeName="values" values="0; 360" dur="120s" repeatCount="indefinite"/></feColorMatrix></filter></defs><rect width="100%" height="100%" fill="#9DC49F" filter="url(#a)"/><rect fill="url(#b)" width="100%" height="100%" opacity=".1"/></svg>
