<?xml version="1.0" encoding="utf-8"?>
<!-- Generator: Adobe Illustrator 17.0.0, SVG Export Plug-In . SVG Version: 6.00 Build 0)  -->
<!DOCTYPE svg PUBLIC "-//W3C//DTD SVG 1.1//EN" "http://www.w3.org/Graphics/SVG/1.1/DTD/svg11.dtd">
<svg version="1.1" id="Layer_1" xmlns="http://www.w3.org/2000/svg" xmlns:xlink="http://www.w3.org/1999/xlink" x="0px" y="0px"
	 width="200px" height="200px" viewBox="0 0 200 200" style="enable-background:new 0 0 200 200;" xml:space="preserve">
<style type="text/css">
  g{stroke:#000;stroke-linejoin:round}
  .wp-blue{fill:#21759B;}
  .ps-blue{fill:#125396;}
  .php-blue{fill:#5C82B8;}
  .mysql-blue{fill:#00618A;}
  .css-blue{fill:#33A9DC;}
  .brackets-blue{fill:#29ABE2;}
  .mysql-yellow{fill:#E48E00;}
  .aws-yellow{fill:#FE9800;}
  .ai-yellow{fill:#D1871B;}
  .cc-red{fill:#BC0916;}
  .access-red{fill:#A33639;}
  .id-pink{fill:#C9147B;}
  .html-orange{fill:#EF652A;}
  .sass-pink{fill:#FF7BAC;}

  .scheme-dark{fill:#4D4D4D;}
  .scheme-light{fill:#E6E6E6;}


  .hide-me {}


</style>
<g class="hide-me" id="WP_">
	<path class="wp-blue" d="M44.5,100.5c0,21.8,12.6,40.6,31,49.4L49.3,78.3C46.3,85.1,44.5,92.7,44.5,100.5z M136.5,97.9
		c0-6.8-2.4-11.4-4.6-15.2c-2.8-4.6-5.4-8.4-5.4-12.8c0-5,3.8-9.8,9.2-9.8c0.2,0,0.4,0,0.8,0c-9.8-9-22.8-14.4-37-14.4
		c-19.2,0-36,9.8-45.8,24.8c1.2,0,2.6,0,3.6,0c5.8,0,14.6-0.6,14.6-0.6c3-0.2,3.4,4.2,0.4,4.6c0,0-3,0.4-6.2,0.6l20,59.4l12-36
		l-8.6-23.4c-3.2-0.4-6-0.8-6-0.8c-3-0.2-2.6-4.6,0.4-4.6c0,0,9,0.6,14.4,0.6c5.8,0,14.6-0.6,14.6-0.6c3-0.2,3.4,4.2,0.4,4.6
		c0,0-3,0.4-6.2,0.6l19.8,59l5.4-18.2C134.7,107.9,136.5,102.5,136.5,97.9z M100.5,105.3l-16.4,47.8c5,1.4,10.2,2.2,15.6,2.2
		c6.4,0,12.6-1.2,18.2-3.2c-0.2-0.2-0.2-0.4-0.4-0.8L100.5,105.3z M147.7,74.3c0.2,1.8,0.4,3.6,0.4,5.6c0,5.6-1,11.8-4.2,19.6
		l-16.8,48.4c16.4-9.6,27.4-27.2,27.4-47.4C154.3,91.1,151.9,82.1,147.7,74.3z M99.5,36.5c-35.2,0-64,28.8-64,64s28.8,64,64,64
		s64-28.8,64-64S134.7,36.5,99.5,36.5z M99.5,161.7c-33.6,0-61-27.4-61-61.2c0-33.6,27.4-61,61-61s61,27.4,61,61
		C160.5,134.3,133.1,161.7,99.5,161.7z"/>
</g>
<g class="hide-me" id="SVG_">
  <path class="scheme-light" d="M19.28,123.808c0.384-0.864,0.864-1.633,1.537-2.305c0.672-0.673,1.44-1.152,2.304-1.537
			c0.864-0.384,1.825-0.575,2.881-0.575c0.96,0,2.017,0.191,2.881,0.575c0.864,0.385,1.632,0.864,2.304,1.537
			c0.672,0.672,1.152,1.44,1.537,2.305s0.576,1.92,0.576,2.88c0,1.057-0.192,2.017-0.576,2.881s-0.864,1.537-1.537,2.209
			c-0.672,0.672-1.44,1.152-2.304,1.536s-1.825,0.576-2.785,0.576c-1.057,0-2.017-0.192-2.881-0.576s-1.729-0.864-2.4-1.536
			c-0.672-0.672-1.152-1.345-1.537-2.209s-0.576-1.824-0.576-2.881C18.704,125.728,18.896,124.672,19.28,123.808z
            M73.051,117.565c0,2.4-0.48,4.609-1.344,6.626s-2.112,3.745-3.745,5.186c-1.632,1.44-3.648,2.592-6.146,3.36
			c-2.4,0.864-5.281,1.248-8.45,1.248c-6.146,0-12.099-1.344-15.652-2.688v-4.801v-9.122h0.48h1.152h3.937
			c1.248,0,1.92,0.672,2.208,1.824c0.096,0.479,0.288,1.824,0.672,5.665c2.592,0.769,5.665,0.769,7.778,0.769
			c1.44,0,2.688-0.192,3.649-0.48c1.056-0.384,1.824-0.768,2.497-1.344c0.672-0.576,1.152-1.057,1.44-1.825
			c0.288-0.768,0.384-1.536,0.384-2.305c0-1.151-0.288-2.016-0.96-2.784c-0.672-0.769-1.633-1.345-2.785-1.921
			c-1.152-0.576-2.401-1.056-3.841-1.44c-1.44-0.479-2.977-0.96-4.513-1.439c-1.536-0.48-2.977-1.152-4.417-1.825
			c-1.44-0.672-2.785-1.536-3.937-2.593c-1.152-1.056-2.016-2.304-2.688-3.841c-0.672-1.536-1.056-3.36-1.056-5.569
			c0-2.017,0.384-3.937,1.152-5.761c0.768-1.825,2.016-3.457,3.553-4.802c1.536-1.344,3.553-2.496,5.857-3.265
			s4.897-1.248,7.97-1.248c4.801,0,7.49,0.479,14.404,2.593h-0.096v13.923H70.17h-1.152h-3.937c-1.249,0-1.92-0.672-2.208-1.824
			c-0.096-0.48-0.288-1.633-0.672-5.377c-1.248-0.385-3.553-0.673-5.761-0.673c-2.305,0-4.129,0.48-5.474,1.44
			c-1.344,0.961-2.016,2.305-2.016,3.938c0,1.056,0.384,1.92,1.056,2.688c0.672,0.769,1.536,1.248,2.688,1.824
			s2.401,1.152,3.841,1.536c1.44,0.385,2.881,0.864,4.417,1.345c1.536,0.48,3.073,1.152,4.513,1.824
			c1.44,0.673,2.689,1.44,3.841,2.497c1.152,0.96,2.016,2.112,2.688,3.553S73.051,115.549,73.051,117.565z
            M131.813,83.957v5.666c0,1.632-0.768,2.593-2.4,2.977c-0.769,0.096-0.48,0.192-4.513,0.864l-15.844,39.754
			H98.301L82.458,93.464c-4.129-0.769-3.745-0.769-4.513-0.864c-1.632-0.384-2.4-1.345-2.4-2.977v-5.666h3.168h9.891H99.55v5.666
			c0,1.632-0.769,2.593-2.401,2.977c-0.576,0.096-0.768,0.096-2.688,0.48l7.01,19.396c0.576,1.536,0.96,3.072,1.344,4.513
			s0.768,2.977,1.056,4.417c0.288-1.44,0.576-2.977,0.96-4.417c0.384-1.44,0.864-2.977,1.44-4.513l7.105-19.301
			c-2.4-0.384-2.593-0.48-3.169-0.576c-1.632-0.384-2.4-1.345-2.4-2.977v-5.666h11.427h9.41H131.813z
            M162.152,83.766c1.824,0.384,3.553,1.056,5.089,1.92h14.116v4.417c0,0.769-0.192,1.345-0.576,1.729
			c-0.384,0.385-0.96,0.673-1.92,0.864l-4.417,0.769c0.288,0.864,0.48,1.729,0.672,2.688s0.288,1.824,0.288,2.881
			c0,2.4-0.48,4.705-1.44,6.626c-0.96,1.92-2.304,3.648-4.033,4.993c-1.729,1.344-3.841,2.4-6.146,3.168
			c-2.305,0.769-4.801,1.152-7.586,1.152c-1.825,0-3.745-0.096-5.474-0.479c-1.536,0.96-2.304,1.92-2.304,3.072
			c0,0.961,0.384,1.729,1.344,2.209c0.96,0.479,2.112,0.768,3.649,0.96c1.536,0.192,3.168,0.384,5.089,0.384
			c1.92,0.097,3.745,0.097,5.761,0.288c2.017,0.192,3.937,0.48,5.857,0.864c1.92,0.385,3.457,1.057,4.993,1.921
			c1.537,0.864,2.689,1.92,3.649,3.457c0.96,1.536,1.344,3.457,1.344,5.761c0,2.209-0.576,4.321-1.632,6.338
			s-2.593,3.841-4.609,5.474c-2.017,1.632-4.513,2.881-7.49,3.841c-2.977,0.96-6.337,1.44-10.083,1.44
			c-3.745,0-7.009-0.288-9.794-1.057c-2.785-0.768-4.994-1.729-6.818-2.881c-1.825-1.152-3.169-2.592-4.033-4.129
			c-0.864-1.536-1.344-3.169-1.344-4.896c0-2.305,0.672-4.321,2.113-5.857c1.44-1.537,3.361-2.689,5.857-3.649
			c-1.249-0.672-2.113-1.536-2.881-2.688s-1.152-2.593-1.152-4.417c0-0.769,0.096-1.536,0.384-2.305s0.576-1.536,1.152-2.305
			s1.248-1.536,2.016-2.209c0.769-0.672,1.825-1.248,2.881-1.824c-2.497-1.344-4.513-3.169-5.954-5.377
			c-1.44-2.209-2.112-4.897-2.112-7.874c0-2.4,0.48-4.705,1.44-6.626c0.96-1.92,2.4-3.648,4.129-4.993
			c1.729-1.344,3.745-2.4,6.146-3.169c2.4-0.768,5.089-1.152,7.874-1.152C158.311,83.093,160.328,83.381,162.152,83.766z
			 M168.298,133.121c-0.576-0.576-1.345-1.056-2.305-1.439c-0.96-0.385-2.208-0.576-3.553-0.769
			c-1.344-0.192-2.688-0.288-4.225-0.384c-1.537-0.097-3.073-0.097-4.609-0.192c-1.536-0.096-3.073-0.192-4.513-0.384
			c-1.344,0.768-2.497,1.632-3.265,2.592c-0.768,0.961-1.249,2.113-1.249,3.457c0,0.864,0.288,1.633,0.672,2.4
			c0.384,0.769,1.056,1.44,2.017,2.017c0.96,0.576,2.208,0.961,3.745,1.249c1.537,0.288,3.265,0.479,5.474,0.479
			s4.129-0.191,5.761-0.576c1.632-0.384,2.881-0.768,3.937-1.344s1.825-1.345,2.305-2.113c0.48-0.768,0.672-1.728,0.672-2.688
			C169.162,134.466,168.874,133.697,168.298,133.121z M160.04,106.812c1.056-0.385,2.017-0.961,2.688-1.633
			c0.769-0.672,1.249-1.633,1.633-2.593c0.384-0.96,0.576-2.112,0.576-3.265c0-2.4-0.769-4.321-2.209-5.762
			c-1.44-1.44-3.648-2.112-6.529-2.112s-5.186,0.672-6.625,2.112c-1.44,1.44-2.113,3.361-2.113,5.762
			c0,1.152,0.096,2.305,0.48,3.265c0.384,0.96,0.864,1.729,1.633,2.497c0.768,0.768,1.632,1.344,2.785,1.729
			c1.152,0.384,2.4,0.575,3.841,0.575S158.983,107.195,160.04,106.812z"/>
</g>
<g class="hide-me" id="SASS_">
  <path class="sass-pink" d="M92.641,109.918c6.052-4.531,3.476,5.326,2.77,7.733c-0.442,1.507-3.635,10.274-1.443,11.147
      c6.195-9.076,9.29-20.394,13.601-30.377c0.904-2.094,6.913-3.645,7.951-1.073c0.744,1.843-1.182,5.789-1.288,7.807
      c-0.149,2.837,0.413,5.759,2.229,8.025c2.593-3.5,4.314-7.642,6.398-11.449c1.505-2.748,1.41-8.344,4.815-9.174
      c1.127-0.275,6.41-1.152,6.132,1.27c-0.745,6.48-2.395,9.575,0.871,15.884c1.037,2.003,8.187-1.285,10.213-1.476
      c4.854-0.457,9.877,0.285,14.094,2.844c4.054,2.46,7.218,6.835,7.009,11.751c-0.129,3.037-3.094,8.589-6.963,8.05
      c0.509,0.071,4.26-5.722,4.368-6.903c0.473-5.138-4.465-8.95-8.804-10.386c-3.775-1.249-8.084-1.534-12.032-1.196
      c-5.591,0.479-5.309,1.229-4.755,5.685c0.91,7.32-14.851,16.923-15.506,9.042c-0.335-4.037,3.055-8.286,5.713-10.923
      c3.124-3.099-0.043-8.888-1.586-12.781c-2.299,3.548-3.991,7.44-6.302,10.99c-2.483,3.815-0.518,4.321-0.327,8.361
      c0.321,6.784-5.961,10.749-11.93,11.745c-8.502,1.419-3.548-5.706-0.498-8.904c1.267-1.329,5.283-4.959,4.84-7.022
      c-0.527-2.452-2.267-9.113-3.887-11.099c-4.239,8.395-7.172,17.372-12.329,25.33c-1.465,2.261-4.99,5.853-7.306,2.196
      c-1.795-2.833,0.79-6.82-0.842-9.154c-1.992,3.661-3.553,12.007-8.621,12.665c-10.168,1.319-6.577-18.56-5.684-22.993
      c-0.661,0.296-7.99,3.795-7.545,4.723c1.886,3.928,1.959,8.625,1.1,12.826c-1.728,8.45-8.604,15.668-17.214,17.173
      c-9.518,1.665-16.113-5.338-11.763-14.788c4.085-8.873,13.901-10.667,20.642-16.444c-7.609-4.647-16.507-10.599-22.018-17.684
      c-6.455-8.299-3.84-17.219,2.247-24.86C49.969,62.704,70.811,52.53,88.115,50.78c8.393-0.849,18.724-0.057,24.875,6.466
      c5.908,6.264,3.783,15.211-0.334,21.81c-7.95,12.745-30.203,23.584-44.516,14.92c-0.712-0.431-6.677-6.399-4.223-6.41
      c1.181-0.005,3.308,2.569,4.495,3.092c2.116,0.932,4.417,1.356,6.718,1.426c9.518,0.289,19.768-3.875,26.729-10.271
      c4.922-4.523,11.949-14.78,4.708-20.515c-5.305-4.202-14.117-3.239-20.307-2.076C71.648,61.967,41.4,74.583,42.453,93.169
      c0.498,8.789,9.914,14.174,16.043,19.053c4.132,3.289,4.38,4.687,9.277,2c4.351-2.388,8.127-4.092,11.483-7.784
      c2.447-2.692,6.778-6.108,10.7-4.993C93.794,102.536,92.396,107.032,92.641,109.918C93.886,108.986,92.631,109.802,92.641,109.918
      z M61.413,122.597c-3.227,1.409-23.728,14.596-15.948,20.702c3.922,3.078,10.302-2.189,12.642-5.011
      C61.915,133.697,62.504,127.359,61.413,122.597C56.624,124.687,61.553,123.211,61.413,122.597z M77.965,125.493
      c0.087,1.311,0.435,7.303,2.936,4.557c3.362-3.691,5.141-11.285,6.586-15.878c1.389-4.415,1.53-11.067-3.751-4.859
      C79.997,113.709,77.995,119.77,77.965,125.493c-0.058-0.865-0.002-1.784,0.019-2.652
      C77.974,123.725,77.967,124.609,77.965,125.493C78.028,126.446,77.998,119.265,77.965,125.493z M131.513,117.414
      c-1.714,1.202-6.279,6.659-5.162,9.321c0.448,1.068,3.541-1.879,3.72-2.076C131.871,122.685,132.465,119.931,131.513,117.414
      C131.357,117.524,131.939,118.541,131.513,117.414C129.954,118.509,131.875,118.371,131.513,117.414z M113.955,123.475
      c-0.899-0.245-6.314,6.761-6.743,7.836C111.045,132.029,113.701,125.476,113.955,123.475
      C113.057,123.229,113.887,124.013,113.955,123.475z"/>
</g>
<g class="hide-me" id="PS_">
  <path class="ps-blue" d="M35 37h128v128h-128z"/>
  <path class="scheme-light" d="M70.469,80.682c3.385-0.576,8.137-1.008,14.833-1.008c6.77,0,11.594,1.296,14.834,3.888
        c3.096,2.448,5.185,6.48,5.185,11.233s-1.585,8.785-4.465,11.521c-3.744,3.528-9.289,5.112-15.77,5.112
        c-1.439,0-2.736-0.072-3.744-0.216v17.354H70.469V80.682z M81.342,102.716c0.937,0.216,2.088,0.288,3.673,0.288
        c5.832,0,9.433-2.953,9.433-7.921c0-4.464-3.097-7.128-8.569-7.128c-2.231,0-3.744,0.216-4.536,0.432V102.716z
        M110.356,118.99c2.017,1.224,6.192,2.664,9.434,2.664c3.312,0,4.68-1.152,4.68-2.952s-1.08-2.665-5.185-4.032
        c-7.272-2.448-10.08-6.409-10.009-10.585c0-6.553,5.617-11.521,14.329-11.521c4.104,0,7.777,0.936,9.938,2.016l-1.944,7.561
        c-1.584-0.864-4.608-2.016-7.633-2.016c-2.664,0-4.176,1.08-4.176,2.88c0,1.656,1.367,2.52,5.688,4.032
        c6.696,2.304,9.504,5.688,9.576,10.873c0,6.552-5.185,11.377-15.265,11.377c-4.608,0-8.713-1.008-11.378-2.448L110.356,118.99z"/>
</g>
<g class="hide-me" id="PHP_">
  <path class="php-blue" d="M56.527,89.212c4.607,0,7.602,0.921,8.984,2.534c1.613,1.613,1.843,4.607,1.152,8.524
      c-0.921,4.147-2.304,7.141-4.838,8.984c-2.304,1.843-5.99,2.764-10.597,2.764h-7.141l4.377-22.807H56.527z M27.5,134.825h11.749
      l2.764-14.513H52.15c4.377,0,8.063-0.461,11.058-1.382s5.529-2.534,7.833-4.838c2.073-1.843,3.686-3.916,4.838-5.99
      c1.152-2.304,2.073-4.607,2.534-7.372c1.152-6.45,0.23-11.518-2.764-14.974c-3.225-3.686-8.063-5.298-14.974-5.298H37.867
      L27.5,134.825z M87.396,66.175h11.749L96.38,80.688h10.367c6.681,0,11.058,1.152,13.592,3.456c2.534,2.304,3.225,5.99,2.304,11.058
      l-4.838,25.341h-11.979l4.607-23.958c0.461-2.764,0.23-4.607-0.691-5.529c-0.921-0.921-2.995-1.382-5.99-1.382h-9.445l-5.99,31.1
      H76.569L87.396,66.175z M148.905,89.212c4.607,0,7.602,0.921,8.984,2.534c1.613,1.613,1.843,4.607,1.152,8.524
      c-0.921,4.147-2.304,7.141-4.838,8.984c-2.304,1.843-5.99,2.764-10.597,2.764h-7.141l4.377-22.807H148.905z M120.108,134.825
      h11.749l2.764-14.513h10.136c4.377,0,8.063-0.461,11.058-1.382c2.995-0.921,5.529-2.534,7.833-4.838
      c2.073-1.843,3.686-3.916,4.838-5.99c1.152-2.304,2.073-4.607,2.534-7.372c1.152-6.45,0.23-11.518-2.764-14.974
      c-3.225-3.686-8.063-5.298-14.974-5.298h-22.807L120.108,134.825z"/>
</g>
<g class="hide-me" id="MySQL_">
  <path class="mysql-blue" d="M7.345,139.604h6.072v-23.978l9.4,20.903c1.109,2.53,2.627,3.425,5.605,3.425
      c2.978,0,4.437-0.895,5.547-3.425l9.4-20.903v23.978h6.072v-23.938c0-2.335-0.935-3.464-2.861-4.048
      c-4.612-1.44-7.707-0.195-9.108,2.919l-9.225,20.63l-8.933-20.63c-1.343-3.114-4.496-4.36-9.108-2.919
      c-1.927,0.583-2.861,1.713-2.861,4.048V139.604z
      M54.49,120.087h6.07v13.21c-0.057,0.718,0.23,2.402,3.557,2.454c1.697,0.026,13.097,0,13.204,0v-15.729h6.084
      c0.028,0-0.006,21.45-0.006,21.541c0.034,5.29-6.564,6.439-9.605,6.528H54.622v-4.085c0.034,0,19.159,0.004,19.207-0.001
      c3.908-0.413,3.446-2.355,3.446-3.009v-1.592H64.369c-6.004-0.055-9.828-2.676-9.876-5.691
      C54.489,133.434,54.623,120.219,54.49,120.087z
      M185.197,104.863c-3.733-0.101-6.584,0.246-9.021,1.274c-0.693,0.292-1.797,0.3-1.91,1.168
      c0.381,0.399,0.44,0.995,0.742,1.486c0.582,0.942,1.565,2.204,2.441,2.866c0.958,0.723,1.945,1.497,2.972,2.123
      c1.827,1.114,3.866,1.75,5.625,2.866c1.036,0.658,2.066,1.486,3.078,2.228c0.5,0.367,0.836,0.938,1.486,1.167
      c0-0.035,0-0.07,0-0.106c-0.341-0.435-0.429-1.032-0.743-1.486c-0.46-0.46-0.92-0.92-1.38-1.38
      c-1.349-1.791-3.062-3.363-4.882-4.67c-1.452-1.042-4.701-2.45-5.307-4.139c-0.035-0.035-0.07-0.071-0.106-0.106
      c1.029-0.116,2.235-0.488,3.185-0.743c1.596-0.428,3.022-0.317,4.67-0.743c0.743-0.212,1.486-0.425,2.229-0.637
      c0-0.142,0-0.283,0-0.425c-0.833-0.855-1.427-1.986-2.335-2.759c-2.376-2.024-4.97-4.046-7.641-5.731
      c-1.481-0.935-3.312-1.543-4.882-2.335c-0.528-0.266-1.456-0.405-1.805-0.849c-0.825-1.051-1.274-2.384-1.91-3.609
      c-1.332-2.565-2.641-5.367-3.821-8.066c-0.805-1.841-1.331-3.656-2.335-5.307c-4.819-7.923-10.007-12.705-18.042-17.406
      c-1.71-1-3.768-1.394-5.944-1.91c-1.167-0.071-2.335-0.142-3.502-0.212c-0.713-0.298-1.454-1.17-2.123-1.592
      c-2.662-1.682-9.49-5.34-11.462-0.531c-1.245,3.036,1.861,5.998,2.971,7.536c0.78,1.079,1.778,2.289,2.335,3.502
      c0.366,0.797,0.43,1.597,0.743,2.441c0.772,2.079,1.443,4.34,2.441,6.262c0.505,0.972,1.061,1.996,1.698,2.866
      c0.391,0.533,1.061,0.768,1.167,1.592c-0.655,0.917-0.693,2.341-1.061,3.502c-1.659,5.23-1.033,11.731,1.38,15.602
      c0.74,1.188,2.484,3.737,4.882,2.759c2.097-0.854,1.629-3.502,2.229-5.837c0.136-0.53,0.052-0.919,0.318-1.274
      c0,0.035,0,0.071,0,0.106c0.637,1.274,1.274,2.547,1.911,3.82c1.414,2.277,3.923,4.657,6.049,6.263
      c1.103,0.833,1.971,2.272,3.396,2.759c0-0.035,0-0.07,0-0.106c-0.036,0-0.071,0-0.106,0c-0.276-0.431-0.708-0.609-1.061-0.955
      c-0.831-0.814-1.754-1.827-2.441-2.759c-1.934-2.626-3.643-5.499-5.2-8.491c-0.744-1.428-1.39-3.004-2.017-4.458
      c-0.242-0.561-0.239-1.408-0.742-1.698c-0.687,1.065-1.698,1.926-2.229,3.184c-0.849,2.01-0.959,4.462-1.273,7.005
      c-0.186,0.067-0.104,0.021-0.213,0.106c-1.478-0.357-1.998-1.878-2.547-3.184c-1.39-3.301-1.648-8.618-0.425-12.418
      c0.316-0.983,1.746-4.08,1.167-4.988c-0.276-0.906-1.188-1.431-1.698-2.123c-0.631-0.856-1.262-1.983-1.698-2.972
      c-1.137-2.574-1.668-5.464-2.865-8.066c-0.572-1.244-1.54-2.503-2.335-3.609c-0.88-1.225-1.865-2.127-2.547-3.609
      c-0.243-0.526-0.572-1.369-0.212-1.91c0.114-0.365,0.276-0.518,0.637-0.637c0.616-0.475,2.33,0.158,2.971,0.424
      c1.702,0.707,3.123,1.38,4.564,2.335c0.692,0.459,1.392,1.346,2.228,1.592c0.318,0,0.637,0,0.955,0
      c1.494,0.344,3.168,0.107,4.564,0.531c2.467,0.75,4.678,1.916,6.686,3.184c6.117,3.863,11.119,9.361,14.541,15.92
      c0.55,1.056,0.789,2.064,1.273,3.184c0.978,2.259,2.21,4.583,3.184,6.792c0.971,2.204,1.918,4.428,3.29,6.262
      c0.722,0.964,3.509,1.481,4.776,2.016c0.888,0.375,2.343,0.766,3.184,1.273c1.607,0.969,3.163,2.123,4.67,3.185
      C182.766,102.741,185.081,103.904,185.197,104.863z
      M135.845,64.638l1.591,2.016l1.062,2.229c0,0,1.992-1.268,0.335-3.623
      C137.979,64.045,135.845,64.638,135.845,64.638z"/>
  <path class="mysql-yellow" d="M88.085,139.604h17.457c2.044,0,4.029-0.428,5.605-1.168c2.627-1.206,3.912-2.841,3.912-4.982v-4.437
      c0-1.752-1.46-3.387-4.321-4.476c-1.518-0.584-3.386-0.896-5.196-0.896h-7.357c-2.452,0-3.62-0.74-3.911-2.374
      c-0.059-0.195-0.059-0.351-0.059-0.545v-2.763c0-0.156,0-0.312,0.059-0.506c0.292-1.245,0.934-1.596,3.094-1.791
      c0.175,0,0.409-0.039,0.584-0.039h17.341v-4.047H98.244c-2.452,0-3.737,0.156-4.904,0.505c-3.62,1.129-5.196,2.92-5.196,6.034
      v3.542c0,2.725,3.095,5.06,8.291,5.605c0.584,0.039,1.168,0.078,1.751,0.078h6.306c0.234,0,0.468,0,0.643,0.039
      c1.927,0.156,2.744,0.506,3.328,1.207c0.35,0.35,0.467,0.701,0.467,1.09v3.542c0,0.428-0.292,0.974-0.875,1.44
      c-0.526,0.467-1.401,0.779-2.569,0.857c-0.234,0-0.409,0.039-0.642,0.039H88.085V139.604z
      M164.032,139.604h15.823v-4.048h-15.94c-3.561,0-4.904-0.896-4.904-3.036v-20.941h-6.072v20.98
      c0,4.165,3.094,6.5,9.342,6.968L164.032,139.604z
      M118.934,132.771v-14.432c0-3.666,2.575-5.89,7.664-6.592c0.527-0.078,1.112-0.117,1.638-0.117h11.526
      c0.585,0,1.112,0.039,1.697,0.117c5.09,0.702,7.664,2.926,7.664,6.592v14.432c0,2.975-1.093,4.567-3.613,5.604l5.981,5.399h-7.05
      l-4.839-4.368l-4.872,0.309h-6.494c-1.112,0-2.281-0.157-3.569-0.507C120.807,138.154,118.934,136.126,118.934,132.771z
       M125.488,132.42c0,0.195,0.058,0.39,0.117,0.624c0.351,1.677,1.931,2.613,4.329,2.613h5.517l-5.067-4.575h7.05l4.42,3.99
      c0.814-0.434,1.35-1.098,1.538-1.95c0.058-0.195,0.058-0.39,0.058-0.585V118.69c0-0.156,0-0.351-0.058-0.547
      c-0.351-1.56-1.931-2.457-4.271-2.457h-9.186c-2.691,0-4.446,1.17-4.446,3.003V132.42z"/>
  <path stroke-width="0" d="M182.705,135.441c0,2.673,2.112,4.475,4.475,4.475s4.475-1.801,4.475-4.475c0-2.673-2.112-4.474-4.475-4.474
      S182.705,132.768,182.705,135.441z M190.652,135.441c0,2.028-1.551,3.544-3.472,3.544c-1.945,0-3.472-1.516-3.472-3.544
      c0-2.028,1.528-3.544,3.472-3.544C189.101,131.896,190.652,133.412,190.652,135.441z M188.385,137.994h1.002l-1.467-2.243
      c0.787-0.084,1.384-0.466,1.384-1.396c0-1.038-0.656-1.468-1.921-1.468h-1.993v5.107h0.859v-2.208h0.8L188.385,137.994z
       M186.249,135.071v-1.468h0.99c0.514,0,1.134,0.096,1.134,0.692c0,0.715-0.561,0.775-1.205,0.775H186.249z"/>
</g>
<g class="hide-me" id="JS_">
  <path class="scheme-light" d="M60.567,123.808c0.384-0.864,0.864-1.632,1.536-2.305s1.44-1.152,2.305-1.537
      c0.864-0.384,1.824-0.576,2.881-0.576c0.96,0,2.017,0.192,2.881,0.576c0.864,0.384,1.632,0.864,2.304,1.537
      c0.673,0.672,1.152,1.44,1.537,2.305c0.384,0.864,0.576,1.92,0.576,2.88c0,1.057-0.192,2.017-0.576,2.881
      c-0.385,0.864-0.864,1.537-1.537,2.208c-0.672,0.672-1.439,1.152-2.304,1.537c-0.864,0.384-1.825,0.576-2.785,0.576
      c-1.057,0-2.017-0.192-2.881-0.576c-0.864-0.384-1.729-0.864-2.4-1.537c-0.672-0.672-1.152-1.344-1.536-2.208
      c-0.385-0.864-0.576-1.824-0.576-2.881C59.991,125.728,60.183,124.672,60.567,123.808z
      M99.742,83.958v50.893c0,2.113-0.192,4.129-0.769,6.049c-0.576,1.921-1.44,3.553-2.688,4.994
      c-1.248,1.44-2.881,2.592-4.897,3.361c-2.016,0.768-4.417,1.248-7.297,1.248c-1.152,0-2.113-0.096-3.073-0.192
      c-0.96-0.096-2.017-0.48-2.977-0.768l0.384-6.338c0.096-0.672,0.384-1.056,0.769-1.248c0.384-0.192,1.248-0.288,2.4-0.288
      s2.209,0,2.977-0.288c0.769-0.192,1.536-0.576,2.017-1.152c0.48-0.48,0.864-1.249,1.057-2.113
      c0.191-0.864,0.288-2.016,0.288-3.265V93.464c-1.152-0.192-2.113-0.384-2.785-0.48s-1.152-0.288-1.44-0.288
      S83.227,92.6,83.034,92.6c-1.633-0.384-2.4-1.344-2.4-2.977v-5.666h7.298H99.742z M101.566,69.65c0,1.056-0.191,2.016-0.576,2.88
      c-0.384,0.864-1.056,1.632-1.729,2.305c-0.672,0.672-1.44,1.249-2.4,1.632c-0.96,0.384-1.92,0.576-2.977,0.576
      s-2.017-0.192-2.881-0.576c-0.864-0.384-1.729-0.96-2.4-1.632s-1.248-1.44-1.633-2.305c-0.384-0.864-0.576-1.824-0.576-2.88
      c0-1.057,0.192-2.017,0.576-2.977c0.385-0.96,0.961-1.729,1.633-2.4c0.672-0.672,1.44-1.249,2.4-1.632
      c0.864-0.384,1.824-0.576,2.881-0.576s2.017,0.192,2.977,0.576c0.96,0.384,1.729,0.96,2.4,1.632c0.673,0.672,1.345,1.44,1.729,2.4
      C101.375,67.634,101.566,68.594,101.566,69.65z
      M140.261,117.566c0,2.4-0.479,4.609-1.344,6.625c-0.864,2.017-2.112,3.745-3.745,5.186
      s-3.648,2.592-6.146,3.361c-2.4,0.864-5.281,1.248-8.45,1.248c-6.146,0-12.099-1.344-15.651-2.688v-4.801v-9.122h0.479h1.152
      h3.938c1.248,0,1.92,0.672,2.208,1.824c0.097,0.48,0.288,1.825,0.673,5.666c2.592,0.768,5.665,0.768,7.777,0.768
      c1.44,0,2.688-0.192,3.649-0.48c1.056-0.384,1.824-0.768,2.496-1.344s1.152-1.057,1.44-1.825s0.384-1.536,0.384-2.305
      c0-1.152-0.288-2.016-0.96-2.785c-0.672-0.768-1.633-1.344-2.784-1.92c-1.152-0.576-2.401-1.056-3.842-1.44
      c-1.44-0.48-2.977-0.96-4.513-1.44c-1.536-0.48-2.977-1.152-4.417-1.825c-1.44-0.672-2.785-1.536-3.938-2.593
      c-1.152-1.056-2.016-2.304-2.688-3.841c-0.672-1.536-1.056-3.361-1.056-5.569c0-2.017,0.384-3.937,1.152-5.761
      c0.768-1.825,2.016-3.457,3.553-4.801c1.536-1.344,3.553-2.497,5.857-3.265c2.305-0.769,4.896-1.249,7.97-1.249
      c4.801,0,7.49,0.48,14.403,2.593h-0.096v13.923h-0.384h-1.152h-3.938c-1.248,0-1.92-0.672-2.208-1.825
      c-0.097-0.48-0.288-1.632-0.673-5.377c-1.248-0.384-3.553-0.672-5.761-0.672c-2.305,0-4.129,0.48-5.474,1.44
      s-2.017,2.305-2.017,3.937c0,1.056,0.384,1.92,1.057,2.688c0.672,0.769,1.536,1.249,2.688,1.825s2.4,1.152,3.841,1.536
      c1.44,0.384,2.881,0.864,4.417,1.344c1.536,0.48,3.073,1.152,4.513,1.825c1.44,0.672,2.689,1.44,3.842,2.497
      c1.152,0.96,2.016,2.112,2.688,3.553C139.877,113.917,140.261,115.549,140.261,117.566z"/>
</g>
<g class="hide-me" id="ID_">
  <path class="id-pink" d="M35 37h128v128h-128z"/>
  <path class="scheme-light" d="M83.662,83.1v48.532H72.645V83.1H83.662z
      M126.72,80.508v40.612c0,3.96,0.144,8.137,0.288,10.513h-9.721l-0.504-5.185h-0.144
      c-2.232,3.96-6.48,5.977-11.017,5.977c-8.353,0-15.049-7.128-15.049-18.073c-0.072-11.881,7.345-18.722,15.77-18.722
      c4.32,0,7.705,1.512,9.289,3.96h0.144V80.508H126.72z M115.775,111.327c0-0.576-0.072-1.368-0.144-1.944
      c-0.648-2.952-3.024-5.4-6.409-5.4c-4.968,0-7.561,4.464-7.561,10.009c0,5.977,2.952,9.721,7.488,9.721
      c3.168,0,5.688-2.16,6.337-5.256c0.216-0.792,0.288-1.584,0.288-2.52V111.327z"/>
</g>
<g class="hide-me" id="html5_">
  <path class="html-orange" d="M99.579,164.5l-47.287-15.911L43.75,36.5h111.5l-8.542,112.089L99.579,164.5z"/>
  <path class="scheme-light" d="M142.551,54L58.972 54 63.402 104 121.287 104 119.22 125.183 99.5 130.016 82.008 126.143
           80.827 114 64.288 114 66.356 139.175 99.5 148.002 135.025 138.596 139.598 88 78.76 88 77.283 71 141.074 71 z" />
</g>
<g class="hide-me" id="Git_">
  <path d="M99.496,36.5c-36.234,0-65.616,29.379-65.616,65.624c0,28.989,18.8,53.585,44.878,62.263
      c3.281,0.602,4.479-1.424,4.479-3.163c0-1.558-0.057-5.684-0.089-11.161c-18.253,3.966-22.105-8.796-22.105-8.796
      c-2.984-7.581-7.286-9.599-7.286-9.599c-5.958-4.071,0.451-3.989,0.451-3.989c6.585,0.464,10.051,6.762,10.051,6.762
      c5.854,10.028,15.358,7.132,19.097,5.452c0.596-4.241,2.291-7.132,4.166-8.773c-14.571-1.656-29.89-7.286-29.89-32.432
      c0-7.164,2.557-13.021,6.754-17.608c-0.675-1.66-2.927-8.332,0.643-17.366c0,0,5.51-1.764,18.045,6.727
      c5.234-1.455,10.848-2.183,16.428-2.209c5.572,0.025,11.186,0.753,16.428,2.209c12.528-8.491,18.027-6.727,18.027-6.727
      c3.58,9.034,1.328,15.706,0.653,17.366c4.206,4.587,6.745,10.445,6.745,17.608c0,25.209-15.342,30.756-29.961,32.38
      c2.356,2.026,4.455,6.031,4.455,12.152c0,8.773-0.081,15.85-0.081,18.002c0,1.755,1.182,3.796,4.512,3.155
      c26.053-8.694,44.837-33.274,44.837-62.255C165.12,65.879,135.737,36.5,99.496,36.5z"/>
</g>
<g class="hide-me" id="css3_">
  <path class="css-blue" d="M99.579,164.5l-47.287-15.911L43.75,36.5h111.5l-8.542,112.089L99.579,164.5z"/>
  <path class="scheme-light"  d="M141.899,56L59.978 56 62.243 72 123.344 72 121.859 88 97 88 97 104
    120.416 104 118.37 125.497 100.329 130.39 82.154 126.355 80.997 114 64.68 114 66.957 138.665 100.329 147.459 133.958 138.858 z" />
</g>
<g class="hide-me" id="CC_">
  <path class="cc-red" d="M96.146,147.631c-16.889,0-33.833,1.791-47.333-10.323c-6.78-6.084-11.018-13.668-12.637-22.645
      c-1.668-9.248-0.242-18.058,4.216-26.316c3.5-6.485,8.5-11.595,14.841-15.37c4.373-2.604,9.227-4.323,14.253-5.108
      c5.463-0.854,11.023,1.327,15.237-2.521c7.803-7.124,18.077-11.344,28.608-11.986c32.023-1.953,57.616,29.618,48.192,60.547
      c-2.66,8.729-7.398,16.119-14.272,22.116C132.494,148.897,114.509,147.631,96.146,147.631
      C89.463,147.631,102.765,147.631,96.146,147.631z M91.917,71.13c2.485,1.645,5.167,2.915,7.611,4.657
      c0.655,0.467,7.521-3.366,8.702-3.714c4.615-1.36,9.503-1.436,14.18-0.337c12.129,2.85,19.786,10.575,22.75,22.639
      c1.73,7.042,0.46,13.909-3,20.229c-5.303,9.689-13.599,14.975-24.637,15.553c-8.361,0.438-15.689-2.317-21.694-8.239
      c-5.738-5.659-12.105-14.946-19.088-18.91c-1.939-1.101-4.31-0.624-5.655,1.136c-1.094,1.431-1.549,3.776,0.412,5.696
      c7.305,7.153,14.219,15.579,22.326,21.814c6.116,4.704,13.128,6.83,20.748,7.141c5.242,0.214,10.322-0.619,15.23-2.515
      c6.33-2.444,11.683-6.261,15.921-11.539c7.315-9.112,10.031-19.49,8.048-31.017c-1.471-8.55-5.569-15.722-11.966-21.535
      c-6.749-6.133-14.773-9.304-23.856-9.818C108.705,61.849,98.932,65.053,91.917,71.13C92.029,71.204,93.172,70.043,91.917,71.13z
       M88.804,138.702c-1.91-1.662-7.462-8.842-9.812-8.81c-6.74,0.092-13.051-0.844-18.232-5.562c-4.37-3.98-6.931-8.915-7.519-14.817
      c-0.39-3.912,0.287-7.664,1.909-11.244c4.112-9.08,14.545-14.806,24.743-12.7c10.29,2.126,17.097,11.582,24.099,18.717
      c0.861,0.878,1.762,1.268,2.965,1.227c3.707-0.126,5.725-4.474,3.025-7.201c-6.287-6.352-12.435-14.394-20.58-18.416
      c-5.707-2.819-11.732-3.885-18.013-2.947c-9.942,1.484-17.549,6.61-22.582,15.315c-4.167,7.208-5.179,14.964-3.11,23.029
      c3.582,13.964,15.849,23.402,30.266,23.408C80.243,138.703,84.523,138.702,88.804,138.702
      C88.124,138.11,88.439,138.702,88.804,138.702z"/>
</g>
<g class="hide-me" id="Brackets_">
  <path class="brackets-blue" d="M35 37h128v128h-128z"/>
  <path class="scheme-light" d="M48 52h100v100h-100z"/>
  <path class="scheme-dark" d="M132.522,84.609v54.783h-25.043v-11.739h14.087V95.565h-14.087V84.609H132.522z
        M92.522,84.609v10.957H79.217v32.087h13.304v11.739H67.478V84.609H92.522z"/>
</g>
<g class="hide-me" id="aws_">
  <path class="aws-yellow" d="M165.9,63.177c0,26.558-0.01,53.116,0.031,79.673c0.002,1.27-0.381,1.8-1.577,2.206
      c-18.81,6.383-37.606,12.808-56.391,19.265c-1.126,0.387-1.344,0.182-1.341-0.954c0.074-27.411,0.122-54.821,0.157-82.232
      c0.001-0.783,0.106-1.237,0.996-1.512c19.077-5.883,38.141-11.806,57.208-17.721C165.216,61.83,165.9,62.726,165.9,63.177z
      M33.07,143.251c-0.001,0.983,0.321,1.382,1.219,1.684c18.719,6.31,37.428,12.651,56.139,18.983
      c1.718,0.581,1.725,0.574,1.725-1.178c0.001-27.001-0.011-54.001,0.037-81.002c0.002-1.278-0.46-1.685-1.565-2.041
      c-14.464-4.66-52.705-17.071-57.452-18.601c0,0-0.031,0.465,0,0C33.172,61.096,33.1,116.25,33.07,143.251z M45.132,53.196
      c17.676,5.629,35.355,11.25,53.027,16.893c0.906,0.289,1.713,0.261,2.615-0.034c13.915-4.549,48.982-15.97,52.881-17.252
      c-0.766-0.242-1.223-0.392-1.683-0.531c-17.129-5.197-34.26-10.387-51.383-15.603c-0.865-0.264-1.638-0.198-2.475,0.054
      c-5.62,1.688-41.489,12.298-54.093,16.024C44.581,52.975,44.85,53.106,45.132,53.196z"/>
</g>
<g class="hide-me" id="ai_">
  <path class="ai-yellow" d="M35 37h128v128h-128z"/>
  <path class="scheme-light" d="M82.294,118.3l-3.457,12.457H67.461l14.833-48.532h14.401l15.049,48.532H99.936L96.191,118.3H82.294z
       M94.607,110.091l-3.024-10.297c-0.864-2.88-1.728-6.48-2.448-9.36h-0.144c-0.72,2.88-1.44,6.552-2.232,9.36l-2.88,10.297H94.607z
       M128.733,85.753c0,3.024-2.304,5.473-5.904,5.473c-3.457,0-5.761-2.448-5.688-5.473
      c-0.072-3.168,2.232-5.544,5.76-5.544S128.662,82.585,128.733,85.753z M117.429,130.757V95.546h10.945v35.211H117.429z"/>
</g>
<g class="hide-me" id="access_">
  <path class="access-red" d="M64.801,105.064c1.42-6.897,3.651-13.591,4.666-20.691c1.42,6.897,3.448,13.794,5.071,20.691
    C71.292,105.267,68.047,105.267,64.801,105.064z M164.402,133.666c0-22.719,0-45.439,0-68.158
    c0.406-6.086-4.868-10.143-10.143-11.968c-13.591-4.868-28.399-5.071-42.599-3.246c0-4.26,0-7.708,0-13.794h-9.128
    c-22.719,4.26-45.236,8.926-67.956,12.983c0,34.485,0,68.767,0,103.252c22.517,3.854,45.033,7.708,67.55,11.765h9.534
    c0-5.274,0-10.548,0-15.823c14.2,2.029,28.805,1.42,42.396-3.043C159.331,143.809,164.808,139.752,164.402,133.666z
     M79.407,124.538c-0.811-3.651-1.826-7.303-2.84-10.954c-4.463,0-9.128-0.203-13.591-0.406c-0.811,3.448-1.826,6.897-2.637,10.548
    c-2.84-0.203-5.68-0.406-8.723-0.609c4.26-15.62,8.723-31.036,12.983-46.453c3.449-0.203,6.897-0.406,10.345-0.811
    c4.868,16.431,9.534,33.065,14.605,49.699C86.101,125.147,82.652,124.944,79.407,124.538z M111.66,101.616
    c10.143,1.217,20.082,1.217,30.022,0c6.491-1.014,13.185-2.434,18.257-6.491c-0.203,6.288,0.406,12.78-0.406,19.068
    c-2.637,3.246-6.694,4.26-10.345,5.274c-12.171,2.84-25.357,2.84-37.528,1.217C111.66,114.395,111.66,107.904,111.66,101.616z
     M159.533,137.521c-4.26,4.463-10.751,5.477-16.634,6.491c-10.345,1.826-21.097,1.826-31.645,0.203c0.203-6.288,0-12.78,0-19.068
    c9.94,1.217,20.285,1.217,30.225,0c6.491-1.014,13.185-2.434,18.46-6.491C159.736,124.944,160.548,131.232,159.533,137.521z
     M159.533,90.459c-2.637,3.043-6.694,4.26-10.345,5.274c-12.374,2.84-25.357,3.043-37.528,1.42c0-6.288,0-12.78,0-19.068
    c10.143,1.217,20.082,1.217,30.022,0c6.491-1.014,13.185-2.434,18.46-6.491C159.736,77.679,160.548,84.17,159.533,90.459z
     M153.245,70.376c-13.388,4.666-27.385,5.071-41.585,2.84c0-6.086,0-12.171,0-18.257c12.171-1.826,26.777-1.826,39.556,2.231
    c3.448,1.217,8.317,2.84,9.128,7.1C159.533,67.739,156.085,69.159,153.245,70.376z"/>
</g>
</svg>
