<svg xmlns="http://www.w3.org/2000/svg" width="200" height="200" viewBox="0 0 200 200">
  <style>
    g:not(:target){display:none}.wpbl{fill:#21759B} .psbl{fill:#125396;} .phpbl{fill:#5C82B8;} .mysqlbl{fill:#00618A;} .cssbl{fill:#33A9DC;} .bracketsbl{fill:#29ABE2;} .mysqlyl{fill:#E48E00;} .awsyl{fill:#FE9800;} .aiyl{fill:#D1871B;} .ccrd{fill:#BC0916;} .accessrd{fill:#A33639;} .idpk{fill:#C9147B;} .htmlor{fill:#EF652A;} .sasspk{fill:#FF7BAC;} .schemedk{fill:#4D4D4D;} .schemelt{fill:#E6E6E6;} .showMe{display:block} .outline {fill:#E6E6E6; fill-opacity:0.2; stroke:#afafaf;stroke-width:2;}
  </style>
  <g id="ico-wor">
    <path class="wpbl" d="M44.5 100.5c0 21.8 12.6 40.6 31 49.4L49.3 78.2c-3 6.8-4.8 14.4-4.8 22.2zm92-2.6c0-7-2.4-11.5-4.6-15.3-3-4.6-5.5-8.4-5.5-12.8 0-5 3.8-10 9.2-10h.8c-9.8-9-22.8-14.3-37-14.3-19.2 0-36 9.8-45.8 24.8h3.6C63 70.5 72 70 72 70c3-.3 3.3 4 .3 4.5 0 0-3 .4-6.2.6l20 59.5 12-36L89.6 75l-6-.7c-3-.2-2.6-4.6.4-4.6 0 0 9 .6 14.3.6 5.8 0 14.6-.6 14.6-.6 3-.2 3.3 4.2.3 4.6 0 0-3 .4-6.2.6l20 59 5.3-18.3c2.4-7.8 4.2-13.2 4.2-17.8zm-36 7.3L84 153c5 1.5 10.3 2.3 15.7 2.3 6.4 0 12.6-1.2 18.2-3.2-.3 0-.3-.3-.5-.7l-17-46zm47.2-31c.2 1.8.4 3.6.4 5.6 0 5.5-1 11.7-4 19.5L127 148c16.5-9.7 27.5-27.3 27.5-47.5-.2-9.4-2.6-18.4-6.8-26.2zM99.5 36.5c-35.2 0-64 28.8-64 64s28.8 64 64 64 64-28.8 64-64-28.8-64-64-64zm0 125.2c-33.6 0-61-27.4-61-61.2 0-33.6 27.4-61 61-61s61 27.4 61 61c0 33.8-27.4 61.2-61 61.2z"/>
  </g>
  <g id="ico-svg">
    <path class="outline" d="M55 37h80l20 20v128h-98z" />
    <path class="outline" d="M135 37v20h20" />
    <path class="schemelt" d="M19.3 123.8c.4-1 .8-1.6 1.5-2.3.7-.7 1.5-1 2.3-1.5 1-.4 2-.6 3-.6s2 .2 3 .6c.7.4 1.5.8 2.2 1.5.7.7 1 1.4 1.5 2.3s.6 2 .6 3-.2 2-.6 2.8-.8 1.5-1.5 2.2c-.7.6-1.5 1-2.3 1.5s-2 .6-3 .6-2-.3-2.8-.7-1.7-1-2.4-1.5c-.7-.7-1-1.4-1.5-2.2s-.6-2-.6-3 .2-2 .6-2.8zm53.8-6.2c0 2.4-.4 4.6-1.3 6.6s-2 3.7-3.7 5.2c-1.7 1.4-3.7 2.6-6.2 3.3-2.4 1-5.3 1.3-8.4 1.3-6.2 0-12-1.4-15.7-2.7v-13.8h5.5c1.3 0 2 .5 2.3 1.7l.7 5.7c2.6.6 5.6.6 7.7.6 1.4 0 2.6-.2 3.6-.4 1-.4 1.8-.8 2.5-1.4.8-.6 1.2-1 1.5-1.8.3-.8.4-1.6.4-2.3 0-1.2-.4-2-1-2.8-.7-1-1.7-1.5-2.8-2-1.2-.6-2.4-1-4-1.5L50 112c-1.5-.4-3-1-4.4-1.7-1.4-.7-2.8-1.6-4-2.6-1-1-2-2.3-2.6-4-.7-1.4-1-3.2-1-5.4 0-2 .3-4 1-5.8.8-1.8 2-3.5 3.6-4.8 1.6-1.3 3.6-2.5 6-3.3s4.8-1.2 7.8-1.2c4.8 0 7.5.5 14.4 2.6v14H65c-1.2 0-1.8-.8-2-2-.2-.4-.4-1.6-.8-5.3-1.2-.4-3.6-.7-5.8-.7-2.3 0-4 .5-5.4 1.5-1.4 1-2 2.3-2 4 0 1 .3 1.8 1 2.6.7.7 1.5 1 2.7 1.7s2.4 1.2 3.8 1.6c1.5.3 3 .8 4.5 1.3l4.5 1.8c1.4.7 2.7 1.5 3.8 2.5 1.2 1 2 2 2.7 3.5s1 3 1 5zM132 84v5.6c0 1.7-.8 2.6-2.4 3-.8 0-.5.2-4.5 1L109 133H98.4L82.5 93.5c-4.2-.8-3.8-.8-4.6-1-1.7-.3-2.5-1.2-2.5-3V84h24v5.6c0 1.7-.7 2.6-2.4 3-.4 0-.6 0-2.5.5l7 19.5c.5 1.5 1 3 1.3 4.5l1 4.4 1-4.4 1.5-4.5 7-19.3-3-.6c-1.7-.4-2.5-1.3-2.5-3V84h24zm30.4-.2c1.8.4 3.5 1 5 2h14.2V90c0 1-.2 1.4-.6 1.8-.4.4-1 .7-2 1l-4.4.7.7 2.7s.4 1.8.4 2.8c0 2.4-.5 4.7-1.4 6.7-1 2-2.3 3.6-4 5-1.8 1.3-4 2.4-6.2 3-2.3 1-4.8 1.3-7.6 1.3-1.8 0-3.7 0-5.5-.5-1.5 1-2.3 2-2.3 3s.4 1.8 1.4 2.3c1 .5 2 .7 3.6 1 1.6 0 3.2.3 5 .3l6 .4c2 .2 3.8.5 5.7 1 2 .3 3.6 1 5 1.8 1.7 1 2.8 2 3.8 3.4 1 1.6 1.3 3.5 1.3 5.8 0 2.2-.5 4.3-1.5 6.3s-2.6 4-4.6 5.5c-2.2 1.7-4.6 3-7.6 4-3 .8-6.4 1.3-10 1.3-4 0-7-.3-10-1-2.7-.8-5-1.8-6.7-3-1.8-1-3.2-2.5-4-4-1-1.6-1.4-3.2-1.4-5 0-2.3.7-4.3 2-5.8 1.6-1.6 3.5-2.7 6-3.7-1.3-.6-2-1.5-3-2.7s-1-2.5-1-4.4c0-.8 0-1.6.3-2.4s.6-1.5 1.2-2.3 1.2-1.5 2-2.2c.8-.6 1.8-1 3-1.7-2.6-1.4-4.6-3.2-6-5.4-1.5-2.3-2.2-5-2.2-8 0-2.4.5-4.7 1.4-6.6 1-2 2.4-3.6 4.2-5 1.7-1.3 3.7-2.4 6-3.2 2.5-.7 5.2-1 8-1 2 0 4 .2 6 .6zm6 49.3c-.5-.5-1.2-1-2.2-1.3-1-.4-2.2-.6-3.6-.8-1.3-.3-2.6-.4-4.2-.5-1.5 0-3 0-4.6-.2l-4.5-.3c-1.3.7-2.4 1.6-3.2 2.5-.7 1-1.2 2.2-1.2 3.5 0 1 .3 1.6.7 2.4.3.8 1 1.4 2 2 1 .6 2.2 1 3.7 1.3 1.6.3 3.3.4 5.5.4s4 0 5.7-.4c1.7-.4 3-.8 4-1.4s1.8-1.3 2.3-2c.5-1 .7-1.8.7-2.8 0-1-.3-1.7-1-2.3zM160 107c1-.4 2-1 2.7-1.6.8-.7 1.3-1.7 1.7-2.6.3-1 .5-2 .5-3.3 0-2.4-.8-4.3-2.3-5.7-1.4-1.5-3.6-2.2-6.5-2.2s-5.2.7-6.6 2.2c-1.5 1.4-2 3.3-2 5.7 0 1.2 0 2.3.3 3.3s.8 1.7 1.6 2.5c.7 1 1.6 1.4 2.8 1.8 1 .4 2.4.6 3.8.6s2.8-.2 3.8-.6z"/>

  </g>
  <g id="ico-sas">
    <path class="sasspk" d="M92.6 110c6-4.6 3.5 5.2 2.8 7.7-.4 1.5-3.6 10.2-1.4 11 6.2-9 9.3-20.3 13.6-30.3 1-2 7-3.6 8-1 .7 1.8-1.3 5.7-1.4 7.8 0 2.8.4 5.7 2.3 8 2.6-3.5 4.3-7.7 6.4-11.5 1.4-2.7 1.3-8.3 4.7-9 1-.4 6.4-1.3 6 1-.6 6.6-2.3 9.7 1 16 1 2 8.2-1.3 10.2-1.5 4.7-.4 9.8.3 14 3 4 2.3 7.2 6.7 7 11.6 0 3-3 8.6-7 8 .5.2 4.3-5.6 4.4-6.8.5-5.2-4.5-9-8.8-10.4-3.8-1.3-8-1.5-12-1.2-5.6.5-5.3 1.2-4.8 5.7 1 7.4-14.8 17-15.5 9-.3-4 3-8.2 5.7-10.8 3-3 0-9-1.6-12.8-2.3 3.6-4 7.5-6.3 11-2.4 3.8-.4 4.3-.2 8.4.3 6.8-6 10.7-12 11.7-8.4 1.4-3.5-5.7-.4-9 1.2-1.2 5.3-4.8 4.8-7-.5-2.4-2.3-9-4-11-4 8.4-7 17.4-12.2 25.3-1.5 2.3-5 6-7.3 2.2-1.8-2.8.8-6.8-1-9-1.8 3.5-3.4 12-8.5 12.5-10 1.3-6.6-18.5-5.7-23-.6.3-8 3.8-7.5 4.8 2 4 2 8.6 1 12.8-1.6 8.5-8.5 15.8-17 17.3-9.6 1.6-16.2-5.4-12-14.8 4.2-9 14-10.7 20.8-16.5-7.6-4.6-16.5-10.6-22-17.7-6.5-8.3-4-17.2 2.2-24.8 11-13.8 31.8-24 49-25.7 8.5-1 18.8 0 25 6.4 6 6.3 3.8 15.3-.3 22-8 12.6-30.2 23.4-44.6 14.8-.6-.5-6.5-6.4-4-6.4 1 0 3.2 2.5 4.4 3 2 1 4.4 1.4 6.7 1.5 9.6.4 20-3.8 27-10.2 4.8-4.5 11.8-14.8 4.6-20.5-5.3-4.2-14.2-3.2-20.3-2-14.7 2.7-45 15.3-43.8 34 .5 8.7 10 14 16 19 4 3.2 4.4 4.6 9.3 2 4.3-2.5 8-4.2 11.5-8 2.4-2.6 6.7-6 10.7-5 3.8 1.2 2.4 5.7 2.6 8.6 1.3-1 0-.2 0 0zm-31.2 12.6c-3.2 1.4-23.7 14.6-16 20.7 4 3 10.4-2.2 12.7-5 4-4.6 4.5-11 3.4-15.7-4.8 2 .2.6 0 0zm16.6 3c0 1.2.4 7.2 3 4.5 3.3-3.6 5-11.2 6.5-15.8 1.4-4.4 1.5-11-3.8-5C80 113.8 78 120 78 125.6v-2.7 2.7c0 1 0-6.2 0 0zm53.5-8.2c-1.7 1.2-6.3 6.7-5 9.3.3 1 3.4-1.8 3.6-2 2-2 2.5-4.8 1.5-7.3 0 0 .4 1 0 0-1.5 1 .4 1 0 0zm-17.5 6c-1-.2-6.4 6.8-6.8 8 3.8.6 6.5-6 6.8-8-1-.2 0 .6 0 0z"/>
  </g>
  <g id="ico-pho">
    <path class="psbl" d="M35 37h128v128H35z"/>
    <path class="schemelt" d="M70.5 80.7c3.4-.6 8-1 14.8-1 6.8 0 11.6 1.3 14.8 4 3.2 2.3 5.3 6.3 5.3 11s-1.6 9-4.4 11.6c-4 3.5-9.4 5-16 5h-3.7v17.3H70.5v-48zm10.8 22c1 .2 2 .3 3.7.3 5.8 0 9.4-3 9.4-8 0-4.4-3-7-8.5-7-2.4 0-4 .2-4.7.4v14.3zm29 16.3c2 1.2 6.2 2.7 9.5 2.7s4.7-1.2 4.7-3-1-2.7-5.2-4c-7.3-2.5-10-6.4-10-10.6 0-6.5 5.6-11.4 14.3-11.4 4 0 7.8 1 10 2l-2 7.5c-1.6-.7-4.6-2-7.6-2-2.7 0-4.2 1.2-4.2 3 0 1.7 1.4 2.5 5.7 4 6.7 2.3 9.5 5.7 9.6 11 0 6.5-5 11.3-15.2 11.3-4.6 0-8.7-1-11.4-2.5l2-7.8z"/>
  </g>
  <g id="ico-php">
    <path class="phpbl" d="M56.5 89.2c4.6 0 7.6 1 9 2.5 1.6 1.7 2 4.7 1.2 8.6-1 4-2.3 7-5 9-2.2 1.8-6 2.7-10.5 2.7h-7l4.3-22.8h8zm-29 45.6h11.7l2.8-14.5h10c4.5 0 8.2-.4 11.2-1.4s5.5-2.6 7.8-5c2-1.8 3.7-3.8 5-6 1-2.2 2-4.5 2.4-7.3 1.2-6.4.2-11.5-2.8-15-3.2-3.6-8-5.2-15-5.2H38l-10.5 54.3zm60-68.6H99l-2.6 14.5h10.3c6.7 0 11 1 13.6 3.4 2.6 2.4 3.3 6 2.3 11.2l-4.8 25.3h-12l4.6-24c.5-2.7.3-4.5-.7-5.4-1-1-3-1.3-6-1.3h-9.4l-6 31H76.6l10.8-54.5zm61.4 23c4.5 0 7.5 1 9 2.5 1.5 1.7 1.7 4.7 1 8.6-1 4-2.3 7-4.8 9-2.3 1.8-6 2.7-10.6 2.7h-7l4.2-22.8h8zm-29 45.6h12l2.6-14.5h10.2c4.3 0 8-.4 11-1.4 3-1 5.5-2.6 7.8-5 2-1.8 3.7-3.8 5-6 1-2.2 2-4.5 2.4-7.3 1.2-6.4.2-11.5-2.7-15-3.3-3.6-8-5.2-15-5.2h-22.8L120 134.8z"/>
  </g>
  <g id="ico-mys">
    <path class="mysqlbl" d="M7.3 139.6h6v-24l9.5 21c1 2.5 2.6 3.4 5.6 3.4 3 0 4.5-1 5.6-3.5l9.4-21v24h6v-23.8c0-2.4-1-3.5-2.8-4-4.6-1.5-7.7-.3-9 2.8L28 135.2l-9-20.7c-1.2-3-4.4-4.3-9-3-2 .7-3 1.8-3 4.2v24zM54.5 120h6v13.3c0 .7.3 2.4 3.6 2.5h13.3V120h6v21.6c0 5.3-6.5 6.4-9.5 6.5H54.6v-4h19.2c4-.4 3.5-2.4 3.5-3v-1.6h-13c-6 0-9.8-2.7-9.8-5.7V120zm130.7-15c-3.7-.2-6.6 0-9 1-.7.4-1.8.4-2 1.3.4.4.5 1 .8 1.5.6 1 1.6 2.2 2.4 3l3 2c1.8 1 4 1.7 5.6 2.8l3 2.3c.6.2 1 .8 1.6 1l-.7-1.6c-.6-.4-1-1-1.5-1.3-1.4-1.7-3-3.3-5-4.6-1.3-1-4.6-2.5-5.2-4v-.2l3-.8c1.7-.4 3-.3 4.7-.7l2.3-.7v-.4c-1-.8-1.5-2-2.4-2.8-2.4-2-5-4-7.7-5.7-1.5-.8-3.3-1.4-5-2.2-.4-.3-1.3-.4-1.7-1-.8-1-1.3-2.3-2-3.5l-3.7-8c-1-2-1.4-3.7-2.5-5.3-4.8-8-10-12.8-18-17.5-1.7-1-3.8-1.3-6-2h-3.4c-.7-.4-1.4-1.2-2-1.7-2.7-1.7-9.6-5.3-11.5-.5-1.3 3 1.8 6 3 7.5.7 1 1.7 2.3 2.3 3.5l.7 2.5c.8 2 1.5 4.3 2.5 6.2.5 1 1 2 1.7 3 .4.4 1 .7 1 1.5-.5 1-.6 2.3-1 3.5-1.6 5.2-1 11.7 1.4 15.6 1 1.2 2.6 3.7 5 2.8 2-1 1.7-3.5 2.3-6 0-.4 0-.8.3-1l2 3.8c1.3 2.3 3.8 4.6 6 6.2 1 1 2 2.3 3.3 2.8h-.2c-.2-.5-.7-.7-1-1l-2.5-2.8c-2-2.6-3.6-5.5-5.2-8.5l-2-4.6c0-.5 0-1.4-.6-1.7-.7 1-1.7 2-2.3 3.2-.7 2-.8 4.4-1 7h-.3c-1.5-.3-2-2-2.6-3.2-1.3-3.3-1.5-8.6-.3-12.4.3-1 1.7-4 1-5 0-1-1-1.4-1.6-2l-1.5-3c-1.2-2.6-1.7-5.5-3-8-.5-1.4-1.5-2.6-2.2-3.7-1-1.3-2-2.2-2.6-3.6-.2-.5-.6-1.3-.2-2 0-.2.3-.4.6-.5.7-.5 2.5.2 3 .4 1.8.6 3.2 1.3 4.7 2.3.7.4 1.4 1.3 2.2 1.6h.8c1.5.2 3.2 0 4.6.4 2.5.7 4.7 2 6.7 3.2 6.2 3.8 11.2 9.3 14.6 16 .6 1 .8 2 1.3 3l3 7c1 2 2 4.3 3.4 6 .7 1 3.5 1.6 4.8 2.2.8.3 2.3.7 3 1.2 1.8 1 3.3 2 4.8 3.2.8.5 3 1.7 3.2 2.7zm-49.4-40.4l1.6 2 1 2.3s2-1.4.4-3.7c-.8-1.3-3-.7-3-.7z"/>
    <path class="mysqlyl" d="M88 139.6h17.5c2 0 4-.4 5.6-1.2 2.8-1.2 4-2.8 4-5V129c0-1.7-1.4-3.4-4.3-4.5-1.5-.5-3.3-1-5.2-1h-7.3c-2.5 0-3.6-.6-4-2.2V118v-.5c.4-1.3 1-1.6 3.2-1.8H115.3v-4h-17c-2.5 0-3.8 0-5 .4-3.6 1.2-5.2 3-5.2 6v3.7c0 2.7 3.2 5 8.4 5.6h8.7c2 .2 3 .6 3.5 1.3.3.3.4.7.4 1v3.6c0 .5-.4 1-1 1.5-.5.4-1.3.7-2.5.8H88v4zm76 0h16v-4h-16c-3.6 0-5-1-5-3v-21h-6v21c0 4 3 6.5 9.3 7h1.7zm-45-6.8v-14.5c0-3.6 2.5-6 7.6-6.6H141.5c5 .7 7.6 3 7.6 6.6v14.5c0 3-1 4.5-3.5 5.6l6 5.4h-7l-5-4.4-4.8.3h-6.5c-1 0-2.2 0-3.5-.5-4-1-5.8-3-5.8-6.4zm6.5-.4v.6c.5 1.7 2 2.7 4.4 2.7h5.5l-5-4.6h7l4.4 4c.7-.4 1.2-1 1.4-2v-14.3-.6c-.4-1.4-2-2.3-4.3-2.3h-9c-2.8 0-4.5 1.2-4.5 3v13.7z"/>
    <path stroke-width="0" d="M182.7 135.4c0 2.7 2 4.5 4.5 4.5s4.5-2 4.5-4.6c0-2.6-2.2-4.4-4.5-4.4s-4.5 1.8-4.5 4.4zm8 0c0 2-1.6 3.6-3.5 3.6-2 0-3.5-1.5-3.5-3.6 0-2 1.5-3.5 3.5-3.5s3.5 1.4 3.5 3.4zm-2.3 2.6h1l-1.5-2.2c.7 0 1.3-.5 1.3-1.4 0-1-.7-1.5-2-1.5h-2v5h1v-2.2h.7l1.4 2.2zm-2.2-3v-1.4h1c.6 0 1.2 0 1.2.7s-.6.8-1.2.8h-1z"/>
  </g>
  <g id="ico-jav" >
    <path class="outline" d="M55 37h80l20 20v128h-98z" />
    <path class="outline" d="M135 37v20h20" />
    <path class="schemelt" d="M60.6 123.8c.4-1 .8-1.6 1.5-2.3s1.5-1 2.4-1.5c1-.4 1.8-.6 3-.6.8 0 2 .2 2.8.6.8.3 1.6.8 2.3 1.5.6.7 1 1.4 1.5 2.3.4 1 .6 2 .6 3s-.2 2-.6 2.8c-.4.8-1 1.5-1.5 2.2-.7.6-1.5 1-2.3 1.5-1 .4-2 .6-2.8.6-1 0-2-.3-3-.7-.8-.4-1.6-1-2.3-1.5-.6-.7-1-1.4-1.4-2.2-.4-1-.6-2-.6-3s.2-2 .6-2.8zm39-39.8v51c0 2 0 4-.6 6-.6 1.8-1.5 3.5-2.7 5-1.3 1.3-3 2.5-5 3.3-2 .7-4.3 1.2-7.2 1.2-1 0-2 0-3-.2-1 0-2-.5-3-.8l.4-6.3c0-.7.4-1 .8-1.2.4-.2 1.2-.3 2.4-.3s2.2 0 3-.3c.7-.2 1.5-.6 2-1.2.5-.5 1-1.2 1-2 .2-1 .3-2 .3-3.3V93.4l-3-.5-1.3-.3H83c-1.6-.5-2.4-1.4-2.4-3V84h19zm2-14.3c0 1-.2 2-.6 2.8-.4 1-1 1.7-1.7 2.3-.7.7-1.5 1.3-2.4 1.7-1 .4-2 .5-3 .5s-2 0-3-.5c-1-.4-1.7-1-2.4-1.7s-1.2-1.4-1.6-2.3c-.4-.8-.6-1.8-.6-2.8 0-1 .2-2 .6-3 .4-1 1-1.8 1.6-2.4.7-.7 1.4-1.3 2.4-1.7 1-.3 1.8-.5 3-.5s2 .3 3 .6c.8.4 1.6 1 2.3 1.7.6.6 1.3 1.4 1.7 2.4.4 1 .6 2 .6 3zm38.7 48c0 2.3-.5 4.5-1.4 6.5-1 2-2.2 3.7-3.8 5.2s-3.7 2.6-6.2 3.3c-2.4 1-5.3 1.3-8.4 1.3-6.2 0-12-1.4-15.7-2.7v-13.8h5.6c1 0 1.8.5 2 1.7.2.5.4 1.8.8 5.7 2.6.6 5.6.6 7.8.6 1.4 0 2.6-.2 3.6-.4 1-.4 1.8-.8 2.5-1.4s1-1 1.4-1.8.4-1.6.4-2.3c0-1.2-.2-2-.8-2.8-.7-1-1.7-1.5-2.8-2-1.2-.6-2.4-1-4-1.5-1.3-.4-2.8-1-4.4-1.4-1.5-.4-3-1-4.4-1.7-1.4-.7-2.8-1.6-4-2.6-1-1-2-2.3-2.6-4-.7-1.4-1-3.2-1-5.4 0-2 .3-4 1-5.8.8-1.8 2-3.5 3.6-4.8 1.6-1.3 3.6-2.5 6-3.3 2.2-.7 4.8-1.2 8-1.2 4.7 0 7.3.5 14.3 2.6h-.2v14h-5.6c-1.2 0-1.8-.8-2-2-.2-.4-.4-1.6-.8-5.3-1.2-.4-3.5-.7-5.8-.7s-4 .5-5.4 1.5-2 2.3-2 4c0 1 .3 1.8 1 2.6.7.7 1.5 1 2.7 1.7s2.3 1.2 3.7 1.6c1.5.3 3 .8 4.5 1.3l4.5 1.8c1.4.7 2.7 1.5 3.8 2.5 1.2 1 2 2 2.7 3.5.7 1.4 1 3 1 5z"/>

  </g>
  <g id="ico-ind">
    <path class="idpk" d="M35 37h128v128H35z"/>
    <path class="schemelt" d="M83.7 83v48.6h-11V83h11zm43-2.5V121c0 4 .2 8.3.3 10.6h-9.7l-.5-5.2h-.2c-2.2 4-6.4 6-11 6-8.3 0-15-7-15-18 0-12 7.3-18.8 15.7-18.8 4.4 0 7.7 1.5 9.3 4h.2v-19h11zm-11 30.8v-2c-.7-3-3-5.3-6.5-5.3-5 0-7.5 4.4-7.5 10 0 6 3 9.7 7.4 9.7 3.3 0 5.8-2 6.5-5.2.2-.8.3-1.6.3-2.6v-4.7z"/>
  </g>
  <g id="ico-htm">
    <path class="htmlor" d="M99.6 164.5l-47.3-16-8.5-112h111.5l-8.6 112-47 16z"/>
    <path class="schemelt" d="M142.6 54H59l4.4 50h58l-2.2 21.2-19.7 4.8-17.5-4-1.2-12H64.3l2 25.2 33.2 8.8 35.5-9.4 4.6-50.6H78.8l-1.5-17H141z"/>
  </g>
  <g id="ico-git">
    <path d="M99.5 36.5C63.3 36.5 34 66 34 102c0 29 18.7 53.7 44.8 62.4 3.2.6 4.4-1.4 4.4-3.2v-11C64.8 154 61 141 61 141c-3-7.5-7.2-9.5-7.2-9.5-6-4 .4-4 .4-4 6.6.4 10 6.7 10 6.7 6 10 15.4 7.2 19.2 5.5.6-4.3 2.2-7.2 4-9-14.4-1.5-29.8-7.2-29.8-32.3 0-7.2 2.6-13 6.8-17.6-.7-1.6-3-8.3.6-17.3 0 0 5.5-1.8 18 6.7 5.3-1.4 11-2 16.5-2.2 5.6 0 11.2.8 16.4 2.2 12.5-8.5 18-6.7 18-6.7 3.5 9 1.3 15.7.6 17.4 4.2 4.7 6.8 10.5 6.8 17.7 0 25.2-15.4 30.7-30 32.4 2.3 2 4.4 6 4.4 12.2v18c0 1.8 1 3.8 4.5 3.2 26-8.7 44.8-33.3 44.8-62.3 0-36-29.3-65.5-65.5-65.5z"/>
  </g>
  <g id="ico-css">
    <path class="cssbl" d="M99.6 164.5l-47.3-16-8.5-112h111.5l-8.6 112-47 16z"/>
    <path class="schemelt" d="M142 56H60l2.2 16h61L122 88H97v16h23.4l-2 21.5-18 5-18.2-4L81 114H64.7l2.3 24.7 33.3 8.8L134 139z"/>
  </g>
  <g id="ico-ado">
    <path class="ccrd" d="M96 147.6c-16.7 0-33.7 1.8-47.2-10.3-6.8-6-11-13.7-12.6-22.6-1.7-9.3-.3-18 4.2-26.4C44 82 49 76.8 55.2 73c4.4-2.6 9.3-4.3 14.3-5 5.4-1 11 1.2 15.2-2.7 7.8-7 18-11.3 28.6-12 32-2 57.6 29.7 48.2 60.6-2.6 8.6-7.4 16-14.2 22-14.8 13-32.8 11.6-51.2 11.6-6.5 0 6.8 0 0 0zM92 71c2.4 1.8 5 3 7.5 4.8.7.5 7.5-3.4 8.7-3.7 4.6-1.3 9.5-1.4 14.2-.3 12 3 19.8 10.6 22.8 22.7 1.7 7 .4 14-3 20.2-5.3 9.7-13.6 15-24.7 15.6-8.3.4-15.7-2.4-21.7-8.3-5.7-5.7-12-15-19-19-2-1-4.4-.6-5.7 1-1 1.6-1.5 4 .5 5.8 7.3 7.2 14.2 15.6 22.3 22 6 4.6 13.2 6.7 20.8 7 5.2.2 10.3-.6 15.2-2.5 6.3-2.5 11.7-6.3 16-11.6 7.2-9 10-19.4 8-31-1.5-8.5-5.6-15.7-12-21.5-6.7-6-14.8-9.3-24-9.8-9-.6-19 2.7-26 8.7.2.2 1.4-1 0 0zm-3.2 67.7c-2-1.7-7.5-8.8-9.8-8.8-6.7 0-13-1-18.2-5.7-4.4-4-7-9-7.6-14.8-.3-4 .3-7.7 2-11.2 4-9 14.5-14.8 24.7-12.7 10.2 2 17 11.6 24 18.7 1 1 1.8 1.3 3 1.2 3.7 0 5.7-4.5 3-7.2C103.7 92 97.5 84 89.4 80c-5.7-3-11.7-4-18-3-10 1.4-17.6 6.6-22.6 15.3-4.2 7.2-5.2 15-3 23 3.5 14 15.7 23.4 30.2 23.4h12.8c-.7-.6-.4 0 0 0z"/>
  </g>
  <g id="ico-bra">
    <path class="bracketsbl" d="M35 37h128v128H35z"/>
    <path class="schemelt" d="M48 52h100v100H48z"/>
    <path class="schemedk" d="M132.5 84.6v54.8h-25v-11.7h14v-32h-14v-11h25zm-40 0v11H79.2v32h13.3v11.8h-25V84.6h25z"/>
  </g>
  <g id="ico-ama">
    <path class="awsyl" d="M166 63.2V143c0 1-.4 1.6-1.6 2L108 164.4c-1.2.4-1.4.2-1.4-1 0-27.3 0-54.8.2-82.2 0-.6 0-1 1-1.4 19-6 38-11.8 57.2-17.7.2-.2 1 .7 1 1.2zm-133 80c0 1 .4 1.4 1.3 1.7 18.7 6.2 37.4 12.6 56 19 1.8.5 2 .5 2-1.3 0-27-.2-54 0-81 0-1.2-.6-1.6-1.7-2L33.2 61s0 .6 0 0v82.3zm12-90c17.8 5.6 35.5 11.2 53.2 17 1 .2 1.7 0 2.6 0l53-17.4-1.8-.5-51.4-15.6c-1-.3-1.6-.2-2.5 0l-54 16 1 .5z"/>
  </g>
  <g id="ico-ill">
    <path class="aiyl" d="M35 37h128v128H35z"/>
    <path class="schemelt" d="M82.3 118.3l-3.5 12.5H67.5l14.8-48.6h14.4l15 48.6H100L96 118.3h-14zm12.3-8.2l-3-10.2c-1-3-1.7-6.5-2.5-9.4-.7 3-1.4 6.6-2.2 9.4l-3 10.3h10.8zm34-24.2c0 3-2.2 5.4-5.8 5.4-3.4 0-5.7-2.4-5.7-5.4 0-3.2 2.4-5.6 6-5.6s5.7 2.4 5.7 5.6zm-11.2 45V95.5h11v35.3h-11z"/>
  </g>
  <g id="ico-acc">
    <path class="accessrd" d="M64.8 105c1.4-6.8 3.7-13.5 4.7-20.6 1.4 7 3.4 13.8 5 20.7-3.2.3-6.5.3-9.7 0zm99.6 28.7V65.5c.4-6-5-10-10-12-13.7-4.8-28.5-5-42.7-3.2V36.5h-9.2c-22.7 4.3-45.2 9-68 13v103.2c22.6 4 45 7.7 67.6 11.8h9.7v-15.8c14.2 2 28.8 1.4 42.4-3 5.3-2 10.8-6 10.4-12zm-85-9.2c-.8-3.6-1.8-7.3-2.8-11-4.5 0-9.2 0-13.6-.3-.8 3.4-2 7-2.7 10.5l-8.7-.6 13-46.3c3.4-.2 7-.4 10.3-.8 4.8 16.3 9.5 33 14.5 49.6-3.4-.5-6.8-.7-10-1zm32.3-23c10 1.3 20 1.3 30 0 6.5-1 13.2-2.3 18.2-6.4-.3 6.4.3 13-.5 19.2-2.6 3.2-6.7 4.3-10.3 5.3-12.2 2.8-25.4 2.8-37.5 1.2v-19zm47.8 36c-4.2 4.5-10.7 5.5-16.6 6.5-10.4 1.8-21.2 1.8-31.7.2.2-6.3 0-12.8 0-19 10 1.2 20.2 1.2 30.2 0 6.5-1 13.2-2.5 18.4-6.5-.3 6.2.5 12.5-.5 18.8zm0-47c-2.6 3-6.7 4.2-10.3 5.2-12.4 3-25.4 3-37.5 1.5v-19c10 1 20 1 30 0 6.5-1 13.2-2.5 18.4-6.6-.3 6 .5 12.6-.5 19zm-6.3-20C140 75 126 75.4 111.7 73V55c12-2 26.7-2 39.5 2.2 3.5 1.2 8.3 2.8 9 7-.7 3.5-4 5-7 6.2z"/>
  </g>
</svg>
