<svg xmlns='http://www.w3.org/2000/svg' viewBox="4 4 72 72">

<defs>
	<style>
		.webLine { fill: #c4c9d4}
		g:not(:target) { display: none; }
	</style>
	<filter id="f1" >
		<feFlood flood-color="#16181d" result="flood" />
		<feOffset  in="SourceAlpha" dx="2" dy="2" result="offset" />
		<feComposite in2="offset" in="flood" operator="in" result="composite" />
		<feBlend in="SourceGraphic" in2="composite" mode="normal" />
	</filter>
	<filter id="f2" >
		<feFlood flood-color="#16181d" result="flood" />
		<feOffset  in="SourceAlpha" dx="1" dy="1" result="offset" />
		<feComposite in2="offset" in="flood" operator="in" result="composite" />
		<feBlend in="SourceGraphic" in2="composite" mode="normal" />
	</filter>
</defs>

<!-- ADOBE ~~~~~~~~~~~~~~~~~~~~~~~~~~~~~~~~~~~~~~~~~~~~~~~~~~~~~~ -->

<g id="ps" filter="url(#f2)" transform="translate(0,-4)">
	<linearGradient id="Grad-PS" x1="0" y1="1" x2="1" y2="0">
		<stop offset="0" stop-color="#7DBAF9" />
		<stop offset="1" stop-color="#084280" />
	</linearGradient>
	<path  fill="url(#Grad-PS)" d="M8.7,24.1 c3.4-0.6,8.2-1,15-1 c6.8,0,11.7,1.3,15,3.9 c3.1,2.4,5.2,6.5,5.2,11.2 s-1.6,8.8-4.5,11.5 c-3.8,3.5-9.4,5.1-15.9,5.1 c-1.5,0-2.8-0.1-3.8-0.2 V72 h-11 V24.1z M19.7,46.1 c0.9,0.2,2.1,0.3,3.7,0.3 c5.9,0,9.5-3,9.5-7.9 c0-4.5-3.1-7.1-8.6-7.1 c-2.3,0-3.8,0.2-4.6,0.4 V46.1z M48.9,62.4 c2,1.2,6.2,2.7,9.5,2.7 c3.3,0,4.7-1.2,4.7-3 s-1.1-2.7-5.2-4 c-7.3-2.4-10.2-6.4-10.1-10.6 C47.8,41,53.5,36,62.3,36 c4.1,0,7.8,0.9,10,2l-2,7.6 c-1.6-0.9-4.6-2-7.7-2 c-2.7,0-4.2,1.1-4.2,2.9 c0,1.7,1.4,2.5,5.7,4 c6.8,2.3,9.6,5.7,9.7,10.9 c0,6.6-5.2,11.4-15.4,11.4 c-4.6,0-8.8-1-11.5-2.4 L48.9,62.4z" />
</g>
<g id="ai" filter="url(#f2)" transform="translate(0,-4)">
	<linearGradient id="Grad-Ai" x1="0" y1="1" x2="1" y2="0">
		<stop offset="0" stop-color="#FFBD5D" />
		<stop offset="1" stop-color="#784A08" />
	</linearGradient>
	<path  fill="url(#Grad-Ai)" d="M22.8,59.5 L19.3,72 H8 l14.8-48.5 h14.4 l15,48.5 H40.4 l-3.7-12.5 H22.8z M35.1,51.3 l-3-10.3 c-0.9-2.9-1.7-6.5-2.4-9.4 h-0.1 c-0.7,2.9-1.4,6.6-2.2,9.4 l-2.9,10.3 H35.1z M69.2,27 c0,3-2.3,5.5-5.9,5.5 c-3.5,0-5.8-2.4-5.7-5.5 c-0.1-3.2,2.2-5.5,5.8-5.5 S69.2,23.8,69.2,27z M57.9,72 V36.8 h10.9 V72 H57.9z" />
</g>
<g id="fl" filter="url(#f2)" transform="translate(0,-4)">
	<linearGradient id="Grad-Fl" x1="0" y1="1" x2="1" y2="0">
		<stop offset="0" stop-color="#F44544" />
		<stop offset="1" stop-color="#8C0706" />
	</linearGradient>
	<path fill="url(#Grad-Fl)" d="M16.4,23.5 h29.7 v9 H27.4 v11.1 h17.4 v8.9 H27.4 V72 h-11 V23.5z M52.9,20.9 h10.9 V72 H52.9 V20.9z" />
</g>
<g id="ae" filter="url(#f2)" transform="scale(0.87, 1) translate(5,-4) " >
	<linearGradient id="Grad-Ae" x1="0" y1="1" x2="1" y2="0">
		<stop offset="0" stop-color="#C287FF" />
		<stop offset="1" stop-color="#5C2A91" />
	</linearGradient>
	<path  fill="url(#Grad-Ae)" d="M15.2,59.5 L11.8,72 H0.4 l14.8-48.5 h14.4 l15,48.5 H32.9 l-3.7-12.5 H15.2z M27.6,51.3 l-3-10.3 c-0.9-2.9-1.7-6.5-2.4-9.4 h-0.1 c-0.7,2.9-1.4,6.6-2.2,9.4 l-2.9,10.3 H27.6z M55.6,57.9 c0.4,4.5,4.8,6.7,9.9,6.7 c3.7,0,6.8-0.5,9.7-1.4 l1.4,7.4 c-3.6,1.4-8,2.2-12.7,2.2 c-12,0-18.8-6.9-18.8-17.9 C45.2,45.9,50.7,36,63,36 c11.4,0,15.7,8.9,15.7,17.6 c0,1.9-0.2,3.5-0.4,4.3 H55.6z M68.5,50.4 c0-2.7-1.2-7.1-6.2-7.1 c-4.6,0-6.5,4.2-6.8,7.1 H68.5z" />
</g>
<g id="id" filter="url(#f2)" transform="translate(0,-4)">
	<linearGradient id="Grad-Id" x1="0" y1="1" x2="1" y2="0">
		<stop offset="0" stop-color="#F451AD" />
		<stop offset="1" stop-color="#6E0541" />
	</linearGradient>
	<path  fill="url(#Grad-Id)" d="M24.2,23.5 V72h-11 V23.5 H24.2z M67.2,20.9 v40.6 c0,4,0.1,8.1,0.3,10.5 h-9.7 l-0.5-5.2 h-0.1 c-2.2,4-6.5,6-11,6 c-8.4,0-15-7.1-15-18.1 C31,42.8,38.4,36,46.8,36 c4.3,0,7.7,1.5,9.3,4 h0.1 V20.9 H67.2z M56.3,51.7 c0-0.6-0.1-1.4-0.1-1.9 c-0.6-3-3-5.4-6.4-5.4 c-5,0-7.6,4.5-7.6,10 c0,6,3,9.7,7.5,9.7 c3.2,0,5.7-2.2,6.3-5.3 c0.2-0.8,0.3-1.6,0.3-2.5 V51.7z" />
</g>
<g id="pr" filter="url(#f2)" transform="translate(0,-4)">
	<linearGradient id="Grad-Pr" x1="0" y1="1" x2="1" y2="0">
		<stop offset="0" stop-color="#D85AFE" />
		<stop offset="1" stop-color="#6B088A" />
	</linearGradient>
	<path fill="url(#Grad-Pr)" d="M10.5,24.1 c3.4-0.6,8.1-1,14.8-1 c6.8,0,11.6,1.3,14.8,3.9 c3.1,2.4,5.2,6.5,5.2,11.2 s-1.6,8.8-4.5,11.5 c-3.7,3.5-9.3,5.1-15.8,5.1 c-1.4,0-2.7-0.1-3.7-0.2 V72 H10.5 V24.1z M21.4,46.1 c0.9,0.2,2.1,0.3,3.7,0.3 c5.8,0,9.4-3,9.4-7.9 c0-4.5-3.1-7.1-8.6-7.1 c-2.2,0-3.7,0.2-4.5,0.4 V46.1z M51.3,48.4 c0-5.2-0.1-8.6-0.3-11.6 h9.4 l0.4,6.5 h0.3 c1.8-5.1,6.1-7.3,9.5-7.3 c1,0,1.5,0,2.3,0.1 v10.3 c-0.8-0.1-1.7-0.3-3-0.3 c-4,0-6.8,2.2-7.5,5.5 c-0.1,0.7-0.2,1.6-0.2,2.4 V72 H51.3 V48.4z" />
</g>
<g id="brackets" filter="url(#f2)">
	<rect x="8" y="8" fill="#29AAE3" width="64" height="64" />
	<rect x="11" y="11" fill="#eee" width="58" height="58" />
	<path fill="#4D4D4D" d="M16,65 V24.2 h20 v4.3 h-9.3 v32.2 H36 V65 H16z M64,24.1 v40.9 H44.1 v-4.3 h9.3 V28.4 h-9.3 v-4.3 H64z" />
</g>
<!-- OTHER SOFTWARE ~~~~~~~~~~~~~~~~~~~~~~~~~~~~~~~~~~~~~~~~~~~~~ -->
<g id="max" filter="url(#f2)" >
	<linearGradient id="Grad-Max" x1="0" y1="1" x2="1" y2="0">
		<stop offset="0" stop-color="#2F9393" />
		<stop offset="1" stop-color="#094545" />
	</linearGradient>
	<path  fill="url(#Grad-Max)" d="M72,47.3 c0,5.2,0.1,10.6-3.3,14.9 c-3.6,4.7-8.4,7.6-14.2,8.7 c-5.5,1.1-11,1-16.5,1 c-5.5,0-11.2-0.3-16.4-2.2 C10.7,65.7,8.2,51.1,8,40.8 c-0.1-9.7,1.7-21.2,11.5-25.5 c7.3-3.2,15.5-3.5,23.3-4.2 c6.4-0.6,12.7-1.4,19-2.6 c0.4,3.1,0.8,6.2,1.2,9.2 c-9.1-0.5-18-0.5-27.1,0.9 c-6.1,0.9-13.1,1.1-16.9,6.9 c-3.5,5.3-3.3,12.9-2.7,19 c0.7,6.5,1.5,14.5,8.4,17.3 c5.6,2.3,12.6,2.1,18.6,1.7 c4.8-0.3,12.2-0.4,16.2-3.5 c3.1-2.4,4.1-5.6,4.5-9.5 c0.5-5.7,0.1-12.2-4.3-16.4 c-2.7-2.5-6.3-3.6-9.9-3.9 c-3.1-0.3-7-0.3-9.8,1.2 c-3,1.5-6.3,3.6-9,5.7 c-3.1,2.3,6.6,6,8.5,6.2 c3.6,0.4,7.5-0.6,11,0.2 c2.7,0.6,5.3,2.4,7.2,4.4 c1.2,1.3,1.5,1.9,0.2,3.2 c-2,2-4.6,3.6-7.2,4.8 c-8.1,3.8-24.5,3.3-27.7-7.3 c-2-6.6-1.4-15.7,3.4-21 c4.3-4.7,10.3-5.2,16.4-5.4 C50,22,60,21.8,65.9,27.4 C71.2,32.4,72,40.4,72,47.3z M42.4,47.5 c-0.5,2.1-1,4.1-1.6,6.2 c3.7-1.3,7.3-2.6,11-3.8 C48.6,49.1,45.5,48.3,42.4,47.5z M45.5,34 c-2.8,1.3-5.7,2.6-8.6,3.6 c1.8,1.1,5.2,2.2,7.3,1.8 c0.9-0.2,2.1-4.9,2.5-5.9 C46.3,33.6,45.9,33.8,45.5,34z" />
</g>
<g id="threedee" filter="url(#f2)" >
	<linearGradient id="Grad-3D" x1="0" y1="0" x2="1" y2="1">
		<stop  offset="0" style="stop-color:#E77930"/>
		<stop  offset="1" style="stop-color:#733308"/>
	</linearGradient>
	<path fill="url(#Grad-3D)" d="M72,68L20 72 20 8 72 16z" />
	<path fill="url(#Grad-3D)" d="M20,72L8 68 8 12 20 8z" />
</g>
<g id="access" filter="url(#f2)" >
	<path fill="#A33639" d="M22.9,42.7 c0.7-3.4,1.8-6.7,2.3-10.2 c0.7,3.4,1.7,6.8,2.5,10.2 C26.1,42.8,24.5,42.8,22.9,42.7z M72,56.8 c0-11.2,0-22.4,0-33.6 c0.2-3-2.4-5-5-5.9 c-6.7-2.4-14-2.5-21-1.6 c0-2.1,0-3.8,0-6.8 h-4.5 C30.3,11,19.2,13.3,8,15.3 c0,17,0,33.9,0,50.9 C19.1,68.1,30.2,70,41.3,72 H46 c0-2.6,0-5.2,0-7.8 c7,1,14.2,0.7,20.9-1.5 C69.5,61.8,72.2,59.8,72,56.8z M30.1,52.3 c-0.4-1.8-0.9-3.6-1.4-5.4 c-2.2,0-4.5-0.1-6.7-0.2 c-0.4,1.7-0.9,3.4-1.3,5.2 c-1.4-0.1-2.8-0.2-4.3-0.3 c2.1-7.7,4.3-15.3,6.4-22.9 c1.7-0.1,3.4-0.2,5.1-0.4 c2.4,8.1,4.7,16.3,7.2,24.5 C33.4,52.6,31.7,52.5,30.1,52.3z M46,41 c5,0.6,9.9,0.6,14.8,0 c3.2-0.5,6.5-1.2,9-3.2 c-0.1,3.1,0.2,6.3-0.2,9.4 c-1.3,1.6-3.3,2.1-5.1,2.6 C58.5,51.2,52,51.2,46,50.4 C46,47.3,46,44.1,46,41z M69.6,58.7 c-2.1,2.2-5.3,2.7-8.2,3.2 C56.3,62.8,51,62.8,45.8,62 c0.1-3.1,0-6.3,0-9.4 c4.9,0.6,10,0.6,14.9,0 c3.2-0.5,6.5-1.2,9.1-3.2 C69.7,52.5,70.1,55.6,69.6,58.7z M69.6,35.5 c-1.3,1.5-3.3,2.1-5.1,2.6 C58.4,39.5,52,39.6,46,38.8 c0-3.1,0-6.3,0-9.4 c5,0.6,9.9,0.6,14.8,0 c3.2-0.5,6.5-1.2,9.1-3.2 C69.7,29.2,70.1,32.4,69.6,35.5z M66.5,25.6 C59.9,27.9,53,28.1,46,27 c0-3,0-6,0-9 c6-0.9,13.2-0.9,19.5,1.1 c1.7,0.6,4.1,1.4,4.5,3.5 C69.6,24.3,67.9,25,66.5,25.6z"/>
</g>
<!-- WEB LANGUAGES ~~~~~~~~~~~~~~~~~~~~~~~~~~~~~~~~~~~~~~~~~~~~~~ -->
<g id="js" filter="url(#f2)" transform="scale(0.98,1)">
	<path fill="#111" d="M9.9,44.3 c0.4,0.4,0.6,0.8,0.7,1.2 c0.1,0.4,0.2,1,0.2,1.9 v5.1 c0,0.4,0.1,0.7,0.2,0.9 c0.2,0.2,0.4,0.3,0.9,0.3 c0.4,0,0.8,0.2,1,0.5 c0.3,0.3,0.4,0.7,0.4,1.1 c0,0.5-0.2,0.8-0.5,1.2 c-0.3,0.3-0.7,0.5-1.2,0.5 c-0.7,0-1.3-0.2-1.9-0.6 c-0.6-0.4-1.2-1-1.6-1.8 c-0.3-0.5-0.4-1.2-0.4-1.9 v-5.6 c0-0.4-0.1-0.8-0.2-0.9 c-0.1-0.2-0.4-0.3-0.9-0.3 c-0.5-0.1-0.8-0.2-1.1-0.5 s-0.4-0.7-0.4-1.1 c0-0.5,0.1-0.8,0.4-1.1 s0.6-0.5,1.1-0.5 c0.5-0.1,0.7-0.2,0.8-0.3 c0.2-0.2,0.3-0.5,0.3-1 v-5.3 c0-1.1,0.4-2.1,1.2-3 c0.8-0.8,1.7-1.3,2.8-1.3 c0.5,0,0.9,0.2,1.2,0.5 c0.3,0.3,0.5,0.7,0.5,1.2 c0,0.4-0.1,0.8-0.4,1.1 c-0.3,0.3-0.6,0.5-1.1,0.5 c-0.4,0-0.7,0.1-0.8,0.3 c-0.2,0.2-0.3,0.5-0.3,1 v5.1 c0,0.7-0.1,1.3-0.2,1.7 S10.2,43.9,9.9,44.3z M27,50.5 c0,0.6-0.2,1.1-0.6,1.5 c-0.4,0.4-1,0.6-1.7,0.6 S23.4,52.4,23,52 c-0.4-0.4-0.6-0.9-0.6-1.5 c0-0.6,0.2-1.1,0.6-1.5 c0.4-0.4,1-0.6,1.7-0.6 s1.3,0.2,1.7,0.6 C26.8,49.4,27,49.9,27,50.5z M41.8,41.1 h-6.3 c-0.7,0-1.3-0.1-1.6-0.4 c-0.3-0.3-0.5-0.7-0.5-1.2 c0-0.5,0.2-0.9,0.5-1.1 c0.3-0.3,0.8-0.4,1.6-0.4 h9.3 v14.9 c0,1.1-0.2,2.1-0.7,2.9 c-0.5,0.8-1.2,1.6-2.1,2.2 c-0.9,0.6-2,0.9-3.2,0.9 h-3.5 c-0.7,0-1.3-0.1-1.6-0.4 c-0.3-0.3-0.5-0.7-0.5-1.1 c0-0.5,0.2-0.9,0.5-1.2 c0.3-0.3,0.8-0.4,1.6-0.4 h3.4 c0.9,0,1.7-0.3,2.2-0.8 c0.5-0.5,0.8-1.2,0.8-2 V41.1z M43.1,31.8 v3.4 h-3.7 v-3.4 H43.1z M58.7,41.7 c-0.5-0.3-1-0.6-1.6-0.7 c-0.6-0.2-1.1-0.2-1.7-0.2 c-1.2,0-2.1,0.2-2.8,0.6 c-0.3,0.2-0.5,0.4-0.5,0.6 c0,0.2,0.2,0.5,0.6,0.7 c0.3,0.2,1,0.3,2.1,0.5 c2,0.3,3.5,0.6,4.3,0.9 c1.1,0.4,1.9,1,2.4,1.7 c0.6,0.8,0.9,1.6,0.9,2.4 c0,1.1-0.5,2.1-1.5,2.9 c-1.4,1.1-3.2,1.7-5.4,1.7 c-0.9,0-1.7-0.1-2.5-0.2 c-0.8-0.2-1.4-0.4-2.1-0.7 c-0.1,0.1-0.3,0.2-0.5,0.3 c-0.2,0.1-0.3,0.1-0.5,0.1 c-0.5,0-0.9-0.2-1.1-0.5 s-0.4-0.9-0.4-1.6 v-1.1 c0-0.8,0.1-1.3,0.4-1.6 s0.7-0.5,1.1-0.5 c0.4,0,0.7,0.1,0.9,0.3 c0.3,0.2,0.4,0.6,0.6,1.1 c0.5,0.4,1,0.7,1.7,0.9c0.7,0.2,1.4,0.3,2.3,0.3c1.4,0,2.5-0.2,3.3-0.7 c0.4-0.2,0.6-0.5,0.6-0.7 c0-0.4-0.3-0.8-0.8-1 c-0.5-0.3-1.6-0.5-3.3-0.7 c-2.5-0.3-4.1-0.8-5-1.6 C49.4,44,49,43,49,41.9 c0-1.1,0.5-2.1,1.4-2.9 c1.3-1,2.9-1.6,5-1.6 c0.7,0,1.4,0.1,2,0.2 c0.7,0.1,1.3,0.4,1.9,0.6c0.2-0.1,0.4-0.3,0.5-0.3 c0.2-0.1,0.3-0.1,0.5-0.1 c0.4,0,0.8,0.2,1.1,0.5 c0.3,0.3,0.4,0.9,0.4,1.6 v0.8 c0,0.7-0.1,1.2-0.2,1.4 c-0.3,0.5-0.8,0.7-1.3,0.7 c-0.4,0-0.7-0.1-1-0.4 C59,42.4,58.8,42,58.7,41.7z M70,44.3 c-0.4-0.4-0.6-0.8-0.7-1.2 c-0.1-0.4-0.2-1-0.2-1.6 v-5.1 c0-0.4-0.1-0.7-0.2-0.9 c-0.2-0.2-0.4-0.3-0.9-0.3 c-0.4,0-0.8-0.2-1-0.5 c-0.3-0.3-0.4-0.7-0.4-1.1 c0-0.5,0.2-0.8,0.5-1.2 c0.3-0.3,0.7-0.5,1.2-0.5 c0.7,0,1.3,0.2,1.9,0.6 c0.6,0.4,1.2,1,1.6,1.8 c0.3,0.5,0.4,1.2,0.4,1.9 v5.3 c0,0.4,0.1,0.8,0.2,0.9 s0.4,0.3,0.9,0.3 c0.5,0.1,0.8,0.2,1.1,0.5 c0.2,0.3,0.4,0.7,0.4,1.1 c0,0.5-0.1,0.8-0.4,1.1 c-0.2,0.3-0.6,0.5-1.1,0.5 c-0.5,0.1-0.7,0.2-0.8,0.3 c-0.2,0.2-0.3,0.5-0.3,1 v5.6 c0,1.2-0.4,2.2-1.2,3 c-0.8,0.8-1.7,1.3-2.8,1.3 c-0.5,0-0.9-0.2-1.2-0.5 c-0.3-0.3-0.5-0.7-0.5-1.2 c0-0.4,0.1-0.8,0.4-1.1 c0.3-0.3,0.6-0.5,1.1-0.5 c0.4,0,0.7-0.1,0.8-0.3 c0.2-0.2,0.3-0.5,0.3-1 v-5.1 c0-0.9,0.1-1.5,0.2-1.9 C69.4,45.2,69.7,44.8,70,44.3z" />
</g>
<g id="jquery" filter="url(#f2)">
	<linearGradient id="Grad-Jquery" x1="0" y1="1" x2="1" y2="0">
		<stop offset="0" stop-color="#65C0F3" />
		<stop offset="1" stop-color="#1b84b1" />
	</linearGradient>
	<path fill="url(#Grad-Jquery)" d="M12.2,23.7 C1.7,38.8,12.6,59,27,66.8 c12.5,6.7,29.2,5.1,38.8-5.8 c1.9-2.2,3.6-4.7,4.7-7.4 C61,65.9,42.2,65,30.2,57.4 c-12.6-8-21-25-13.6-39.3z M29.7,16.8 c-5.3,7.6-3.4,18.8,2.8,25.3 c5.4,5.7,12,9,20,8.8 c8.3-0.2,16.8-5,19.4-13.2 c-6.3,9.1-19.2,9.6-28.2,4.5 c-10.1-5.7-17.2-19-10.7-30z M44.5,11.7 c-6.3,9.2,2.6,20.8,12.5,21.6 c3.6,0.3,7.2-0.5,9.9-2.9 c1.5-1.3,2.3-3,3.4-4.6 c-4,5.8-12.6,4.8-17.9,1.5 c-5.7-3.7-9.6-11.6-6.1-18.1z" />
</g>
<g id="gsap" filter="url(#f2)">
	<path fill="#FBFBFB" d="M40.7,47.3 c-2,0.4-4,0.8-5.3,2.5 c-0.1,0-0.1-0.1-0.2-0.1 c-1.4-1.1-2.5-2.6-2.9-4.3 c-0.5-1.7-3.4-4.5-4.6-5.9 c-1.1,5.8-3.6,12.2-2.8,18.1 c0.1,0.4-0.3,0.4-0.5,0.4 c-1.3,0.1-7.7,1.4-7.7-0.9 c0-1.8,1.5-3.4,2.2-5.1 c0.8-2.2,0.7-4.5,1.6-6.7 c0.5-1.3,0.8-3.5,1-4.9 c0.4-2.6,1.4-5,1.9-7.5 c0.4-2.4-1.7-5.3-1.5-7.9 c0.1-1.7-2.2-0.4-2.6,0.3 c-0.7,1-1.4,2-2.3,2.9 c-0.5,0.6-0.3,1.3,0.1,1.9 c0.8,0.9,2.5,8.2,0.1,7.2 c-0.6-0.2-1.2-0.3-1.8-0.5 c-1.9-0.6-3-7.1-3.1-8.8 c0-0.4-0.2-0.8,0-1.2 c1.6-2.2,2.9-4.6,5-6.4 c1.6-1.3,3.8-0.5,5.3-1.7 c0.5-0.4,5.5,0,6.3,0.1 c0.9,0.1,5.3,0.6,5.7,1.4 c0.8,1.6,2.2,4.2,3.3,5.6 c1.8,2.3,3,5.3,4.2,7.9 c0.4,0.8-2.1,2.1-2.5,2.4 c-1.6-1.9-4.8-4.6-5.2-7.1 c-0.2-1.3-4.2-5.7-4.2-3.4 c0,1.5-0.2,3,0.3,4.5 c0.2,0.6,1,3.4,1.4,3.8 c1.5,1.5,2.4,4,3.6,5.7 c1.4,2,3,3.9,4.6,5.8 c0.3,0.3,0.4,0.8,0.6,1.2 C40.6,46.7,40.6,47,40.7,47.3 C38.7,47.6,40.6,47,40.7,47.3z M30.7,12.4 c0.2,2.8-2.9,5-5.2,4.8 c-1.2-0.1-2.6-1.2-3-2.5 c-0.3-0.9-0.3-1.7,0.1-2.5 c0.5-1,0.3-2.2,1.2-3.1 c1.3-1.3,2.8-1,4.3-0.8 c1.4,0.2,2.2,1.1,2.5,2.5 C30.7,11.2,30.7,11.8,30.7,12.4 C30.9,15.1,30.7,11.8,30.7,12.4z" />
	<path fill="#8DE001" d="M35.2,49.7 c0.1,0,0.1,0,0.2,0.1 c-0.5,2.5,2.5,3.7,2,6.1 c-0.4,1.9-2.3,4.2,0.1,5.7 c2.5,1.6,3.5,4,5.6,5.9 c0.6,0.6,1.6,0.5,2.5,0.4 c2.1-0.1,4.2-0.3,6.1-1.3 c1.7-0.9,3.1-2.1,3.7-4 c0.6-1.7-0.3-3-1.5-4 c-0.8-0.7-0.8-1.2,0-1.9 c0.5-0.5,3.4-3.7,4.1-3.2 c1,0.7-0.8,3.7-1,4.5 c6-4.7,1.3,0.6,2.9,1.3 c0.6,0.3,3.3-3.9,3.3-1 c0,1.4-0.6,2.7-1.2,3.9 c-0.8,1.6-1.7,3.1-2.6,4.7 c0.5,0.2,0.7-0.2,1-0.4 c2.3-1.9,4.6-4.7,7.5-5.8 c0.8-0.3,1.6,0.9,0.8,1.4 c-1.5,1-2.9,2.3-4.3,3.5 c-1.4,1.2-6.3,6.4-8.1,3.7 c-0.4-0.6-0.7-0.9-0.1-1.5 c0.4-0.4,0.5-1,0.7-1.5 c0.8-1.9-3.7,2.2-4,2.4 c-2.3,1.3-3.9-1.2-5.1,1.5 c-0.6,1.4-1.6,1.8-3.2,1.5 c-1.4-0.3,0.6-2.2-0.6-2.6 c-1.4-0.6-1.9,3-3.7,2.8 c-0.8-0.1-1.5-2.1-1.3-3 c0.1-0.4,1.3-2.7,1-2.9 C40,66,39.8,66,39.8,66.2 c-1,0.7-1.8,1.5-3,1.9 c-0.5,0.2-0.7,0.1-0.9-0.3 c-0.6-1-0.9-1.9,0.3-2.8 c1.7-1.3,0.6-1.8-0.9-1.2 c-1.5,0.6-3.3-0.2-3.9-1.6 c-0.5-1.4,0.9-2.2,1.7-3.2 c2.7-3.4-2.4-5.7,0.6-8.1 C34.2,50.5,34.7,50.1,35.2,49.7 C35.3,49.7,34.7,50.1,35.2,49.7z M56.9,58.3 c-0.1-0.1-0.2-0.1-0.3,0 c0.1,0,0.2,0.1,0.3,0.1 C56.8,58.4,56.8,58.3,56.9,58.3 C56.8,58.2,56.8,58.3,56.9,58.3z M42.2,64 c-1.2-1.2-4.5-3.3-4.2-5 c0.5-3.1,1.7-4.2-0.4-7.2 c-2-2.8,3.2-4.1,5-2.1 c1.7,1.9,2.8,4.2,4.7,6 c1.8,1.7,4.1,2.9,6,4.5 c0.8,0.7,0.9,2,0.3,2.8 c-2.1,2.4-4.9,3.4-8,3.5 c-1.8,0.1-2.6-1.5-1.8-2.8 C45,61.8,42.8,63.2,42.2,64 C41,62.9,42.4,63.7,42.2,64z M40.7,47.3 c0-0.3-0.1-0.5-0.1-0.8 c0.4-0.2,5.2-1.8,4.7-0.2 c-0.4,1.1,0.5,1.3,1.1,1.6 c0.9,0.3,1.1,0.8,0.5,1.5 c-1.5,2,2,1.2,2.1,1.5 c0.5,0.9,1,1.8,1.7,2.6 c0.5,0.5,0.9,0.7,1.3-0.1 c0.7-1.4,2.8-0.8,2,0.7 c-0.5,0.9-1,1.8-1.4,2.8 C51.9,58.3,42.7,47.2,40.7,47.3 C40.6,47,41.2,47.2,40.7,47.3z" />
</g>
<g id="css" filter="url(#f2)">
	<linearGradient id="Grad-CSS-2" x1="0" y1="1" x2="1" y2="0">
		<stop offset="0" stop-color="#004B82" />
		<stop offset="1" stop-color="#3391D6" />
	</linearGradient>
	<linearGradient id="Grad-CSS" x1="0" y1="1" x2="1" y2="0">
		<stop  offset="0" stop-color="#2E97C4"/>
		<stop  offset="1" stop-color="#98daff"/>
	</linearGradient>
	<path fill="url(#Grad-CSS)" d="M69,8 L40 8 40 8 40 19 55.7 19 54.7 30 40 30 40 41 53.7 41 52.4 56.7 40 60.8 40 72.4 63.3 65.6 z" />
	<path fill="url(#Grad-CSS-2)" d="M40,60.8 l-12.4-3.3 l-0.8-8.9 H15.6 l1.6,17.4 L40,72.4 V60.8z M12.4,8 H40 v10.9 H13.9 L12.4,8z"/>
</g>
<g id="sass" filter="url(#f2)" transform="translate(0,-6)">
	<path fill="#FF7BAC" d="M36.8,52.5 c0.6-0.4,1.5-0.7,2,0.1 c0.5,0.7-0.3,2.3-0.5,3 c-0.2,0.8-1.8,5.7-0.9,6 c1.4-2,2.2-4.4,3.2-6.7 c1-2.4,2.4-4.8,3.1-7.3 c0.3-1.3,0.7-1.6,2.1-1.7 c1.1-0.1,2.3-0.1,1.9,1.3 c-0.7,2.2-1.1,4.9,0.5,6.8 c1-1.4,1.8-3.2,2.6-4.7 c0.4-0.8,0.9-1.6,1.2-2.4c0.2-0.7,0.3-1.9,0.8-2.4 c0.5-0.5,3.9-0.9,3.8,0.3 c-0.1,0.8-0.5,1.7-0.7,2.5 c-0.2,0.9-0.1,2,0.2,2.9 c0.2,0.8,0.6,1.5,0.9,2.3 c0.5,0.9,0.9,0.3,1.7,0 c1.7-0.6,3.6-0.9,5.4-0.7 c3.1,0.2,6.5,1.9,7.6,5 c0.5,1.3,0.5,2.8-0.2,4 c-0.3,0.6-0.8,1.1-1.4,1.4 c-0.1,0.1-1.7,0.9-1.5,0.2c0.2-0.4,1-0.8,1.4-1.2c0.5-0.5,0.8-1.2,0.9-1.9c0.2-1.7-1.1-3.3-2.4-4.1 c-1.4-0.9-3.1-1.3-4.7-1.4 c-1.6-0.1-4.1-0.2-5.5,0.8 c-0.2,0.1,0.4,1.7,0.4,1.9 c0.1,0.7,0,1.5-0.3,2.1 c-0.7,1.5-2.2,2.6-3.7,3.2 c-0.9,0.4-2.6,1.1-3.2-0.1 c-0.7-1.3,0.3-3.2,1-4.3 c0.4-0.6,0.9-1.2,1.5-1.8 c0.6-0.6,1.2-0.7,0.8-1.5 c-0.8-1.5-0.9-3.1-1.5-4.6 c-0.9,1.3-1.5,2.8-2.3,4.1 c-0.5,0.8-0.9,1.5-1.5,2.2 c-0.3,0.4,0.4,1.5,0.5,2 c0.7,3.2-1.5,5.4-4.4,6.3 c-0.9,0.2-3.2,0.8-3.6-0.3 c-0.5-1.3,1.9-3.2,2.6-4.1 c0.5-0.6,1-1.2,1.4-1.8 c0.6-0.9,0.7-0.9,0.2-1.9 c-0.4-0.7-0.7-1.5-0.9-2.3 c-0.2-0.6-0.2-1.8-0.7-2.3 c-0.9,1.7-1.5,3.6-2.3,5.3 c-0.9,1.9-1.9,3.8-2.9,5.7 c-0.6,1.1-2,3.6-3.6,2.8 c-0.8-0.4-1-1.4-1.1-2.2 c0-0.6,0.4-2.3,0.1-2.7 c-0.9,1.7-2.6,8-5.7,5.5 c-1.2-1-1.8-3.2-1.9-4.7 c-0.2-2,0.4-3.9,0.8-5.8 c-0.9,0.4-1.8,1-2.7,1.5 c-0.2,0.1-1.1,0.4-0.9,0.8 c0.2,0.5,0.4,1.1,0.5,1.6 c0.4,1.8,0.2,3.9-0.3,5.6 c-1.1,3.6-4.3,6.5-8,7.1 c-2,0.4-4.5,0.3-5.6-1.7 c-0.9-1.6-0.8-3.8,0-5.4 c0.9-1.9,2.5-3.2,4.2-4.4 c0.9-0.7,1.9-1.3,2.9-1.9 c0.9-0.5,2-0.9,2.8-1.6 c-1.6-1-3.1-2.2-4.6-3.3 c-1.6-1.1-3.1-2.3-4.5-3.6 c-2.7-2.6-4.3-5.7-2.9-9.4 c2.7-6.6,9.9-10.9,16.2-13.7 c3.5-1.6,7.3-2.7,11.1-2.9 c3.4-0.1,7.2,0.3,9.9,2.5 c5.7,4.7,0.5,13.1-4.3,16.2 c-2.9,1.9-6.5,2.9-9.9,3.2 c-3.4,0.3-7.3-0.2-8.9-3.6 c-0.2-0.5,0.3-0.8,0.6-0.4 c0.5,0.6,1.1,1,1.8,1.3 c1.7,0.8,3.6,0.8,5.4,0.6 c3.6-0.5,7.1-1.9,9.9-4.2 c2.4-2,5.3-5.5,4.2-8.8 c-1.2-3.5-7-3.3-9.8-2.9 c-3.8,0.5-7.5,2-10.9,3.8 c-3.1,1.7-6.3,3.6-8.6,6.2 c-2.3,2.6-3.7,6.2-1.7,9.4 c2,3.1,5.6,5,8.3,7.5 c0.9,0.8,0.9,0.8,1.9,0.2 c1-0.6,2-1.1,3-1.7 c0.7-0.4,1.8-0.7,2.3-1.3 c0.6-0.6,1.1-1.3,1.8-1.9 c1.1-1,2.9-2.2,4.5-1.8 C37.4,48.9,36.7,51.1,36.8,52.5 C36.9,52.4,36.8,52.4,36.8,52.5z M21.8,58.6 c-2.3,1-4.9,2.9-6.5,4.8 c-1.1,1.2-3.1,5.5,0,5.5 c2.2,0,4.3-1.8,5.5-3.5 C22.1,63.3,22.3,61,21.8,58.6 C21.7,58.6,21.9,58.9,21.8,58.6z M29.7,60 c0,0.5,0.1,2.7,0.9,2.5 c0.9-0.2,1.5-2.3,1.8-3 c1-2.4,2.1-4.9,2.5-7.5 c0.2-0.9-0.2-1.3-1.1-0.9 c-1,0.5-1.7,1.5-2.3,2.5 C30.4,55.5,29.7,57.7,29.7,60 C29.7,60.1,29.8,57,29.7,60z M55.4,56.1 c-0.7,0.5-1.3,1.4-1.8,2.1 c-0.1,0.2-1.2,2.7-0.5,2.4 C55,59.9,56.2,58,55.4,56.1 C55.4,56.1,55.6,56.5,55.4,56.1z M47,59 c-0.4-0.1-3,3.2-3.2,3.8 c0.7,0.1,1.6-0.7,2.1-1.2 C46.6,60.8,46.9,60,47,59 C47,59,47,59.2,47,59z" />
</g>
<g id="rwd" filter="url(#f2)">
	<linearGradient id="Grad-RWD" x1="0" y1="1" x2="1" y2="0">
		<stop offset="0" stop-color="#E35F5F" />
		<stop offset="1" stop-color="#9E1818" />
	</linearGradient>
	<rect fill="url(#Grad-RWD)" x="8" y="10" width="64" height="47" />
	<path fill="#fff" opacity="0.5" d="M18,12 h44 v5 h-44 v-5z M9,20 h22 v15 h-22 v-15z M32,20 h25 v1 h-25 v-1z M32,22 h25 v1 h-25 v-1z M32,24 h25 v1 h-25 v-1z M32,26 h25 v1 h-25 v-1z M32,32 h25 v1 h-25 v-1z M32,34 h25 v1 h-25 v-1z M9,36 h48 v1 h-48 v-1z M9,38 h48 v1 h-48 v-1z M9,40 h48 v1 h-48 v-1z M9,42 h48 v1 h-48 v-1z M9,44 h48 v1 h-48 v-1z M9,46 h48 v1 h-48 v-1z M9,52 h31 v1 h-31 v-1z M58,20 h6 v6 h-6 v-6z M65,20 h6 v6 h-6 v-6z M58,27 h6 v6 h-6 v-6z M65,27 h6 v6 h-6 v-6z M9,48 h48 v1 h-48 v-1z M32,28 h25 v1 h-25 v-1z M32,30 h25 v1 h-25 v-1z" />
	<rect x="47" y="41" fill="#FFF" width="18" height="31" />
	<path fill="#aaa" opacity="0.5" d="M49,43 h14 v2 h-14 v-2z M49,46 h14 v7 h-14 v-7z M49,54 h14 v2 h-14 v-2z M49,57 h14 v1 h-14 v-1z M49,59 h14 v1 h-14 v-1z M49,62 h14 v1 h-14 v-1z M49,64 h14 v1 h-14 v-1z M49,67 h14 v1 h-14 v-1z M49,69 h9 v1 h-9 v-1z" />
</g>
<g id="html" filter="url(#f2)">
	<linearGradient id="Grad-HTML" x1="0" y1="1" x2="1" y2="0">
		<stop offset="0" stop-color="#722510" />
		<stop offset="1" stop-color="#cc5c3c" />
	</linearGradient>
	<linearGradient id="Grad-HTML-2" x1="0" y1="1" x2="1" y2="0">
		<stop  offset="0" style="stop-color:#f4743e"/>
		<stop  offset="1" style="stop-color:#fcae8b"/>
	</linearGradient>
	<path fill="url(#Grad-HTML)" d="M40.1,30.8 h-15 l-1-11.6 h16 V8 h-0.2 H11.7 l0.2,3 l2.8,31.2 h25.4 V30.8z M40.1,60.2 h-0.2 l-12.6-3.4 l-0.8-9 h-6 h-5.2 l1.4,17.8 L39.9,72 h0.2 V60.2z"/>
	<path fill="url(#Grad-HTML-2)" d="M39.9,30.8v11.4h14l-1.4,14.6l-12.6,3.4V72l23.2-6.4l0.2-2l2.6-29.8l0.4-3h-3.2H39.9z M39.9,8v7v4.2
	l0,0h27.4l0,0l0,0l0.2-2.4l0.6-5.8l0.2-3H39.9z"/>
</g>
<g id="php" filter="url(#f2)" transform="translate(0,-12)">
	<linearGradient id="Grad-php" x1="0" y1="1" x2="1" y2="0">
		<stop offset="0" stop-color="#FFFFFF" />
		<stop offset="0.5" stop-color="#4C6B97" />
		<stop offset="1" stop-color="#231F20" />
	</linearGradient>
	<path fill="url(#Grad-php)" stroke="#111" stroke-width="1" d="M20.9,51.1 c2,0,3.3,0.4,3.9,1.1 c0.7,0.7,0.8,2,0.5,3.7 c-0.4,1.8-1,3.1-2.1,3.9 c-1,0.8-2.6,1.2-4.6,1.2 h-3.1 l1.9-9.9 H20.9z M8.3,70.9h5.1 l1.2-6.3 h4.4 c1.9,0,3.5-0.2,4.8-0.6 c1.3-0.4,2.4-1.1,3.4-2.1 c0.9-0.8,1.6-1.7,2.1-2.6 c0.5-1,0.9-2,1.1-3.2 c0.5-2.8,0.1-5-1.2-6.5 c-1.4-1.6-3.5-2.3-6.5-2.3 h-9.9 L8.3,70.9z M34.3,41.1 h5.1 l-1.2,6.3 h4.5 c2.9,0,4.8,0.5,5.9,1.5 c1.1,1,1.4,2.6,1,4.8 l-2.1,11 h-5.2 l2-10.4 c0.2-1.2,0.1-2-0.3-2.4 c-0.4-0.4-1.3-0.6-2.6-0.6 h-4.1 l-2.6,13.5 h-5.1 L34.3,41.1z M61,51.1 c2,0,3.3,0.4,3.9,1.1 c0.7,0.7,0.8,2,0.5,3.7 c-0.4,1.8-1,3.1-2.1,3.9 c-1,0.8-2.6,1.2-4.6,1.2 h-3.1 l1.9-9.9 H61z M48.5,70.9 h5.1 l1.2-6.3 h4.4 c1.9,0,3.5-0.2,4.8-0.6 c1.3-0.4,2.4-1.1,3.4-2.1 c0.9-0.8,1.6-1.7,2.1-2.6 c0.5-1,0.9-2,1.1-3.2 c0.5-2.8,0.1-5-1.2-6.5 c-1.4-1.6-3.5-2.3-6.5-2.3 H53 L48.5,70.9z" />
</g>
<g id="pyro" filter="url(#f2)">
	<linearGradient id="Grad-pyro" x1="0" y1="1" x2="0" y2="0">
		<stop offset="0" stop-color="#E5572D" />
		<stop offset="0.5" stop-color="#FE9F20" />
	</linearGradient>
	<path fill="url(#Grad-pyro)" d="M59.4,45.5 C54.6,32.4,42.6,10.9,41,8 c-7.2,12.6-16.9,26.9-19.4,41.5 C19.5,61.6,30.2,72.8,42.3,72 C55.1,71,64,58,59.4,45.5z M53.1,50c-0.9,1.8-2.9,2.5-2.7,4.8 c0.2,2,1.8,3.5,1.2,5.6 c-1,3.7-6.2,5.5-9.6,5.8 c-3.9,0.3-7.8-1-10.6-3.7 c-1.5-1.4-2.2-3.5-1-5.4 c1.4-2.2,0.5-4.2-0.3-6.4 c-1.9-4.8,3.5-6.5,3.5-11 c1.7,2.5-0.7,4.7-0.2,7.3 c0.5,2.6,4,3.4,3.7,6.3 c-0.3,2.3-4.3,3.9-2.2,6.4 c0.9,1.1,1.2-1.6,1.3-2 c0.5-1.5,1.3-2.9,2.2-4.2 c1.2-1.7,3.6-4,2.7-6.2 c-0.9-2.3-3.9-2.3-5.1-4.4 c-1.2-2,0.2-5.2,1.1-7 c1.3-2.5,3.4-4.3,3.2-7.3 c0.9,1.6,1.2,3.4,0.7,5.2 c-0.3,1-1.4,2.8-0.6,3.8 c0.8,1,2.4,1,3.3,1.7 c1.5,1.1,2.2,2.9,2.1,4.7 c-0.1,3.8-5.1,6.1-4.8,9.7 c0.1,1.4,1.6,2.3,2.7,2.9 c1.7,0.9,1.8,2.5,1.7,4.3 c1.9-1,2.5-3,0.9-4.6 c-1.9-1.9-2.6-3.9-0.3-5.8 c1.6-1.4,3.4-2.4,2.7-4.8 c-0.6-2.1-1.5-3.3-0.9-5.2 c0-0.1,0-0.2,0.1-0.2 c0-0.1,0.1-0.2,0.1-0.4 C48.3,43.8,55.1,46,53.1,50z" />
</g>
<g id="wp" filter="url(#f2)">
	<linearGradient id="Grad-wp" x1="0" y1="1" x2="1" y2="0">
		<stop  offset="0" stop-color="#3391D6"/>
		<stop  offset="1" stop-color="#004B82"/>
	</linearGradient>
	<path fill="url(#Grad-wp)" d="M12.5,40.1 c0,10.9,6.3,20.3,15.5,24.7 L14.9,29 C13.4,32.4,12.5,36.2,12.5,40.1z M58.5,38.8 c0-3.4-1.2-5.7-2.3-7.6 c-1.4-2.3-2.7-4.2-2.7-6.4 c0-2.5,1.9-4.9,4.6-4.9 c0.1,0,0.2,0,0.4,0 c-4.9-4.5-11.4-7.2-18.5-7.2 c-9.6,0-18,4.9-22.9,12.4 c0.6,0,1.3,0,1.8,0 c2.9,0,7.3-0.3,7.3-0.3 c1.5-0.1,1.7,2.1,0.2,2.3 c0,0-1.5,0.2-3.1,0.3 l10,29.7l6-18 l-4.3-11.7 C33.4,27.2,32,27,32,27 c-1.5-0.1-1.3-2.3,0.2-2.3 c0,0,4.5,0.3,7.2,0.3 c2.9,0,7.3-0.3,7.3-0.3 c1.5-0.1,1.7,2.1,0.2,2.3 c0,0-1.5,0.2-3.1,0.3 l9.9,29.5 l2.7-9.1 C57.6,43.8,58.5,41.1,58.5,38.8z M40.5,42.5 l-8.2,23.9 c2.5,0.7,5.1,1.1,7.8,1.1 c3.2,0,6.3-0.6,9.1-1.6 c-0.1-0.1-0.1-0.2-0.2-0.4 L40.5,42.5z M64.1,27 c0.1,0.9,0.2,1.8,0.2,2.8 c0,2.8-0.5,5.9-2.1,9.8 l-8.4,24.2 c8.2-4.8,13.7-13.6,13.7-23.7 C67.4,35.4,66.2,30.9,64.1,27z M40,8.1 c-17.6,0-32,14.4-32,32 c0,17.6,14.4,32,32,32 c17.6,0,32-14.4,32-32 C72,22.5,57.6,8.1,40,8.1z M40,70.7 C23.2,70.7,9.5,57,9.5,40.1 C9.5,23.3,23.2,9.6,40,9.6 c16.8,0,30.5,13.7,30.5,30.5 C70.5,57,56.8,70.7,40,70.7z" />
</g>
<g id="medoo" filter="url(#f2)" transform="translate(0,-6)" >
	<linearGradient id="Grad-medoo" x1="0" y1="0" x2="1" y2="1">
		<stop  offset="0" style="stop-color:#F3C974"/>
		<stop  offset="1" style="stop-color:#D29031"/>
	</linearGradient>
	<path fill="#954F23" d="M72,45.1 c0,4.6,0,9.3,0,13.9 c0,1.2-0.4,1.8-1.6,2.2 c-10.3,3.6-20.5,7.3-30.8,11 c-0.7,0.3-1.3,0.1-1.9-0.1 c-9.4-4-18.8-7.9-28.2-11.9 C8.5,59.9,8,59.2,8,58 c0-9.4,0-18.7,0-28.1 c0-1.1,0.4-1.6,1.5-2 c9.9-2.8,19.8-5.7,29.7-8.6 c0.6-0.2,1.1-0.1,1.7,0 c9.8,3.2,19.5,6.3,29.3,9.4 c1.5,0.5,1.8,1.1,1.8,2.5 C72,35.9,72,40.5,72,45.1z"/>
	<path fill="url(#Grad-medoo)" d="M39,71.7 L39 41.7 71 29.9 71 59.9 z" />
	<path fill="url(#Grad-medoo)" d="M39,71.7 L39 41.7 9 28.9 9 58.8 z" />
	<path fill="#F3C974" d="M9,28.9 L40 20.3 71 29.9 38.9 41.7 z"/>
	<path fill="#FAEBBF" d="M52.5,37.1 c-9.7-3.7-19.4-7.4-29.1-11.2 c-0.4-0.2-0.8-0.4-1.2-0.6 c2.9-0.8,5.7-1.6,8.6-2.5 c1.4-0.3,2.7,0.2,4,0.6 c2.6,0.9,5.1,2.3,7.7,3.3 c5.3,2.1,10.7,3.6,16,5.9 c0.8,0.3,1.8,0.4,2,1.5 c-0.1,0.7-0.7,0.9-1.2,1.1 c-1.8,0.7-3.6,1.4-5.5,1.9 C53.4,37.4,52.9,37.4,52.5,37.1z M57.1,25.6 c-1,1-2.5,1-3.6,1.6 c-3.1,1.8-6.1,1.6-9.2-0.1 c-1.3-0.7-2.7-1.1-4.1-1.8 c2.5-1,4.9-2.1,7.4-2.7 C50.8,23.6,53.9,24.6,57.1,25.6z M18.5,33.1 c3.6-1.3,7.3-2.7,10.9-4 c0.3-0.1,0.7-0.2,0.9-0.1 c2.7,1.1,5.5,2.3,8.5,3.6 c-3.8,1.8-7.5,2.7-11,4.4 c-0.1,0.1-0.1,0.2-0.3,0.3 c-0.4,0.2-0.8,0.1-1.1-0.1 c-2.3-1-4.7-1.9-7-3 C18.9,34.1,18.4,33.8,18.5,33.1z" />
	<path fill="#F7DD95" d="M17.7,62.5 c0-1.9,0-3.8,0-5.7 c0-0.4-0.2-1,0.4-1.1 c0.6,0,1.3,0.1,1.4,0.9 c0.2,0.9,0.2,1.5,1.2,0.4 c0.7-0.8,1.3,0,1.8,0.4 c0.9,0.3,0.6,1.1,0.8,1.6 c0,0.2,0.2,0,0,0 c0,0-0.1,0,0-0.1 c0.2-1.8,1.3-2.2,2.7-1.2 c1,0.7,1.6,2.3,1.1,3.1 c0,1.4,0,2.8-0.1,4.1 c0,0.5,0.2,1-0.5,1.3 C23.6,65,20.6,64,17.7,62.5z M53,66.3 c-0.6-1.4-0.2-2.8-0.3-4.2 c-0.1-0.8,0-1.7,0-2.5 c0-0.3,0.2-0.6,0.5-0.6 c0.5,0,0.4,0.4,0.5,0.7 c0.1,0.5,0.1,1.1,0.3,1.6 c0.2-0.7,0.5-1.4,0.7-2 c0.2-0.4,0.2-1,0.9-1 c0.6,0,0.5,0.6,0.7,1 c0.2,0.3,0,0.7,0.4,1 c0.5-0.9-0.3-2.1,0.8-2.8 c1.1-1.3,2.1-1.2,2.5,0.4 c0.2,0.6,0.6,1,1,1.5 c0.1,0.1,0.1,0.3,0.2,0.4 c-0.1,1.3-0.3,2.5-0.5,3.8 C58.2,64.5,55.6,65.4,53,66.3z M18.5,33.1 c2.9,1.6,6.1,2.7,9.1,4 c1,1.3,0.6,2.9,0.5,4.3 c-0.1,0.9-0.3,1.7-0.5,2.6 c-0.5,0.6-1.1,0.5-1.5-0.1 c-0.3-0.4-0.6-0.6-1.1-0.5 c-1.2-0.2-2.2,0.5-3.4,0.4 c-0.6-0.4-0.6-1-0.6-1.4 c-0.2,1.8-0.3,2-1.7,2.3 c-1-0.2-1.3-1-1.6-1.7 c0.6-0.4,0.6-1,0.6-1.6 c0-1.9,0-3.7,0-5.6 C18.4,34.9,18,33.9,18.5,33.1z M55.7,43 c-0.1,0-0.2,0-0.2,0 c-0.7,0.6-1.6,0.6-2.4,0.5 c-0.6-0.3-0.5-0.9-0.5-1.4 c0-1.7,0-3.4,0-5 c2-1,4.2-1.5,6.3-2.3 c0.5-0.2,1-0.4,1.5-0.6 c0.1,0,0.2,0,0.2,0 c0.2,0.1,0.4,0.2,0.5,0.5 c0.2,2.1,0.7,4.2-0.4,6.2 c-0.3,1-1.2,0.9-1.9,1.1 C57.4,41.6,56.7,42.6,55.7,43z"/>
	<path fill="#E8B963" d="M55.7,43 c1-0.6,0.7-1.7,1-2.8 c0.9,0.4,1,1.6,1.9,1.8 C57.7,42.4,56.8,43,55.7,43z M21.7,43.5 c-0.3,0.4-0.7,0.7-0.9,1.1 c-0.8,1.1-1.2,0.8-1.6-0.3 c1.5-0.7,1-2.4,1.8-3.7 C21.4,41.7,21.7,42.6,21.7,43.5z"/>
</g>
<g id="mysql" filter="url(#f2)">
	<path fill="#0e77a3" d="M20.8,20.2 c0,0.3,2,3.1,2.5,4 C25.3,22.8,23.5,19.1,20.8,20.2z M59.2,58.7 c-0.6,0.2-2.1,0.4-2.4,1.1 c-0.3,0.6,1.1,2.4,1.5,2.9 c1.7,2.2,4.3,3.6,6.8,4.7 		c1.4,0.6,2.6,1.3,3.8,2.2 c0.9,0.7,2,1.9,3,2.3 c0-1.2-1.6-2.3-2.3-3.2 c-1.1-1.4-2.4-2.6-3.9-3.7 c-1-0.7-4-2.6-4.5-3 c-0.4-0.4-0.6-0.9-1-1.3 c1.8-0.2,7.4-1.4,8.4-1.7 c0.6-0.2,1,0,1-0.7 c-0.4-0.4-0.7-0.9-1.1-1.3 c-1.2-1.6-2.8-2.7-4.4-3.9 c-1.7-1.3-3.5-2.7-5.5-3.6 c-1.4-0.6-3.2-1.1-4.4-1.9 c-0.7-0.5-2.4-4.3-2.9-5.4 c-1.8-3.7-3.1-7.9-5.3-11.4 c-3.7-5.9-8.6-10.6-14.5-14.4 c-1.6-1-3.2-1.9-5-2.4 c-1-0.3-2-0.6-3-0.6 c-1.1-0.1-2.5,0.1-3.4-0.6 c-2.1-1.6-4.3-3-6.9-3.6 c-1.9-0.4-4-0.2-5,1.7 C7.2,13.6,9,16,10.5,17.8 c0.9,1.1,1.8,2.3,2.5,3.5 c0.7,1.4,1,3.1,1.6,4.5 c0.5,1.5,2.6,5.7,3,6.4 c0.4,0.5,1,0.9,1.3,1.5 c0.2,0.5-0.8,3.3-1,4 c-0.4,1.4-0.6,2.9-0.7,4.4 c-0.1,3,0.3,6.1,1.6,8.8 c0.8,1.7,2.5,4.3,4.7,3.7 c1.2-0.3,1.8-1.3,2-2.5 c0.2-1.2,0.1-3.3,0.8-4.3 c0,0.4,1.2,3.1,1.6,3.9 C28.5,53,34,59,36.8,60 c0-0.2-0.6-0.6-0.8-0.8 c-0.7-0.6-1.4-1.3-1.9-2 c-1.2-1.4-2.2-3-3.2-4.6 c-1-1.6-1.9-3.3-2.8-5 c-0.4-0.9-0.8-1.9-1.2-2.8 c-0.2-0.5-0.3-1.7-0.9-2 c-0.9,1.5-2,2.5-2.5,4.2 c-0.2,0.9-0.5,5-1,5.4 c-1.5-0.4-2-2.1-2.5-3.3 c-0.6-1.7-0.9-3.5-1-5.3 c-0.1-1.7,0.1-3.5,0.5-5.2 c0.3-1.3,0.9-2.5,1.3-3.8 c0.4-1.4-0.1-2.2-1.1-3.1 c-1.4-1.3-2.2-3.4-2.8-5.2 c-0.6-1.9-1.1-3.9-2-5.7 c-0.9-1.9-2.3-3.5-3.6-5.1 c-0.6-0.8-2.3-3.4-0.6-4 c1-0.7,3.3,0.6,4.1,1 c1.6,0.7,2.9,1.8,4.3,2.8 c0.7,0.5,1.7,0.4,2.5,0.5 c1.1,0.1,2.2,0,3.3,0.3 c3.8,1.1,7.2,3.4,10.3,5.9 c3.2,2.7,6,6,8.2,9.6 c1.2,1.9,4.9,10.3,5.9,12.6 c0.7,1.6,1.6,4.3,3.1,5.3 c1.3,0.9,3.3,1.3,4.8,1.8 c2.2,0.8,3.9,2,5.8,3.3 c1,0.7,3.7,1.8,3.8,3.1 C63.4,57.7,61.7,57.9,59.2,58.7z"/>
</g>
<g id="svg" fill="#111" filter="url(#f2)" transform="translate(2,-4) scale(0.9, 1)">
	<path d="M7.6,48 l8.7,5 c0.4,0.3,0.7,0.5,0.9,0.7 c0.1,0.2,0.2,0.5,0.2,0.8 c0,0.4-0.1,0.7-0.4,1 c-0.3,0.3-0.6,0.4-0.9,0.4 c-0.2,0-0.6-0.1-1.1-0.4 L2,48 l13-7.5 c0.5-0.3,0.8-0.4,1.1-0.4 c0.4,0,0.7,0.1,1,0.4 c0.3,0.3,0.4,0.6,0.4,1 c0,0.3-0.1,0.6-0.2,0.8 c-0.1,0.2-0.4,0.4-0.9,0.7 L7.6,48z M28.1,46.9 c-0.4-0.3-0.9-0.5-1.4-0.6 s-1-0.2-1.5-0.2 c-1,0-1.9,0.2-2.5,0.5 c-0.3,0.2-0.4,0.3-0.4,0.5 c0,0.2,0.2,0.4,0.6,0.6 c0.3,0.1,0.9,0.3,1.9,0.4 c1.8,0.3,3,0.5,3.7,0.8 c0.9,0.3,1.6,0.8,2.1,1.5 c0.5,0.7,0.7,1.4,0.7,2.1 c0,1-0.4,1.8-1.3,2.5 c-1.2,1-2.8,1.5-4.7,1.5 c-0.8,0-1.5-0.1-2.2-0.2 c-0.7-0.1-1.3-0.3-1.8-0.6 c-0.1,0.1-0.3,0.2-0.4,0.3 C20.8,56,20.7,56,20.5,56 c-0.4,0-0.8-0.1-1-0.4 s-0.4-0.8-0.4-1.4 v-0.9 c0-0.7,0.1-1.2,0.4-1.4 s0.6-0.4,1-0.4 c0.3,0,0.6,0.1,0.8,0.3 s0.4,0.5,0.5,1 c0.4,0.4,0.9,0.6,1.5,0.8 c0.6,0.2,1.2,0.3,2,0.3 c1.2,0,2.2-0.2,2.9-0.6 c0.3-0.2,0.5-0.4,0.5-0.6 c0-0.4-0.2-0.7-0.7-0.9 c-0.5-0.2-1.4-0.4-2.9-0.6 c-2.2-0.2-3.6-0.7-4.3-1.4 c-0.7-0.7-1.1-1.5-1.1-2.5 c0-1,0.4-1.8,1.2-2.5 c1.1-0.9,2.5-1.4,4.3-1.4 c0.6,0,1.2,0.1,1.8,0.2 c0.6,0.1,1.1,0.3,1.6,0.6 c0.2-0.1,0.3-0.2,0.5-0.3 c0.1-0.1,0.3-0.1,0.4-0.1 c0.4,0,0.7,0.1,0.9,0.4 c0.2,0.3,0.4,0.8,0.4,1.4 v0.7 c0,0.6-0.1,1-0.2,1.2 c-0.3,0.4-0.7,0.6-1.1,0.6 c-0.3,0-0.6-0.1-0.9-0.3 C28.3,47.5,28.2,47.2,28.1,46.9z M40,52.6 l2.9-6.2 c-0.7,0-1.2-0.1-1.4-0.2 c-0.4-0.3-0.7-0.7-0.7-1.2 c0-0.4,0.1-0.7,0.4-1 c0.3-0.3,0.7-0.4,1.4-0.4 h3.7 c0.6,0,1.1,0.1,1.4,0.4 c0.3,0.3,0.4,0.6,0.4,1 c0,0.4-0.1,0.7-0.4,1 c-0.3,0.3-0.7,0.4-1.4,0.4 h-0.4 L41.4,56 h-2.8 l-4.5-9.6 h-0.4 c-0.6,0-1.1-0.1-1.4-0.4 s-0.4-0.6-0.4-1 c0-0.4,0.1-0.7,0.4-1 s0.7-0.4,1.4-0.4 h3.6 c0.6,0,1.1,0.1,1.4,0.4 c0.3,0.3,0.4,0.6,0.4,1 c0,0.5-0.2,0.9-0.6,1.2 c-0.2,0.1-0.7,0.2-1.4,0.2 L40,52.6z M57.8,44.4 v-0.8 h3.2 c0.6,0,1.1,0.1,1.4,0.4 c0.3,0.3,0.4,0.6,0.4,1 c0,0.4-0.1,0.7-0.4,1 c-0.3,0.3-0.7,0.4-1.4,0.4 h-0.5 v10.2 c0,1-0.2,1.8-0.6,2.6 c-0.4,0.7-1,1.4-1.8,1.9 c-0.8,0.5-1.8,0.8-2.8,0.8 h-3 c-0.6,0-1.1-0.1-1.4-0.4 s-0.4-0.6-0.4-1 c0-0.4,0.1-0.8,0.4-1 s0.7-0.4,1.4-0.4 h3 c0.8,0,1.5-0.2,1.9-0.7 s0.7-1.1,0.7-1.8 v-1.4 c-0.6,0.4-1.2,0.7-1.8,0.9 s-1.3,0.3-1.9,0.3 c-1.8,0-3.4-0.6-4.6-1.9 s-1.9-2.8-1.9-4.7 c0-1.9,0.6-3.5,1.9-4.7 s2.8-1.9,4.6-1.9 c0.7,0,1.3,0.1,1.9,0.3 S57.2,44,57.8,44.4z M57.7,49.8 c0-1-0.4-1.9-1.1-2.7 C55.9,46.4,55,46,54,46 c-1,0-1.9,0.4-2.6,1.1 c-0.7,0.8-1.1,1.7-1.1,2.7 c0,1,0.4,1.9,1.1,2.7 s1.6,1.1,2.6,1.1 c1,0,1.9-0.4,2.6-1.1 S57.7,50.8,57.7,49.8z M72.4,48l-8.7-5 c-0.4-0.3-0.7-0.5-0.9-0.7 c-0.1-0.2-0.2-0.5-0.2-0.8 c0-0.4,0.1-0.7,0.4-1 c0.3-0.3,0.6-0.4,1-0.4 c0.2,0,0.6,0.1,1.1,0.4 L78,48 l-13,7.5 c-0.5,0.3-0.8,0.4-1.1,0.4 c-0.4,0-0.7-0.1-1-0.4 c-0.3-0.3-0.4-0.6-0.4-1 c0-0.3,0.1-0.6,0.2-0.8 c0.1-0.2,0.4-0.4,0.9-0.7 L72.4,48z"/>
</g>
<!-- PAGE ICON ~~~~~~~~~~~~~~~~~~~~~~~~~~~~~~~~~~~~~~~~~~~~~~ -->
<g id="about" class="webLine" filter="url(#f1)">
	<path d="M53.6,33.9 c1.9-2.8,2.9-6.1,2.9-9.5 c0-9.2-7.6-16.7-16.8-16.7 C30.5,7.7,23,15.2,23,24.4 c0,3.4,1.1,6.7,3.1,9.5 C14.7,41.1,12,52.2,12,66.1 V72h56 v-5.9 C68,52.2,65,41.1,53.6,33.9z M64.7,69 H15 c0,0,0-1.5,0-2.9 c0-13.9,4.8-26.6,15.6-31.4 c-2.8-2.5-4.7-6.2-4.7-10.3 c0-7.7,6.2-13.9,13.9-13.9 s13.9,6.2,13.9,13.9 c0,4.1-1.8,7.8-4.6,10.3 c10.8,4.8,15.8,17.5,15.8,31.5 C64.7,67.6,64.9,68,64.7,69z"/>
</g>
<g id="design" class="webLine" filter="url(#f1)">
	<rect x="10" y="19" width="60" height="2.5"/>
	<path d="M13,45 v22 h25 V45 H13z M36,65 H15 V47 h21 V65z"/>
	<rect x="42" y="60" width="18" height="2.5"/>
	<rect x="42" y="50" width="25" height="2.5"/>
	<rect x="42" y="45" width="25" height="2.5"/>
	<rect x="42" y="55" width="25" height="2.5"/>
	<rect x="13" y="24" width="25" height="17"/>
	<rect x="42" y="24" width="25" height="17"/>
	<path d="M8,8 v64 h64 V8 H8z M70,70 H10 V10 h60 V70z"/>
	<circle cx="64.5" cy="14.5" r="2.5"/>
</g>
<g id="mail" class="webLine" filter="url(#f1)">
	<path d="M8,18 v44 h64 v-44 l-32,22z
			 M14,16 h52 l-26,17.5"/>
</g>
<g id="tech" class="webLine" filter="url(#f1)">
	<path  d="M63.9,69.3 L48,25.6 V15.5 c1.2-0.7,2-2,2-3.5 c0-2.2-1.8-4-4-4 H34 c-2.2,0-4,1.8-4,4 c0,1.5,0.8,2.8,2,3.5 v10.2 L16.1,69.3 c-0.2,0.6-0.1,1.3,0.2,1.8 c0.4,0.5,1,0.9,1.6,0.9 h44 c0.7,0,1.3-0.3,1.6-0.9 C64,70.6,64.1,69.9,63.9,69.3z M18,70 l16-44 V14 c-1.1,0-2-0.9-2-2 c0-1.1,0.9-2,2-2 h12 c1.1,0,2,0.9,2,2 c0,1.1-0.9,2-2,2 v12 l16,44 H18z M20.9,68l7-19.3 C34.9,33,40,56,52.4,49.6 L59.1,68 H20.9z"/>
</g>
<!-- PAGE SOCIAL ~~~~~~~~~~~~~~~~~~~~~~~~~~~~~~~~~~~~~~~~~~~~~~ -->
<g id="twitter" class="webLine" filter="url(#f1)" transform="translate(0,-6)">
	<path d="M72,26.1 c-2.4,1-4.9,1.8-7.5,2.1 c2.7-1.6,4.8-4.2,5.8-7.3 c-2.5,1.5-5.3,2.6-8.3,3.2 c-2.4-2.6-5.8-4.1-9.6-4.1 c-7.3,0-13.1,5.9-13.1,13.1 c0,1,0.1,2,0.3,3 c-10.9-0.5-20.6-5.8-27.1-13.7 c-1.1,1.9-1.8,4.2-1.8,6.6 c0,4.6,2.3,8.6,5.8,10.9 c-2.2-0.1-4.2-0.7-5.9-1.6 c0,0.1,0,0.1,0,0.2 c0,6.4,4.5,11.7,10.5,12.9 c-1.1,0.3-2.3,0.5-3.5,0.5 c-0.8,0-1.7-0.1-2.5-0.2 c1.7,5.2,6.5,9,12.3,9.1 c-4.5,3.5-10.2,5.6-16.3,5.6 c-1.1,0-2.1-0.1-3.1-0.2 c5.8,3.7,12.7,5.9,20.1,5.9 c24.2,0,37.4-20,37.4-37.4 c0-0.6,0-1.1,0-1.7 C68,31.1,70.2,28.8,72,26.1z"/>
</g>
<g id="codepen" class="webLine" filter="url(#f1)">
	<path d="M40,8 C22.3,8,8,22.3,8,40 s14.3,32,32,32 c17.7,0,32-14.3,32-32 S57.7,8,40,8z M40,66.7 c-14.7,0-26.7-12-26.7-26.7 s12-26.7,26.7-26.7 c14.7,0,26.7,12,26.7,26.7 S54.7,66.7,40,66.7z M59,32.6 L40.9,20.5 c-0.6-0.4-1.3-0.4-1.9,0 L21,32.6 c-0.5,0.3-0.8,0.9-0.8,1.4 V46 c0,0.6,0.3,1.1,0.8,1.4 l18.1,12.1 c0.6,0.4,1.3,0.4,1.9,0 L59,47.4 c0.5-0.3,0.8-0.9,0.8-1.4 V34 C59.7,33.4,59.4,32.8,59,32.6z M41.7,25.1 L55,34 l-6,4 L41.7,33 V25.1z M38.3,25.1 V33 L30.9,38 l-6-4 L38.3,25.1z M23.6,37.2 l4.3,2.8 l-4.3,2.8 V37.2z M38.3,54.9 L25,46 l6-4 l7.4,4.9 V54.9z M40,44 l-6-4 l6-4 l6,4 L40,44z M41.7,54.9 V47 l7.4-4.9 l6,4 L41.7,54.9z M56.4,42.8 L52.1,40 l4.3-2.8 V42.8z"/>
</g>
<g id="facebook" class="webLine" filter="url(#f1)" >
	<path  d="M68.5,8 H11.5 C9.6,8,8,9.6,8,11.5 v56.9 c0,2,1.6,3.5,3.5,3.5 h30.7 V47.2 h-8.3 v-9.7 h8.3 v-7.1 c0-8.3,5-12.8,12.4-12.8 c3.5,0,6.6,0.3,7.5,0.4 v8.6 l-5.1,0 c-4,0-4.8,1.9-4.8,4.7 v6.2 h9.6 l-1.2,9.7 h-8.3 V72 h16.3 c2,0,3.5-1.6,3.5-3.5 V11.5 C72,9.6,70.4,8,68.5,8z"/>
</g>
</svg>
