<svg xmlns="http://www.w3.org/2000/svg" width="1920" height="240" viewBox="0 0 192 24"><path d="M27,37L16,38L63,38Z" fill="#7d8499" stroke="#7d8499" stroke-width=".1"/><path d="M47,-18L77,-16L86,-16Z" fill="#bee5c7" stroke="#bee5c7" stroke-width=".1"/><path d="M63,38L16,38L93,41Z" fill="#617995" stroke="#617995" stroke-width=".1"/><path d="M47,-18L86,-16L102,-16Z" fill="#b9e1c9" stroke="#b9e1c9" stroke-width=".1"/><path d="M47,-18L102,-16L139,-17Z" fill="#acdacc" stroke="#acdacc" stroke-width=".1"/><path d="M126,39L93,41L153,40Z" fill="#205893" stroke="#205893" stroke-width=".1"/><path d="M47,-18L139,-17L155,-17Z" fill="#a6cdcc" stroke="#a6cdcc" stroke-width=".1"/><path d="M47,-18L155,-17L168,-17Z" fill="#a3c7cb" stroke="#a3c7cb" stroke-width=".1"/><path d="M167,36L153,40L184,37Z" fill="#20398c" stroke="#20398c" stroke-width=".1"/><path d="M153,40L93,41L199,41Z" fill="#1a4386" stroke="#1a4386" stroke-width=".1"/><path d="M184,37L153,40L199,41Z" fill="#1c2f81" stroke="#1c2f81" stroke-width=".1"/><path d="M196,18L195,25L204,15Z" fill="#235b98" stroke="#235b98" stroke-width=".1"/><path d="M47,-18L168,-17L208,-17Z" fill="#a0b6c5" stroke="#a0b6c5" stroke-width=".1"/><path d="M174,-15L195,-11L208,-17Z" fill="#938da4" stroke="#938da4" stroke-width=".1"/><path d="M168,-17L174,-15L208,-17Z" fill="#9b91b3" stroke="#9b91b3" stroke-width=".1"/><path d="M195,-11L201,-2L208,-17Z" fill="#898691" stroke="#898691" stroke-width=".1"/><path d="M195,25L206,38L209,30Z" fill="#1b3582" stroke="#1b3582" stroke-width=".1"/><path d="M204,15L195,25L209,30Z" fill="#1e4c8e" stroke="#1e4c8e" stroke-width=".1"/><path d="M201,-2L197,0L209,7Z" fill="#607892" stroke="#607892" stroke-width=".1"/><path d="M197,0L195,9L209,7Z" fill="#507395" stroke="#507395" stroke-width=".1"/><path d="M195,9L204,15L209,7Z" fill="#3b6b95" stroke="#3b6b95" stroke-width=".1"/><path d="M208,-17L201,-2L209,7Z" fill="#767e8c" stroke="#767e8c" stroke-width=".1"/><path d="M204,15L209,30L209,7Z" fill="#235b8f" stroke="#235b8f" stroke-width=".1"/><path d="M195,25L199,41L206,38Z" fill="#1c2c80" stroke="#1c2c80" stroke-width=".1"/><path d="M174,-15L183,-10L195,-11Z" fill="#9790a8" stroke="#9790a8" stroke-width=".1"/><path d="M195,9L196,18L204,15Z" fill="#31679a" stroke="#31679a" stroke-width=".1"/><path d="M195,25L184,37L199,41Z" fill="#203089" stroke="#203089" stroke-width=".1"/><path d="M195,-11L197,0L201,-2Z" fill="#7d8396" stroke="#7d8396" stroke-width=".1"/><path d="M137,38L126,39L153,40Z" fill="#204e91" stroke="#204e91" stroke-width=".1"/><path d="M187,26L184,37L195,25Z" fill="#234094" stroke="#234094" stroke-width=".1"/><path d="M177,35L167,36L184,37Z" fill="#233690" stroke="#233690" stroke-width=".1"/><path d="M195,9L187,11L196,18Z" fill="#386da1" stroke="#386da1" stroke-width=".1"/><path d="M187,11L195,9L197,0Z" fill="#4f759e" stroke="#4f759e" stroke-width=".1"/><path d="M185,-7L187,11L197,0Z" fill="#6a7fa0" stroke="#6a7fa0" stroke-width=".1"/><path d="M195,-11L185,-7L197,0Z" fill="#84879b" stroke="#84879b" stroke-width=".1"/><path d="M185,-7L179,5L187,11Z" fill="#6580a7" stroke="#6580a7" stroke-width=".1"/><path d="M187,11L185,12L196,18Z" fill="#376ca4" stroke="#376ca4" stroke-width=".1"/><path d="M185,12L187,26L196,18Z" fill="#2a61a2" stroke="#2a61a2" stroke-width=".1"/><path d="M187,26L195,25L196,18Z" fill="#245199" stroke="#245199" stroke-width=".1"/><path d="M183,-10L185,-7L195,-11Z" fill="#908da0" stroke="#908da0" stroke-width=".1"/><path d="M102,39L93,41L126,39Z" fill="#2c6396" stroke="#2c6396" stroke-width=".1"/><path d="M176,1L179,5L185,-7Z" fill="#7787a9" stroke="#7787a9" stroke-width=".1"/><path d="M177,35L184,37L187,26Z" fill="#263996" stroke="#263996" stroke-width=".1"/><path d="M177,21L177,35L187,26Z" fill="#264a9e" stroke="#264a9e" stroke-width=".1"/><path d="M185,12L177,21L187,26Z" fill="#2b61a9" stroke="#2b61a9" stroke-width=".1"/><path d="M179,5L185,12L187,11Z" fill="#4a77aa" stroke="#4a77aa" stroke-width=".1"/><path d="M171,27L177,35L177,21Z" fill="#264da0" stroke="#264da0" stroke-width=".1"/><path d="M179,5L177,21L185,12Z" fill="#3d74ad" stroke="#3d74ad" stroke-width=".1"/><path d="M183,-10L176,1L185,-7Z" fill="#8a8ca7" stroke="#8a8ca7" stroke-width=".1"/><path d="M166,12L177,21L179,5Z" fill="#3c78af" stroke="#3c78af" stroke-width=".1"/><path d="M174,-15L176,1L183,-10Z" fill="#9192a8" stroke="#9192a8" stroke-width=".1"/><path d="M174,-15L161,-6L176,1Z" fill="#8e96aa" stroke="#8e96aa" stroke-width=".1"/><path d="M176,1L166,12L179,5Z" fill="#5782ad" stroke="#5782ad" stroke-width=".1"/><path d="M164,6L166,12L176,1Z" fill="#5685ae" stroke="#5685ae" stroke-width=".1"/><path d="M171,27L167,36L177,35Z" fill="#26419a" stroke="#26419a" stroke-width=".1"/><path d="M167,23L171,27L177,21Z" fill="#275ca7" stroke="#275ca7" stroke-width=".1"/><path d="M166,12L167,23L177,21Z" fill="#2c6daf" stroke="#2c6daf" stroke-width=".1"/><path d="M168,-17L161,-6L174,-15Z" fill="#999cb0" stroke="#999cb0" stroke-width=".1"/><path d="M161,-6L164,6L176,1Z" fill="#7490ad" stroke="#7490ad" stroke-width=".1"/><path d="M160,24L167,36L167,23Z" fill="#2454a3" stroke="#2454a3" stroke-width=".1"/><path d="M167,23L167,36L171,27Z" fill="#254fa1" stroke="#254fa1" stroke-width=".1"/><path d="M166,12L160,24L167,23Z" fill="#276fb0" stroke="#276fb0" stroke-width=".1"/><path d="M155,-17L161,-6L168,-17Z" fill="#9ba2b4" stroke="#9ba2b4" stroke-width=".1"/><path d="M150,36L153,40L160,24Z" fill="#264c9f" stroke="#264c9f" stroke-width=".1"/><path d="M153,19L160,24L166,12Z" fill="#2976b3" stroke="#2976b3" stroke-width=".1"/><path d="M160,24L153,40L167,36Z" fill="#26489d" stroke="#26489d" stroke-width=".1"/><path d="M161,-6L156,-5L164,6Z" fill="#7d99ae" stroke="#7d99ae" stroke-width=".1"/><path d="M154,10L153,19L166,12Z" fill="#3582b4" stroke="#3582b4" stroke-width=".1"/><path d="M164,6L154,10L166,12Z" fill="#4887b3" stroke="#4887b3" stroke-width=".1"/><path d="M156,-5L150,4L164,6Z" fill="#6c96b1" stroke="#6c96b1" stroke-width=".1"/><path d="M150,4L154,10L164,6Z" fill="#528eb3" stroke="#528eb3" stroke-width=".1"/><path d="M155,-17L156,-5L161,-6Z" fill="#95a3ae" stroke="#95a3ae" stroke-width=".1"/><path d="M153,19L150,36L160,24Z" fill="#235fa8" stroke="#235fa8" stroke-width=".1"/><path d="M142,28L150,36L153,19Z" fill="#2360a9" stroke="#2360a9" stroke-width=".1"/><path d="M142,-2L150,4L156,-5Z" fill="#7aa0b2" stroke="#7aa0b2" stroke-width=".1"/><path d="M155,-17L142,-12L156,-5Z" fill="#9aaab2" stroke="#9aaab2" stroke-width=".1"/><path d="M142,-12L142,-2L156,-5Z" fill="#8eaab3" stroke="#8eaab3" stroke-width=".1"/><path d="M145,14L153,19L154,10Z" fill="#3286b7" stroke="#3286b7" stroke-width=".1"/><path d="M139,-17L142,-12L155,-17Z" fill="#9eb1bf" stroke="#9eb1bf" stroke-width=".1"/><path d="M150,4L145,14L154,10Z" fill="#4690b6" stroke="#4690b6" stroke-width=".1"/><path d="M150,36L137,38L153,40Z" fill="#204992" stroke="#204992" stroke-width=".1"/><path d="M145,14L142,28L153,19Z" fill="#237ab6" stroke="#237ab6" stroke-width=".1"/><path d="M137,19L142,28L145,14Z" fill="#227fb8" stroke="#227fb8" stroke-width=".1"/><path d="M142,28L137,38L150,36Z" fill="#2854a3" stroke="#2854a3" stroke-width=".1"/><path d="M137,9L145,14L150,4Z" fill="#4796b9" stroke="#4796b9" stroke-width=".1"/><path d="M142,-2L137,9L150,4Z" fill="#609eb6" stroke="#609eb6" stroke-width=".1"/><path d="M137,9L137,19L145,14Z" fill="#3191bc" stroke="#3191bc" stroke-width=".1"/><path d="M102,-16L113,-9L119,-8Z" fill="#a1ccbc" stroke="#a1ccbc" stroke-width=".1"/><path d="M132,-4L129,5L137,9Z" fill="#63a9ba" stroke="#63a9ba" stroke-width=".1"/><path d="M119,-8L129,-9L139,-17Z" fill="#9dbfba" stroke="#9dbfba" stroke-width=".1"/><path d="M102,-16L119,-8L139,-17Z" fill="#a1c8c3" stroke="#a1c8c3" stroke-width=".1"/><path d="M137,19L134,25L142,28Z" fill="#2376b4" stroke="#2376b4" stroke-width=".1"/><path d="M134,25L137,38L142,28Z" fill="#2763aa" stroke="#2763aa" stroke-width=".1"/><path d="M132,-4L137,9L142,-2Z" fill="#71a9b8" stroke="#71a9b8" stroke-width=".1"/><path d="M139,-17L129,-9L142,-12Z" fill="#9db8bb" stroke="#9db8bb" stroke-width=".1"/><path d="M129,-9L132,-4L142,-12Z" fill="#95b8b7" stroke="#95b8b7" stroke-width=".1"/><path d="M132,-4L142,-2L142,-12Z" fill="#8eb1b5" stroke="#8eb1b5" stroke-width=".1"/><path d="M134,25L126,39L137,38Z" fill="#2a5da8" stroke="#2a5da8" stroke-width=".1"/><path d="M127,14L137,19L137,9Z" fill="#3096be" stroke="#3096be" stroke-width=".1"/><path d="M121,29L126,39L134,25Z" fill="#296aae" stroke="#296aae" stroke-width=".1"/><path d="M127,14L134,25L137,19Z" fill="#208abd" stroke="#208abd" stroke-width=".1"/><path d="M129,5L127,14L137,9Z" fill="#45a2be" stroke="#45a2be" stroke-width=".1"/><path d="M127,14L119,19L134,25Z" fill="#1e90bf" stroke="#1e90bf" stroke-width=".1"/><path d="M119,19L121,29L134,25Z" fill="#2280b9" stroke="#2280b9" stroke-width=".1"/><path d="M129,-9L121,-6L132,-4Z" fill="#90bcba" stroke="#90bcba" stroke-width=".1"/><path d="M121,-6L129,5L132,-4Z" fill="#7fb7bb" stroke="#7fb7bb" stroke-width=".1"/><path d="M121,29L118,33L126,39Z" fill="#2e67ab" stroke="#2e67ab" stroke-width=".1"/><path d="M114,3L127,14L129,5Z" fill="#4eabc0" stroke="#4eabc0" stroke-width=".1"/><path d="M121,-6L114,3L129,5Z" fill="#74b7bd" stroke="#74b7bd" stroke-width=".1"/><path d="M119,-8L121,-6L129,-9Z" fill="#95c1bb" stroke="#95c1bb" stroke-width=".1"/><path d="M118,33L102,39L126,39Z" fill="#2d63a0" stroke="#2d63a0" stroke-width=".1"/><path d="M114,3L119,19L127,14Z" fill="#36a6c3" stroke="#36a6c3" stroke-width=".1"/><path d="M114,3L110,20L119,19Z" fill="#34a5c3" stroke="#34a5c3" stroke-width=".1"/><path d="M113,-9L114,3L119,-8Z" fill="#8fc3bb" stroke="#8fc3bb" stroke-width=".1"/><path d="M119,19L114,25L121,29Z" fill="#2885b9" stroke="#2885b9" stroke-width=".1"/><path d="M114,25L118,33L121,29Z" fill="#2c76b2" stroke="#2c76b2" stroke-width=".1"/><path d="M119,-8L114,3L121,-6Z" fill="#8bc1bc" stroke="#8bc1bc" stroke-width=".1"/><path d="M110,20L114,25L119,19Z" fill="#2891be" stroke="#2891be" stroke-width=".1"/><path d="M114,25L104,29L118,33Z" fill="#3079b3" stroke="#3079b3" stroke-width=".1"/><path d="M104,29L102,39L118,33Z" fill="#376fac" stroke="#376fac" stroke-width=".1"/><path d="M104,2L98,20L110,20Z" fill="#3aacc3" stroke="#3aacc3" stroke-width=".1"/><path d="M101,-7L104,2L113,-9Z" fill="#92cabc" stroke="#92cabc" stroke-width=".1"/><path d="M110,20L104,29L114,25Z" fill="#2e89b9" stroke="#2e89b9" stroke-width=".1"/><path d="M113,-9L104,2L114,3Z" fill="#82c2bd" stroke="#82c2bd" stroke-width=".1"/><path d="M104,2L110,20L114,3Z" fill="#4fb3c1" stroke="#4fb3c1" stroke-width=".1"/><path d="M102,-16L101,-7L113,-9Z" fill="#a3d0bc" stroke="#a3d0bc" stroke-width=".1"/><path d="M100,-14L101,-7L102,-16Z" fill="#a6d4c0" stroke="#a6d4c0" stroke-width=".1"/><path d="M92,7L98,20L104,2Z" fill="#4db8c3" stroke="#4db8c3" stroke-width=".1"/><path d="M98,25L104,29L110,20Z" fill="#328db9" stroke="#328db9" stroke-width=".1"/><path d="M98,20L98,25L110,20Z" fill="#3298be" stroke="#3298be" stroke-width=".1"/><path d="M98,25L93,41L102,39Z" fill="#3d72aa" stroke="#3d72aa" stroke-width=".1"/><path d="M86,-16L100,-14L102,-16Z" fill="#aad9c8" stroke="#aad9c8" stroke-width=".1"/><path d="M98,25L102,39L104,29Z" fill="#397ab0" stroke="#397ab0" stroke-width=".1"/><path d="M98,0L92,7L104,2Z" fill="#6dc3bf" stroke="#6dc3bf" stroke-width=".1"/><path d="M101,-7L98,0L104,2Z" fill="#87c9bd" stroke="#87c9bd" stroke-width=".1"/><path d="M47,-18L55,-15L77,-16Z" fill="#c9e9c4" stroke="#c9e9c4" stroke-width=".1"/><path d="M85,33L93,41L98,25Z" fill="#4379ae" stroke="#4379ae" stroke-width=".1"/><path d="M100,-14L86,-16L101,-7Z" fill="#a8d8c0" stroke="#a8d8c0" stroke-width=".1"/><path d="M86,-16L98,0L101,-7Z" fill="#9ed4bc" stroke="#9ed4bc" stroke-width=".1"/><path d="M86,-16L83,0L98,0Z" fill="#9cd5bb" stroke="#9cd5bb" stroke-width=".1"/><path d="M84,30L85,33L98,25Z" fill="#4485b3" stroke="#4485b3" stroke-width=".1"/><path d="M84,21L84,30L98,25Z" fill="#4292b8" stroke="#4292b8" stroke-width=".1"/><path d="M84,21L98,25L98,20Z" fill="#3a9cbe" stroke="#3a9cbe" stroke-width=".1"/><path d="M92,7L84,21L98,20Z" fill="#41aec3" stroke="#41aec3" stroke-width=".1"/><path d="M83,0L92,7L98,0Z" fill="#77c7be" stroke="#77c7be" stroke-width=".1"/><path d="M84,7L84,21L92,7Z" fill="#50bac3" stroke="#50bac3" stroke-width=".1"/><path d="M83,0L84,7L92,7Z" fill="#6dc5be" stroke="#6dc5be" stroke-width=".1"/><path d="M85,33L75,32L93,41Z" fill="#4b76a7" stroke="#4b76a7" stroke-width=".1"/><path d="M75,32L63,38L93,41Z" fill="#4e759f" stroke="#4e759f" stroke-width=".1"/><path d="M80,22L84,30L84,21Z" fill="#4998b9" stroke="#4998b9" stroke-width=".1"/><path d="M76,18L84,21L84,7Z" fill="#50b3c1" stroke="#50b3c1" stroke-width=".1"/><path d="M74,-5L83,0L86,-16Z" fill="#a7d9b9" stroke="#a7d9b9" stroke-width=".1"/><path d="M77,-16L74,-5L86,-16Z" fill="#b4dfbe" stroke="#b4dfbe" stroke-width=".1"/><path d="M76,18L80,22L84,21Z" fill="#4ca6be" stroke="#4ca6be" stroke-width=".1"/><path d="M84,30L75,32L85,33Z" fill="#4f81af" stroke="#4f81af" stroke-width=".1"/><path d="M80,22L75,32L84,30Z" fill="#4e8cb3" stroke="#4e8cb3" stroke-width=".1"/><path d="M83,0L71,7L84,7Z" fill="#74c7bd" stroke="#74c7bd" stroke-width=".1"/><path d="M71,7L76,18L84,7Z" fill="#60bfc0" stroke="#60bfc0" stroke-width=".1"/><path d="M74,-5L71,7L83,0Z" fill="#8cd0bb" stroke="#8cd0bb" stroke-width=".1"/><path d="M55,-15L61,-12L77,-16Z" fill="#c1e6c0" stroke="#c1e6c0" stroke-width=".1"/><path d="M76,18L70,26L80,22Z" fill="#52a2bb" stroke="#52a2bb" stroke-width=".1"/><path d="M70,26L75,32L80,22Z" fill="#5292b4" stroke="#5292b4" stroke-width=".1"/><path d="M67,-3L71,7L74,-5Z" fill="#95d4ba" stroke="#95d4ba" stroke-width=".1"/><path d="M71,7L64,17L76,18Z" fill="#5fbbc0" stroke="#5fbbc0" stroke-width=".1"/><path d="M61,-12L74,-5L77,-16Z" fill="#b8e1b8" stroke="#b8e1b8" stroke-width=".1"/><path d="M33,34L27,37L63,38Z" fill="#7c859f" stroke="#7c859f" stroke-width=".1"/><path d="M61,-12L67,-3L74,-5Z" fill="#afdeb7" stroke="#afdeb7" stroke-width=".1"/><path d="M64,17L70,26L76,18Z" fill="#57aabd" stroke="#57aabd" stroke-width=".1"/><path d="M48,32L33,34L63,38Z" fill="#7785a7" stroke="#7785a7" stroke-width=".1"/><path d="M70,26L63,38L75,32Z" fill="#5b84ad" stroke="#5b84ad" stroke-width=".1"/><path d="M66,7L64,17L71,7Z" fill="#6cc4bf" stroke="#6cc4bf" stroke-width=".1"/><path d="M57,32L63,38L70,26Z" fill="#6387ac" stroke="#6387ac" stroke-width=".1"/><path d="M67,-3L66,7L71,7Z" fill="#83cebb" stroke="#83cebb" stroke-width=".1"/><path d="M64,17L57,32L70,26Z" fill="#619cb5" stroke="#619cb5" stroke-width=".1"/><path d="M57,-7L53,11L66,7Z" fill="#8fd2ba" stroke="#8fd2ba" stroke-width=".1"/><path d="M56,15L64,17L66,7Z" fill="#6cc1bf" stroke="#6cc1bf" stroke-width=".1"/><path d="M57,-7L66,7L67,-3Z" fill="#a0d9b8" stroke="#a0d9b8" stroke-width=".1"/><path d="M61,-12L57,-7L67,-3Z" fill="#b8e2b6" stroke="#b8e2b6" stroke-width=".1"/><path d="M56,15L57,32L64,17Z" fill="#69abba" stroke="#69abba" stroke-width=".1"/><path d="M53,11L56,15L66,7Z" fill="#76c7be" stroke="#76c7be" stroke-width=".1"/><path d="M48,26L51,30L56,15Z" fill="#73a6b6" stroke="#73a6b6" stroke-width=".1"/><path d="M56,15L51,30L57,32Z" fill="#6f9eb3" stroke="#6f9eb3" stroke-width=".1"/><path d="M47,8L53,11L57,-7Z" fill="#96d5ba" stroke="#96d5ba" stroke-width=".1"/><path d="M57,32L48,32L63,38Z" fill="#6d84a8" stroke="#6d84a8" stroke-width=".1"/><path d="M50,-7L47,8L57,-7Z" fill="#b4e0b6" stroke="#b4e0b6" stroke-width=".1"/><path d="M55,-15L57,-7L61,-12Z" fill="#c6e7b7" stroke="#c6e7b7" stroke-width=".1"/><path d="M51,30L48,32L57,32Z" fill="#728eab" stroke="#728eab" stroke-width=".1"/><path d="M55,-15L50,-7L57,-7Z" fill="#c7e8b5" stroke="#c7e8b5" stroke-width=".1"/><path d="M53,11L42,16L56,15Z" fill="#7dc4bd" stroke="#7dc4bd" stroke-width=".1"/><path d="M42,16L48,26L56,15Z" fill="#79b8bc" stroke="#79b8bc" stroke-width=".1"/><path d="M47,-18L50,-7L55,-15Z" fill="#d0ecbc" stroke="#d0ecbc" stroke-width=".1"/><path d="M47,8L42,16L53,11Z" fill="#85cbbd" stroke="#85cbbd" stroke-width=".1"/><path d="M-2,-17L8,-14L32,-18Z" fill="#f2fac0" stroke="#f2fac0" stroke-width=".1"/><path d="M47,-18L37,-6L50,-7Z" fill="#d3edb4" stroke="#d3edb4" stroke-width=".1"/><path d="M37,-6L47,8L50,-7Z" fill="#bae3b6" stroke="#bae3b6" stroke-width=".1"/><path d="M48,26L48,32L51,30Z" fill="#7695ae" stroke="#7695ae" stroke-width=".1"/><path d="M42,16L39,23L48,26Z" fill="#80b2b8" stroke="#80b2b8" stroke-width=".1"/><path d="M37,-6L31,8L47,8Z" fill="#abddb7" stroke="#abddb7" stroke-width=".1"/><path d="M39,23L33,34L48,32Z" fill="#8298ad" stroke="#8298ad" stroke-width=".1"/><path d="M39,23L48,32L48,26Z" fill="#7b9db1" stroke="#7b9db1" stroke-width=".1"/><path d="M31,8L42,16L47,8Z" fill="#92d1bc" stroke="#92d1bc" stroke-width=".1"/><path d="M32,-18L37,-6L47,-18Z" fill="#dff2bc" stroke="#dff2bc" stroke-width=".1"/><path d="M8,-14L27,-15L32,-18Z" fill="#ecf7bf" stroke="#ecf7bf" stroke-width=".1"/><path d="M31,8L30,10L36,18Z" fill="#94d1bc" stroke="#94d1bc" stroke-width=".1"/><path d="M30,28L33,34L39,23Z" fill="#879dae" stroke="#879dae" stroke-width=".1"/><path d="M31,8L36,18L42,16Z" fill="#8fcabc" stroke="#8fcabc" stroke-width=".1"/><path d="M36,18L39,23L42,16Z" fill="#87bdbb" stroke="#87bdbb" stroke-width=".1"/><path d="M32,-18L28,-7L37,-6Z" fill="#def2b2" stroke="#def2b2" stroke-width=".1"/><path d="M28,-7L31,8L37,-6Z" fill="#c6e8b4" stroke="#c6e8b4" stroke-width=".1"/><path d="M36,18L30,28L39,23Z" fill="#88b0b6" stroke="#88b0b6" stroke-width=".1"/><path d="M27,-15L28,-7L32,-18Z" fill="#e4f5b9" stroke="#e4f5b9" stroke-width=".1"/><path d="M30,10L27,14L36,18Z" fill="#93ccbc" stroke="#93ccbc" stroke-width=".1"/><path d="M27,14L30,28L36,18Z" fill="#8cbcba" stroke="#8cbcba" stroke-width=".1"/><path d="M8,-14L20,-12L27,-15Z" fill="#ecf8ba" stroke="#ecf8ba" stroke-width=".1"/><path d="M28,-7L16,5L31,8Z" fill="#bae3b6" stroke="#bae3b6" stroke-width=".1"/><path d="M30,28L27,37L33,34Z" fill="#8990a8" stroke="#8990a8" stroke-width=".1"/><path d="M27,14L17,24L30,28Z" fill="#91b6b7" stroke="#91b6b7" stroke-width=".1"/><path d="M16,5L30,10L31,8Z" fill="#a6d9ba" stroke="#a6d9ba" stroke-width=".1"/><path d="M17,24L27,37L30,28Z" fill="#8e9bad" stroke="#8e9bad" stroke-width=".1"/><path d="M16,5L27,14L30,10Z" fill="#a1d6bb" stroke="#a1d6bb" stroke-width=".1"/><path d="M17,24L16,38L27,37Z" fill="#9193a8" stroke="#9193a8" stroke-width=".1"/><path d="M16,15L17,24L27,14Z" fill="#97c5bb" stroke="#97c5bb" stroke-width=".1"/><path d="M16,5L16,15L27,14Z" fill="#a0d5bb" stroke="#a0d5bb" stroke-width=".1"/><path d="M20,-12L13,0L28,-7Z" fill="#dcf1b3" stroke="#dcf1b3" stroke-width=".1"/><path d="M13,0L16,5L28,-7Z" fill="#cae9b4" stroke="#cae9b4" stroke-width=".1"/><path d="M27,-15L20,-12L28,-7Z" fill="#e4f5b4" stroke="#e4f5b4" stroke-width=".1"/><path d="M5,36L16,38L17,24Z" fill="#9594a8" stroke="#9594a8" stroke-width=".1"/><path d="M8,-14L13,0L20,-12Z" fill="#e6f5b2" stroke="#e6f5b2" stroke-width=".1"/><path d="M8,-14L3,-3L13,0Z" fill="#e2f3b3" stroke="#e2f3b3" stroke-width=".1"/><path d="M7,7L16,15L16,5Z" fill="#acdaba" stroke="#acdaba" stroke-width=".1"/><path d="M10,22L5,36L17,24Z" fill="#98a6af" stroke="#98a6af" stroke-width=".1"/><path d="M16,15L10,22L17,24Z" fill="#99bfb9" stroke="#99bfb9" stroke-width=".1"/><path d="M7,7L10,22L16,15Z" fill="#a1cfbb" stroke="#a1cfbb" stroke-width=".1"/><path d="M13,0L7,7L16,5Z" fill="#bae3b6" stroke="#bae3b6" stroke-width=".1"/><path d="M0,33L-16,32L5,36Z" fill="#9a94b0" stroke="#9a94b0" stroke-width=".1"/><path d="M0,33L5,36L10,22Z" fill="#999dae" stroke="#999dae" stroke-width=".1"/><path d="M7,7L3,20L10,22Z" fill="#a1cbbd" stroke="#a1cbbd" stroke-width=".1"/><path d="M3,-3L7,7L13,0Z" fill="#c8e9b6" stroke="#c8e9b6" stroke-width=".1"/><path d="M3,-3L0,1L7,7Z" fill="#c8e9ba" stroke="#c8e9ba" stroke-width=".1"/><path d="M3,20L0,33L10,22Z" fill="#9aafb6" stroke="#9aafb6" stroke-width=".1"/><path d="M0,5L3,20L7,7Z" fill="#abdabf" stroke="#abdabf" stroke-width=".1"/><path d="M0,1L0,5L7,7Z" fill="#bde4bb" stroke="#bde4bb" stroke-width=".1"/><path d="M-2,-17L3,-3L8,-14Z" fill="#f0fab8" stroke="#f0fab8" stroke-width=".1"/><path d="M0,5L-8,14L3,20Z" fill="#a7d5c3" stroke="#a7d5c3" stroke-width=".1"/><path d="M-9,29L0,33L3,20Z" fill="#9ba7b6" stroke="#9ba7b6" stroke-width=".1"/><path d="M-2,-17L-15,-16L0,1Z" fill="#f2fabc" stroke="#f2fabc" stroke-width=".1"/><path d="M-15,-16L-19,-5L0,1Z" fill="#eaf7c0" stroke="#eaf7c0" stroke-width=".1"/><path d="M-8,14L-9,29L3,20Z" fill="#9fbfc2" stroke="#9fbfc2" stroke-width=".1"/><path d="M-2,-17L0,1L3,-3Z" fill="#e6f5b8" stroke="#e6f5b8" stroke-width=".1"/><path d="M-9,29L-16,32L0,33Z" fill="#9b9bb5" stroke="#9b9bb5" stroke-width=".1"/><path d="M-15,12L-8,14L0,5Z" fill="#afdbc6" stroke="#afdbc6" stroke-width=".1"/><path d="M-17,10L-15,12L0,5Z" fill="#b3dec7" stroke="#b3dec7" stroke-width=".1"/><path d="M-17,10L0,5L0,1Z" fill="#bce3c1" stroke="#bce3c1" stroke-width=".1"/><path d="M-19,-5L-17,10L0,1Z" fill="#cbeac4" stroke="#cbeac4" stroke-width=".1"/><path d="M-15,12L-16,31L-9,29Z" fill="#a0b5c3" stroke="#a0b5c3" stroke-width=".1"/><path d="M-15,12L-9,29L-8,14Z" fill="#a3c9c8" stroke="#a3c9c8" stroke-width=".1"/><path d="M-16,31L-16,32L-9,29Z" fill="#9d9fba" stroke="#9d9fba" stroke-width=".1"/><path d="M-17,10L-16,31L-15,12Z" fill="#a5cbcc" stroke="#a5cbcc" stroke-width=".1"/><path d="M-19,-5L-16,32L-16,31Z" fill="#a3c7cc" stroke="#a3c7cc" stroke-width=".1"/><path d="M-17,10L-19,-5L-16,31Z" fill="#addace" stroke="#addace" stroke-width=".1"/></svg>
