<svg xmlns="http://www.w3.org/2000/svg" width="1024" height="256" viewBox="8 512 1024 256"><path fill="#E4E5E7" d="M8 512h1024v256h-1024" /><path d="M17.6 609.6c-4.7 0-7.7-5.2-5.3-9.3 3.5-5.8 42.7-70 47-76.5 2.4-4 8.3-4 10.8 0 5 8 43.5 72.2 45.5 75.7 2.4 4 .3 8.8-4.2 9.7l-93.7.5zm.3-6.7l91.4-.5c-14.8-25.5-29.8-50.6-45-75.7H64l-46.2 76z"/><path fill="#FFE200" d="M107.7 601.5c-15-25.8-30.3-51.4-43.4-73.2L19.6 602l88-.5zm-47.7-62c0-.2.3-.5.6-.6h.8c3 2.4 5.8 3.4 9 3.4h1.3c.4 0 .7 0 1 .4v1L63 565.3l12.4-6.5h.9l.3.3c.3.4.5.8.3 1.2l-5.8 25 4.6.6c.4 0 .7.3 1 .7 0 .3 0 .8-.3 1l-12 13.2c-.2.2-.5.3-.7.3h-.2c-.4 0-.7-.3-.8-.7L57.6 584c0-.3 0-.7.2-1 .2-.2.5-.3.8-.3h.2l4.3 1 2-10-15.2 8.7h-1.1l-.3-.3c-.4 0-.5-.6-.4-1l12-41.5z"/><path d="M61.4 567.4l14.5-7.7-6 26.4 5.7.8c-4 4.5-7.8 8.7-12 13-1.6-5.4-3.4-10.6-5-16.2L64 585l2.3-13.2c-5.8 3.3-11.3 6.5-17 9.6l-.2-.2 12-41.4c3.2 2.5 6.7 3.8 11 3.5L61 567l.2.3z"/><path fill="#18181B" d="M40.8 615.5l.4 4.3h-1.7l-.8-2h-3.4v3.6h3.2v2.2h-3.2v4h3.5l.8-2h1.7l-.5 4.3h-9.3l-.3-2 1.3-.2v-10.3h-1.2v-2h9.5zm5.4-.2v13l1.4.3v1.4h-4.8l-.3-1.4 1.2-.2v-12h-1l-.4-1.5 3.2-.5.7.8zm5 10.6c0 1.4 1 2 2.4 2 .7 0 1.2 0 1.6-.3l1-.7.5 1.8c-.5.5-1 1-2.3 1l-1.3.2c-.4 0-1 0-1.5-.3-.6-.2-1-.5-1.5-1-1-1-1.5-2.2-1.5-3.8 0-1.8.5-3 1.5-4 .8-1 2-1.4 3-1.4s2 .2 2.6.7 1 1.3 1 2.2c0 1-.4 2-1.2 2.6-1 .6-2 1-3.2 1H51zm0-2h.6c1 0 1.7 0 2-.6.2-.2.3-.5.3-.8s0-.5-.2-.7c-.2-.3-.4-.3-.7-.3h-.6l-.7.6c-.5.5-.7 1-.7 1.8zm14.8 5c-.8.7-2 1-3.4 1-1.2 0-2.3-.3-3-1-1-1-1.6-2.3-1.6-4 0-1.8.5-3.2 1.5-4.2.8-.7 1.8-1 3-1 1 0 2 .2 2.7.7l1 1-2.6 1.4-1-1.4c-.6 0-1 .3-1.5 1-.2.6-.4 1.4-.4 2.4 0 1.4.5 2.4 1.4 3h1.8l.7-.3.5-.3.4-.3v.5l.3.5c0 .2 0 .3.2.5v.4zm2.3-2.5v-5h-1.5l-.4-1.6v-.3h2V616l2.2-.4.2.3v3.6H73v2h-2.2v5.4c0 .4 0 .7.2.8l.5.2c.5 0 1-.2 1.4-.5v.2l.2.5.2 1-1 .5c-.5.3-1 .4-1.4.4s-.8 0-1 0l-1-.6c-.4-.5-.7-1.3-.7-2.4v-.5zm12.3 2v1.5h-6l-.3-1.4 1.3-.3v-6.7h-1l-.3-1.4h.7l.8-.3 1.4-.4.6 1 1-.7c.4-.3 1-.4 1.4-.4s1 0 1.5.4c.5.3.8.8 1 1.4l-2.5 1.4-.7-1c-.3 0-.6 0-.8.4-.4.4-.5 1-.5 1.7v3.8h.2l.8.4 1.5.4zm2.6-8.3l3-.5 1 .7v8l1 .3v1.3h-4.7v-1.4l1-.2v-6.8h-1l-.3-1.5v.2zm1.3-3c-.2-.3-.4-.7-.4-1 0-.6.3-1 .6-1.2.3-.3.6-.5 1-.5.5 0 .8.2 1 .5.4.3.6.7.6 1 0 .5-.2 1-.5 1s-.6.6-1 .6c-.5 0-.8 0-1-.5l-.2.2zM97.3 629c-.8.7-2 1-3.4 1-1.2 0-2.2-.3-3-1-1-1-1.6-2.3-1.6-4 0-1.8.5-3.2 1.5-4.2.8-.7 2-1 3-1s2 .2 2.7.7l1 1-2.6 1.4-1-1.4c-.6 0-1 .3-1.5 1-.3.6-.5 1.4-.5 2.4 0 1.4.5 2.4 1.4 3h1s.6 0 1 0l.6-.3.5-.3.4-.3v.5l.3.5v.5l.3.4z"/><path fill="#FFE200" d="M588.8 582c-10.7-18.4-21.5-36.6-31-52L526.2 582l62.8-.3zM555 538c0-.2 0-.3.3-.3h.4c2 1.6 4 2.4 6.4 2.4h1c.2 0 .4 0 .5.2v.5l-7 15.8 9-5h.6l.3.3.2.6-4.2 18 3.4.4c.2 0 .4 0 .5.3v.5l-8.5 9.3-.4.2c-.3 0-.4-.2-.5-.4l-3.6-11.5v-.5h.5l3.2.7 1.3-7.7-11 6.3h-.2-.2c-.3-.3-.4-.5-.3-.6l8.3-29h.2z"/><path d="M525 587.5c-3.3 0-5.3-3.8-3.6-6.7 2.3-4 30-49 33-53.7 1.7-2.7 5.8-2.6 7.5.2l32 53.2c1.5 2.8 0 6-3 6.8l-66 .3zm.2-4.8l64.4-.3c-10.4-18-21-35.5-31.5-53.2h-.2l-32.5 53.5z"/><path d="M555.8 557.7l10.2-5.4v.2l-4.2 18.3 4 .5-8.3 9.3-3.7-11.5 3.7 1 1.8-9.2-12 6.8v-.2l8.2-29c2.2 1.7 4.7 2.6 7.6 2.4l-7.4 16.7v.2z"/><linearGradient id="a" gradientUnits="userSpaceOnUse" x1="655.2" y1="1292.7" x2="655.2" y2="1367.4" gradientTransform="matrix(1 0 0 -1 -50 1909)"><stop offset="0" stop-color="#1088D2"/><stop offset="1" stop-color="#2B3797"/></linearGradient><path fill="url(#a)" d="M607.2 541.5c-2.3 0-6.7 6.5-6.7 14 0 7.2 1 15 1 15s-1.8 4-4.8 4.2-3-3.5-3-3.5l1.2-4.2s-16.6 13.3-16 25c.5 12.7 14.4 22.8 24.2 24.3-6.7-2-12-9-13-12.2v-.4l.4-.2h1c1.6 0 2.5-.2 3-1 1-1 .4-3 0-5.4-.7-2.7-1.5-5.8 0-8 1.5-3.3 3.2-4.6 5-6.2 2.4-2.2 5.3-4.6 8.4-13 0-.2.2-.3.4-.3s.4 0 .5.2c6.5 9.6 3.2 13.5.2 17-2 2.6-4 4.7-2 9 1.6 1 3 1.6 4 1.6.8 0 1.6-.4 2.2-1 1.3-1.6 1.6-4 1.5-4.6v-.5h.8c.7 1 4.4 9 4 13-.3 3-2.8 8.6-7.5 11.2 11-3.7 19-16 19-25.8.7-19-25.4-28-24-48z"/><linearGradient id="b" gradientUnits="userSpaceOnUse" x1="655" y1="1292.6" x2="655" y2="1339" gradientTransform="matrix(1 0 0 -1 -50 1909)"><stop offset="0" stop-color="#1088D2"/><stop offset="1" stop-color="#9CF6FE"/></linearGradient><path fill="url(#b)" d="M608.5 570c-5.3 14.2-9.8 11.5-13.4 19-3.4 5.4 6 15.7-4.4 15 1.5 3.7 8.3 12.3 16 12.4s12.3-8 12.8-12.3c.5-4.2-4.2-13.6-4-12.2.2 1.4-1.5 9.8-8.5 4.2-5.3-10.5 12.7-9.7 1.5-26z"/><path fill="#18181B" d="M535.2 628.2l1.4-.3v-10.5h-1.3v-2h3.8c4 0 6.6 1.5 7.6 4 .5 1 .6 2 .6 3.2 0 2.4-.6 4.2-1.8 5.5-1.2 1.3-3 2-5.4 2h-4.4l-.3-2zm4-.4h.5c1.5 0 2.6-.4 3.4-1.2.8-1 1.2-2 1.2-3.8 0-1.7-.5-3-1.2-3.8s-2-1.2-3.7-1.2v10zM557 630c-1 0-1.5-.2-1.8-1-.3.5-.7.7-1.2 1h-1.4c-1 0-1.8 0-2.4-.6-.5-.5-.8-1.3-.8-2.4v-5.3h-1l-.3-1.5 3.2-.5.7.8v6c0 .5 0 1 .3 1.2.3.2.6.4 1 .4s.8 0 1-.3c.5-.2.6-.5.8-.8v-5.4h-1l-.2-1.4 3-.5.8.8v7.3c0 .3 0 .5.4.5h.3l.4 1-.6.5c-.2.2-.5.2-1 .2zm8-1c-.6.8-1.4 1-2.2 1-1 0-1.7 0-2.3-.7-.5-.5-.8-1-.8-1.8s0-1.3.5-1.7c.3-.4.7-.8 1.2-1 1-.5 2-.8 3.5-.8v-1.6c0-.2-.3-.3-.5-.5s-.5-.3-.8-.3h-1l-.4 1.6-2.6-1c.3-.8.8-1.4 1.5-1.8.8-.5 1.6-.8 2.5-.8 1.7 0 2.8.5 3.3 1.8.3.5.4 1 .4 1.6v4.8c0 .3 0 .5.4.5h.3l.6 1c-.6.5-1.2.7-1.8.7-.7 0-1.3-.3-1.6-1zm0-3.3c-1.8 0-2.6.5-2.6 1.4 0 .4 0 .6.2.8.2.2.5.3.8.3l1-.2c.2-.2.5-.5.5-.7v-1.3zm8-10.4v13l1.4.4v1.4h-5V629l1-.3v-12h-1l-.3-1.4 3.2-.4.7.8zm15 14.7h-7l-.4-1.8 1.4-.3v-10.5h-1.4v-2h9.6l.4 4.4H589l-.8-2.2h-3.4v3.8h3.2v2.2h-3.3v4l3.5.6v1.7zm12 0c-.7 0-1.3-.2-1.6-1-.3.5-.8.7-1.3 1H596c-1 0-1.8 0-2.4-.6-.5-.5-.8-1.3-.8-2.4v-5.3h-1l-.4-1.5 3.3-.5.7.8v6c0 .5 0 1 .4 1.2.2.2.6.4 1 .4s.7 0 1-.3c.4-.2.6-.5.7-.8v-5.4h-1v-1.4l3-.5.6.8v7.3c0 .3 0 .5.3.5h.2l.4 1-.5.5c-.3.2-.6.2-1 .2zm5.4-4c.2 1.4 1 2 2.5 2 .5 0 1 0 1.5-.3l1-.7.5 2c-.5.4-1.2.8-2.3 1h-1.3l-1.6-.2c-.5 0-1-.4-1.5-1-1-.8-1.5-2-1.5-3.7 0-1.6.5-3 1.5-4 .8-.8 2-1.2 3.2-1.2 1 0 1.7.2 2.4.7.6.5 1 1.3 1 2.2 0 1-.5 2-1.4 2.5-.8.5-1.8.8-3.2.8h-1zm0-2h.7c1 0 2 0 2.2-.6 0-.2.3-.5.3-.8s-.2-.5-.4-.7c0-.3-.3-.4-.5-.4-.3 0-.5 0-.8.2l-.7.6c-.3.5-.6 1-.6 1.7zm10.5-8.6v13l1.2.3v1.4h-4.8l-.2-1.2 1-.3v-12h-1l-.2-1.4 3-.4.8.8z"/><path d="M145.6 609.6c-4.7 0-7.7-5.2-5.3-9.3 3.4-5.8 42.7-70 47-76.5 2.4-4 8.2-4 10.7 0 5 8 43.5 72.2 45.5 75.7 2.4 4 .3 8.8-4.2 9.7l-93.7.5zm.3-6.7l91.4-.5c-14.8-25.5-29.8-50.6-45-75.7h-.4l-46.2 76z"/><path fill="#FFE200" d="M192.3 528.4L147.6 602l88-.5c-15-25.8-30.2-51.4-43.3-73zm11.5 57.4c.4 0 .7.3.8.6.2.3 0 .8 0 1l-12 13.2-.8.3h-.2c-.4-.2-.7-.5-.8-.8l-5.2-16.3c0-.5 0-.8.2-1 .2-.3.5-.4.8-.4h.2l4.3 1 2-10-15.2 8.7h-1.1l-.3-.3c-.4-.3-.5-.7-.4-1l12-41.5c0-.3.3-.6.6-.7h.8c3 2.5 5.8 3.5 9 3.5h1.3c.4 0 .7 0 1 .4v1l-9.7 21.5 12.4-6.5h.9l.3.3c.3.3.5.7.4 1l-5.8 25.2 4.7.5h-.2z"/><path d="M189.3 567.4l14.5-7.7h.2l-6 26.4 5.7.8c-4 4.5-7.8 8.7-12 13-1.6-5.4-3.4-10.6-5-16.2l5.2 1.3 2.3-13.2-17 9.6-.2-.2 12-41.4c3.3 2.5 6.7 3.8 11 3.5L189 567l.3.3h-.2z"/><path fill="#18181B" d="M140.2 628.3l2.4-.5v-10h-2.4l-.8 2h-1.7l.5-4.3h11.6l.5 4.3h-1.6l-1-2h-2.3v10l2.3.5v1.7h-7.2l-.2-1.7zm21.3.4v1.3h-4.8v-1.4l1-.2V623c0-.8-.3-1.3-1.2-1.3-.6 0-1 .2-1.6.5l-.3.3v6h1.2v1.5h-5v-1.4l1-.2v-12h-1l-.2-1.5 3-.5.8.8v5.2l1-.7 1.5-.2c.6 0 1 0 1.4.2.3 0 .7.3 1 .5.7.5 1 1.2 1 2v6l1 .2zm7.3 0v1.3h-6l-.3-1.4 1.3-.3v-6.7h-1l-.3-1.4h.8l.8-.3 1.5-.4.7 1 1-.7c.4-.3.8-.4 1.4-.4s1 0 1.4.4c.5.3.8.8 1 1.4l-2.5 1.4-.7-1c-.3 0-.6 0-1 .4-.3.4-.5 1-.5 1.7v3.8h.4l.8.4 1.4.4h-.2zm5.3-3c.2 1.6 1 2.4 2.6 2.4.7 0 1.2 0 1.5-.3.6-.3 1-.5 1-.7l.6 1.8c-.3.5-1 1-2.2 1l-1.4.2c-.4 0-1 0-1.4-.3-.6-.2-1.2-.5-1.6-1-1-1-1.5-2.2-1.5-3.8 0-1.8.5-3 1.5-4s2-1.4 3.2-1.4c1 0 1.8.2 2.5.7.7.6 1 1.3 1 2.2 0 1-.4 2-1.3 2.6-.8.6-2 1-3.2 1h-1zm0-1.6h.8c1 0 1.7 0 2-.6.2-.2.3-.5.3-.8s0-.5-.2-.7c-.2-.3-.4-.3-.6-.3h-.8l-.6.6c-.4.6-.7 1-.7 1.8zm9.6 2c.2 1.4 1 2 2.5 2 .8 0 1.3 0 1.7-.3l1-.7.5 1.8c-.5.5-1.2 1-2.3 1l-1.5.2c-.5 0-1 0-1.6-.3-.7-.2-1.2-.5-1.6-1-1-1-1.5-2.2-1.5-3.8 0-1.8.4-3 1.4-4 .8-1 2-1.4 3.2-1.4 1 0 1.8.2 2.5.7s1.2 1.3 1.2 2.2c0 1-.5 2-1.4 2.6-.8.6-2 1-3.2 1h-1zm0-2h.7c1 0 1.7 0 2-.6.2-.2.2-.5.2-.8s0-.5-.2-.7c-.2-.3-.4-.3-.7-.3h-.8l-.6.6c-.5.5-.7 1-.7 1.8zm12 4.2l1.6-.3v-10.5h-1.5v-2h5.3c3 0 4.8 1 5.5 2.8.3.6.4 1.3.4 2 0 1.6-.6 2.8-1.6 3.7-1 .8-2.5 1.3-4.5 1.3h-1v2.5H201.6l.8.3.6.2v1.7h-7l-.4-2v.2zm4.3-5c2.2 0 3.6-.6 4-1.8v-1.2c0-.8-.2-1.4-.7-2-.5-.4-1.2-.6-2.3-.6h-1v5.7zm18.2 5.4v1.4h-4.8v-1.4l1-.2V623c0-.8-.4-1.3-1.3-1.3-.4 0-1 .2-1.4.5 0 .2-.2.2-.2.3v6h1.2v1.5H208l-.4-1.4 1.3-.2v-12h-1l-.4-1.5 3-.5.8.8v5.2c.3-.3.6-.6 1-.7l1.4-.2c.5 0 1 0 1.3.2.5 0 .8.3 1 .5.7.5 1 1.2 1 2v6l1.2.2zm6.4.4c-.7.8-1.5 1-2.4 1-1 0-1.7-.2-2.2-.7-.6-.5-1-1-1-1.8s.3-1.4.6-1.8c.3-.5.7-.8 1.2-1 1-.5 2-.8 3.5-.8V622l-.4-.5H222l-.4 1.5-2.7-1c.4-.8 1-1.4 1.6-2 .8-.4 1.7-.6 2.5-.6 1.8 0 3 .6 3.5 1.8.2.4.3 1 .3 1.5v4.7c0 .2.2.4.4.4h.3l.5 1.2c-.6.5-1 .7-1.7.7-.8 0-1.4-.4-1.7-1zm-.3-3.3c-1.7 0-2.5.5-2.5 1.4 0 .4 0 .6.2.8 0 .2.5.3.8.3s.7 0 1-.2l.5-.7V626zm7 1l.5 1.3H233.3c.2-.3.4-.5.4-.8s0-.5-.3-.6l-.5-.4-.7-.3c-.3 0-.5-.2-.5-.3-1-.4-1.8-.8-2-1.4-.5-.4-.7-1-.7-1.4l.3-1.5.8-1c1-.5 1.7-.8 2.7-.8 1.4 0 2.5.5 3.2 1.4l.3.8-2.7 1-.5-1h-.4c-.6 0-1 .2-1 .7l.4.5.8.5c.4 0 .7.3 1 .5.5 0 1 .3 1.2.6.8.6 1.2 1.4 1.2 2.3 0 1-.4 1.7-1 2.3-.8.5-1.6.8-2.7.8-1 0-1.8-.2-2.5-.7-.7-.5-1-1-1.4-1.6l2.7-1zm9-1c0 1.6 1 2.4 2.4 2.4.7 0 1.3 0 1.6-.3l1-.7.4 1.8c-.3.5-1 1-2 1l-1.4.2c-.6 0-1 0-1.7-.3-.4-.2-1-.5-1.4-1-1-1-1.5-2.2-1.5-3.8 0-1.8.5-3 1.5-4 .8-1 2-1.4 3-1.4s2 .2 2.6.7c.8.6 1 1.3 1 2.2 0 1-.4 2-1.3 2.6-.7.6-1.8 1-3 1H240zm0-1.6h.7c1 0 1.7 0 2-.6.3-.2.3-.5.3-.8s0-.5-.3-.7c0-.3-.3-.3-.6-.3h-.8c0 .3-.4.4-.5.6-.4.5-.6 1-.7 1.8z"/><g><linearGradient id="c" gradientUnits="userSpaceOnUse" x1="370" y1="1291.5" x2="370" y2="1391" gradientTransform="matrix(1 0 0 -1 -50 1909)"><stop offset="0" stop-color="#1088D2"/><stop offset="1" stop-color="#2B3797"/></linearGradient><path fill="url(#c)" d="M322.7 518c-3 0-9 8.7-9 18.5s1.3 20 1.3 20-2.4 5.6-6.4 5.8c-4 0-3.8-4.7-3.8-4.7l1.5-5.6s-22 17.6-21 33.5c.5 16.2 18 29.3 31 32-8.6-3.2-15.2-12.3-16.7-16.3v-1c.3-.2.6-.3 1-.3h1.4c2 0 3-.4 3.7-1 1-1.5.4-4.2-.3-7-1-3.8-2-8 .2-11.3 2-4.2 4.3-6 6.6-8.2 3.3-2.8 7-6 11-17 .3-.4.6-.7 1-.7s.7 0 1 .4c9 13 4.4 18.5.4 23.2-3 3.4-5 6-2.6 11.3 2 1.5 3.6 2.2 5 2.2 1 0 2-.6 2.6-1.4 1.5-1.8 2-5 2-5.6 0 0 0-.6.2-1 .2-.2.5-.3.8-.3s.6 0 1 .4c.8 1 6 11.8 5.3 17.4-.6 4.2-3.8 11.2-9.6 15 14-5.4 24.3-21.4 24.3-34 1-25.3-33.7-37.6-32-64.3z"/><linearGradient id="d" gradientUnits="userSpaceOnUse" x1="369.8" y1="1291.4" x2="369.8" y2="1353.3" gradientTransform="matrix(1 0 0 -1 -50 1909)"><stop offset="0" stop-color="#1088D2"/><stop offset="1" stop-color="#9CF6FE"/></linearGradient><path fill="url(#d)" d="M324.4 555.8c-7 19-13 15.4-17.8 25.5-4.7 7 7.8 20.8-6 19.6 2 5 11 16.4 21.4 16.6 10.4 0 16.3-10.7 17-16.4.5-5.8-5.7-18.4-5.4-16.5.3 2-2 13-11.3 5.7-7-14 17-13 2-34.6z"/><path fill="#18181B" d="M273.4 628.6v1.4H269l-.3-2h1.5v-10.4h-1.4v-2h5.4L279 628v-10.5h-1.3v-2h4.5l.3 2-1.4.2V630h-4l-4.6-11.8v9.6l1 .3v.6zm15.5.4c-.8.8-1.6 1-2.5 1-1 0-1.7-.2-2.3-.7-.4-.5-.7-1-.7-1.8s0-1.4.4-1.8c.2-.5.6-.8 1-1 1-.5 2.2-.8 3.6-.8V622l-.4-.5h-1.6l-.5 1.5-2.6-1c.3-.8.8-1.4 1.5-2s1.5-.6 2.4-.6c1.7 0 2.8.6 3.4 1.8.2.4.3 1 .3 1.5v4.7c0 .2.2.4.5.4h.3l.4 1.2c-.5.5-1 .7-1.6.7-.8 0-1.4-.4-1.7-1zm-.4-3.3c-1.7 0-2.5.5-2.5 1.4 0 .4 0 .6.3.8 0 .2.4.3.8.3s.8 0 1-.2c.4-.2.6-.5.7-.7V626zm5.7.8v-5h-1.5l-.3-1.6v-.3h2V616l2-.4.3.3v3.6h2.2v2H297v5.4c0 .4 0 .7.2.8l.5.2c.5 0 1-.2 1.4-.5v.7l.4 1-1 .5c-.4.3-.8.4-1.3.4h-1l-1-.6c-.4-.5-.8-1.3-.8-2.4v-.5zM309 630c-1 0-1.5-.2-1.8-1l-1.3 1h-1.5c-1 0-1.8-.2-2.4-.7s-.7-1.3-.7-2.3v-5.4h-1l-.4-1.4 3-.6.8.8v6c0 .5 0 1 .4 1 .3.4.6.5 1 .5s.8 0 1-.3l.8-.8v-5.5h-1l-.3-1.4 3-.5.8.8v7.3c0 .3 0 .5.3.5h.2l.6 1.2-.7.4-1 .3zm9-1.4v1.4h-6l-.4-1.4 1.2-.3v-6.7h-1l-.3-1.4h.8c.3 0 .5-.2.8-.3l1.5-.4.7 1 1-.7c.3-.3.8-.4 1.3-.4s1 0 1.5.4c.5.3.8.8 1 1.4l-2.5 1.4-.7-1c-.3 0-.6 0-.8.4-.5.4-.6 1-.6 1.7v3.8h.3l.7.4 1.4.4zm8 .4c-.7.8-1.5 1-2.4 1-1 0-1.7-.2-2.3-.7-.4-.5-.7-1-.7-1.8s.2-1.4.4-1.8c.4-.5 1-.8 1.3-1 1-.5 2-.8 3.5-.8V622s0-.3-.3-.5h-1.7l-.5 1.5-2.7-1c.3-.8.8-1.4 1.5-2s1.7-.6 2.6-.6c1.7 0 2.8.6 3.4 1.8l.3 1.5v4.7c0 .2 0 .4.3.4h.3l.2 1.2c-.4.5-1 .7-1.6.7-.8 0-1.4-.4-1.7-1zm-.3-3.3c-1.7 0-2.5.5-2.5 1.4 0 .4 0 .6.2.8 0 .2.4.3.8.3s.6 0 1-.2l.4-.7V626zm8.2-10.4v13l1.2.3v1.4h-4.8l-.3-1.4 1.3-.2v-12h-1l-.3-1.5 3-.5 1 .8zm15.3 12.7h.7V625l-2.3-.3.4-1.8h4.6v6.6l-3.6.3s-2.3 0-3.2-.4c-1-.2-1.7-.7-2.3-1.3-1.5-1.3-2.3-3-2.3-5.5 0-2.2.7-4 2-5.4 1.4-1.4 3-2 5.3-2 1.2 0 2.2 0 3.2.4h.5l.4 4.4H351l-1-2.5h-1.6c-.5 0-1 0-1.5.3l-1.5 1c-1 1-1.3 2.3-1.3 4 0 1.4.4 2.6 1.3 3.5.8 1 2 1.5 3.8 1.5zm10.4 1c-.7.8-1.5 1-2.4 1-1 0-1.7-.2-2.2-.7-.4-.5-.7-1-.7-1.8s.2-1.4.5-1.8c.3-.5.7-.8 1.2-1 1-.5 2-.8 3.5-.8V622l-.4-.5h-1.5l-.5 1.5-2.7-1c.3-.8.8-1.4 1.5-2s1.6-.6 2.5-.6c1.7 0 2.8.6 3.4 1.8.2.4.3 1 .3 1.5v4.7c0 .2 0 .4.4.4h.3l.3 1.2c-.5.5-1 .7-1.6.7-.8 0-1.3-.4-1.7-1zm-.3-3.3c-1.7 0-2.5.5-2.5 1.4-.2.4 0 .6 0 .8.2.2.5.3.8.3s.7 0 1-.2c.3-.2.5-.5.5-.7V626zm7 1l.6 1.3h1.6c.3-.3.3-.5.3-.8s0-.5 0-.6l-.6-.4-.7-.3c-.3 0-.5-.2-.6-.3-1-.4-1.8-.8-2-1.4-.6-.4-.8-1-.8-1.4s0-1 .3-1.5l.8-1c.8-.5 1.6-.8 2.6-.8 1.3 0 2.3.5 3 1.4l.5.8-2.7 1-.5-1h-.5c-.6 0-1 .2-1 .7l.4.5 1 .5c.3 0 .6.3 1 .5.4 0 .8.3 1 .6 1 .6 1.3 1.4 1.3 2.3 0 1-.5 1.7-1.2 2.3-.7.5-1.6.8-2.6.8s-1.8-.2-2.5-.7-1-1-1.4-1.6l2.7-1z"/></g><g><path fill="#87080F" d="M438.5 519.7c2-1.7 4.5-1.7 4.5-1.7v15h9.5v-15s3 0 5 1.7V533h-19v-13.3z"/><path fill="#CB2628" d="M471.5 580.5V562c-2 1.5-4.5 2.8-7.5 3.7v19c3-1 7.5-4.3 7.5-4.3zm-46 16.8s-1.2 5.2-.7 7c3.2 11.6 43.2 11.6 46.4 0 .6-2-.8-7-.8-7-9.5 8.6-35.3 8.6-44.8 0z"/><path fill="#87080F" d="M424.8 594s-.4 1.8.8 3.4c7.8 10.3 37 10.3 44.8 0 1.2-1.6 1-3.5 1-3.5-7 10.2-39.8 10.2-46.6 0z"/><path fill="#CB2628" d="M448 587c3.4 0 6.5-.3 9.5-.8v-18.7c-3.5.5-6.6.7-9.6.7-8 0-18-1.6-23.5-6.2v18.2l.8.6c3.8 3.8 12.6 6.2 22.7 6.2zm16 6v.4c0 1.4-.5 4-1.5 4.8-1.4 1-6.8 3.4-6.8 1.7s1.8-3.5 1.8-5v-.2c-3.5.5-6.6.8-9.6.8-8 0-18-1.6-23.5-6.2v4c0 12 47 12 47 0v-4c-2 1.6-4.5 2.8-7.5 3.8zm-38.8-39.6c4 3.8 12.6 6.2 22.8 6.2 3.2 0 6.4-.3 9.4-.8v-6.3c0-3-1.7-8.7-1.7-12 0-1 .7-2 1.5-1.8 3.5 1.2 6.8 10 6.8 13.7v4.5c3-1 5-2.2 6.5-3.7l1-.6v-5.5c0-8.5-12.3-12-12.3-12-5 5-17.3 5-22.4 0 0 0-12.4 3.5-12.4 12v5.5l.8.6z"/><path fill="#87080F" d="M424.5 554v7c9 8.5 37.5 8.5 47 0v-7c-9.5 8.6-38 8.6-47 0zm0 27.4v7c9 8.5 37.5 8.5 47 0v-7c-9.5 8.6-38 8.6-47 0z"/><path fill="#CB2628" d="M438.5 519.7v15.5c4.5 3.5 14 3.5 19 0v-15.5c-5 3.5-14.5 3.5-19 0zm17.3 8.6c-1.8 5.2-14 5.2-15.6 0-.3-1.2 0-5 0-5 3.6 1.6 12 1.6 15.6 0 0 0 .3 4 0 5z"/><path fill="#470004" d="M455.8 604.4c-3.6 1.8-12 1.8-15.6 0-.3-.2-.4-2.4 0-2.4 3.6.5 12 .5 15.6 0 .4 0 .3 2.2 0 2.4z"/><path fill="#18181B" d="M436 615.5l.3 2-1.4.2v10h3.4l.7-2h1.8l-.6 4.3H431l-.3-2h1.3v-10.5h-1.3v-2h5.3zm5.6 12.7l1.5-.3v-10.5h-1.4v-2h5.3c3 0 4.7 1 5.5 2.8.2.6.3 1.3.3 2 0 1.6-.4 2.8-1.4 3.7-1 .8-2.5 1.3-4.5 1.3h-1v2.5h1.6l.8.3.6.2v1.7h-7l-.3-2v.2zm4.3-5c2.2 0 3.5-.6 4-1.8v-1.2c0-.8-.3-1.4-.8-2-.5-.4-1.2-.6-2.2-.6h-1.2v5.7zm15.8 4.8h.6V625l-2-.3.2-1.8h4.5v6.6c-1 .2-2.4.3-3.5.3s-2.3 0-3.2-.4c-1-.2-1.7-.7-2.4-1.3-1.6-1.3-2.4-3-2.4-5.5 0-2.2.7-4 2-5.4 1.4-1.4 3-2 5.3-2 1 0 2 0 3 .4h.5l.4 4.4H463l-1-2.5h-1.5c-.5 0-1 0-1.5.3l-1.4 1c-1 1-1.3 2.3-1.3 4 0 1.4.4 2.6 1.3 3.5 1 1 2.2 1.5 4 1.5z"/></g><g><path fill="#3FA9F5" d="M832 525.4c-25 0-45 20-45 45s20 45 45 45 45-20.2 45-45-20-45-45-45zm31 48.6s4.4 4.8 4 6.8c0 1.6-3 4.4-4.6 4.3-3.4-.4-8-11-8-11h-15.3l8 14s10.3-.8 12.5 1.5c1 1 1.2 4.8.2 6-1.5 1.4-8.5 0-8.5 0s4.5 5 4 7c-.4 2-4.4 4.6-6.2 4.3-2.2-.4-5-7.6-5-7.6s-1.6 7-3.7 7.6c-1.5.6-5.2-1.6-5.7-3.2-1-3 5.7-11.6 5.7-11.6l-7.7-13.8-8.2 13.6s6.4 8.6 5.6 11.7c-.5 1.5-4.2 4-5.8 3.4-2.2-.7-4-8.3-4-8.3s-2 7.5-4.2 8.2c-2 .4-6.4-2.3-7-4.3-.4-2.2 4.8-7.7 4.8-7.7s-8 2-9.6.3c-1-1-1-5 0-6 2.3-2.4 13.4-1 13.4-1l8-14-15.2-.3s-4.3 10.5-7.7 11.2c-1.6.3-5.2-2-5.5-3.8-.4-2 5-7 5-7s-8 1.7-9.7 0c-1.3-1.4-1.6-6.6 0-7.5 2.2-1.4 10.2.4 10.2.4s-5.7-5.8-5.2-8.2c.2-1.6 3.6-4 5-3.5 3.4.6 7.3 11 7.3 11l16 .4-8-13.8s-11.6 1.7-13.7-1c-1-1.3 0-5.5 1.3-6.5 1.7-1.2 8.2.8 8.2.8s-5-6.2-4.4-8.5c.6-1.8 4.7-4.4 6.6-4 2.3.6 5 8.3 5 8.3s1.4-7.6 3.6-8.2c1.7-.4 5.5 2.4 6 4.2.8 3-5.5 11.2-5.5 11.2l7.7 13.4 8-14.3s-6.8-7.8-6-10.7c.5-1.7 4.2-4.2 6-3.7 2 .7 3.6 8.3 3.6 8.3s2.7-7.7 5-8.2c2-.4 6 2.2 6.5 4 .5 2.2-4.5 7.7-4.5 7.7s7-1.6 8.5-.2c1.2 1.2 1.2 5.7 0 7-2 2-12 .2-12 .2l-8.6 14h15.8s4.2-10 7.4-10.6c1.6 0 4.7 2.6 5 4 .2 2-4.8 6.6-4.8 6.6s7.5-1.6 9.2 0c1.4 1.4 1.4 6.3 0 7.7-1.5 1.6-8.7 0-8.7 0v-.3z"/><path fill="#A0D7F9" d="M837.3 603l5.4-11-10-18L822 592l5.3 11-2.4 1.5-5-10-5 10-3.5-2 5.7-9.3-11.3.3v-2l12.6-1 10.2-18-19.7-.5-7.2 10.5-2.2-1.5 6-8.8H794v-3.3l12 .6-6.2-10 2-1.2 6.7 10.6 21 .2-10.4-18-12.7-1 .5-2.4 10 1-5.3-10.2 3.2-2 6 10 4.3-9.6 2.6 1.7-5.3 10.8 10 17.6 10.3-18.6-5.6-10 2.5-1.6 4.3 9.7 6-9.7 3 2-5.2 9 10-.3v3h-11l-11.3 18H856l6.8-9.6 2 1.5-6 8H870v4h-10.5l5.3 8.4-1.8 1.5-7.4-10h-20l10.3 17.8 11.7 1.4v2.2H848l4.8 8.7-3 2-6-9-4.3 9"/><path fill="#18181B" d="M812 629.6h-7.3l-.3-1.8 1.4-.3v-10.3l-1.4-.2v-2h9.5l.4 4.4h-1.6l-1-2h-3.4v3.6h3.2v2.2h-3.2v4.2l3.6.5v1.5zm9.6-1.3v1.4h-6l-.3-1.4 1.3-.3v-7l-1 .2-.3-1.4h.7l.8-.2 1.4-.3.7 1c.2-.3.5-.6 1-.8l1.3-.2s1 0 1.5.4.8.7 1 1.4l-2.5 1.4-.7-1c-.3 0-.7 0-1 .4-.3.5-.5 1-.5 1.8v4h.5l.7.3 1.5.3zm2.6-8.4l3-.6.8.7v8l1.3.4v1.3h-4.6l-.3-1.4 1.2-.2v-6.6h-1l-.2-1.5zm1.3-3c-.2-.5-.4-.8-.4-1.2 0-.5.3-.8.6-1 .3-.4.6-.6 1-.6.5 0 .8 0 1 .4s.6.7.6 1c0 .5-.2 1-.5 1s-.6.6-1 .6c-.5 0-.8 0-1-.5h-.2zm9.3 2.4c.5 0 1 0 1.4.2V616h-1l-.3-1.4 3-.5.8 1v12.5c0 .2 0 .4.4.4 0 0 .3 0 .5-.3l.3 1c-.2.5-.6.7-1 1h-.8c-.8 0-1.4-.3-1.7-1-.5.7-1.2 1-2.2 1-1 0-2-.5-3-1.4-.6-.8-1-2-1-3.6 0-2 .5-3.4 1.5-4.3.8-.8 1.8-1 3-1zm1.4 2.3c-.3-.3-.7-.4-1.2-.4-1 0-1.6.5-2 1.8v2s0 1.6.4 2c.3.6.8.8 1.4.8.3 0 .6 0 1-.3.2-.2.4-.5.4-.8v-5zm6.4 4.7c-1-.7-1.6-1.8-1.6-3 0-1.3.5-2.3 1.3-3 .8-.7 1.8-1 2.8-1 1.2 0 2 .2 3 1l2-1.3h.6l.3 2.2-2 .2c.2.5.4 1 .4 1.8s-.2 1.2-.4 1.7c-.3.4-.5.7-1 1-.8.6-1.7 1-3 1h-.2-.2l-.4.6v.2l2.2.5c2.2.5 3.2 1.4 3.2 3 0 1.2-.5 2.2-1.4 3-1 .6-2 1-3.5 1-1.2 0-2.2-.3-3-1-.7-.6-1-1.3-1-2.2 0-1 .5-2 1.5-2.6-.2-.4-.5-1-.5-1.5 0-.6.4-1.2 1-1.7zm1.3 4c-.6.3-1 .7-1 1.2s.6 1 1.3 1c.3.2.7.3 1 .3.4 0 .7 0 1-.2.3 0 .5-.2.7-.3.5-.2.7-.5.7-.8 0-.2 0-.3-.3-.5l-1-.3c-.3-.2-.7-.3-1.2-.3l-1.3-.4zm1-9c-.6 0-1 .3-1.4 1v1c0 .3 0 .8.3 1 0 .5.6.7 1 .7.6 0 1 0 1.3-.4.3-.5.4-.8.4-1.2v-1l-.4-.5c-.2-.5-.6-.6-1.2-.6zm9 4c.3 1.6 1 2.4 2.6 2.4.7 0 1.2-.2 1.6-.4l1-.7.5 1.7c-.5.5-1.2 1-2.3 1-.3.2-.8.3-1.3.3s-1-.2-1.5-.4-1-.5-1.5-1c-1-.8-1.5-2-1.5-3.8 0-1.7.5-3 1.5-4 .8-.8 2-1.2 3-1.2s2 .2 2.6.7c.8.5 1 1.3 1 2.2 0 1-.4 2-1.2 2.5-.8.5-2 .8-3.2.8h-1zm0-1.7h.8c1 0 1.8-.2 2-.7.2-.2.3-.5.3-.8s0-.5-.2-.7h-1.4l-.6.5c-.4.5-.7 1-.7 1.7z"/></g><g><path fill="#3FA9F5" d="M960 526c-25 0-45 20-45 45 0 24.8 20 45 45 45s45-20.2 45-45c0-25-20-45-45-45zm31 48.6s4.4 4.8 4 6.7c0 1.6-3 4.4-4.6 4.3-3.4-.3-8-11-8-11H967l8 14s10.3-.8 12.4 1.5c1 1.2 1.3 5 .3 6-1.6 1.6-8.5 0-8.5 0s4.4 5.2 4 7.2c-.5 2-4.4 4.6-6.2 4.2-2.3-.5-5-7.6-5-7.6s-1.6 7-3.7 7.6c-1.5.5-5.2-1.6-5.7-3.2-1-3 5.7-11.7 5.7-11.7l-7.7-13.8-8.2 13.6s6.4 8.5 5.4 11.7c-.5 1.6-4 4-5.7 3.5-2-.7-4-8.2-4-8.2s-2 7.5-4 8c-2 .6-6.6-2-7-4-.5-2.3 4.7-7.8 4.7-7.8s-8 2-9.7.2c-1-1-1-5 0-6 2.3-2.4 13.4-1 13.4-1l8-14-15.2-.3s-4.3 10.5-7.6 11.2c-1.7.3-5.2-2-5.5-3.7-.3-2.3 5-7.3 5-7.3s-8 1.7-9.6 0c-1.4-1.4-1.7-6.5 0-7.5 2-1.3 10 .5 10 .5s-5.6-5.8-5-8.2c.2-1.5 3.6-3.8 5-3.5 3.4.7 7.3 11.2 7.3 11.2l16 .3-8-14s-11.6 2-13.8-1c-1-1.3 0-5.4 1.2-6.4 1.6-1 8.2 1 8.2 1s-5-6.2-4.4-8.5c.5-2 4.6-4.5 6.4-4 2.3.5 5 8 5 8s1.5-7.5 3.7-8c1.8-.6 5.6 2.2 6 4 .8 3-5.4 11.2-5.4 11.2l7.7 13.4 8-14.3s-6.8-7.7-6-10.6c.4-1.6 4.2-4 6-3.6 2 .6 3.6 8 3.6 8s2.6-7.5 5-8c1.8-.6 6 2 6.4 4 .5 2-4.5 7.5-4.5 7.5s6.8-1.8 8.3-.3c1.3 1.2 1.3 5.7 0 7-2 2-12 0-12 0l-8.5 14h15.8s4.3-10 7.5-10.4c1.6-.2 4.8 2.5 5 4 .3 2-4.7 6.5-4.7 6.5s7.5-1.6 9.2 0c1.4 1.3 1.4 6.3 0 7.7-1.5 1.5-8.6 0-8.6 0z"/><path fill="#18181B" d="M906.8 630.2h-6v-1.5l1-.2V620h-1v-1.5h7.7l.2 3.5h-1.3l-.7-1.8H904v3h2.6v2H904v3.2l3 .4-.3 1.4zm7.8-1v1h-5v-1l1-.4v-5.4h-1l-.2-1 .5-.2.6-.2h1l.7.8.8-.7h1c.6 0 1 0 1.4.2l.8 1-2 1-.5-.7c-.4 0-.6.3-.8.6-.4.4-.6 1-.6 1.4v3.2l.3.2h.6l1 .5h.3zm2-7l2.6-.4.6.7v6.4h1v1H917l-.2-1 1-.2v-5.5h-1v-1zm1-2.4l-.2-.8c0-.5.2-.7.4-1s.5-.4 1-.4l.7.4c.3.3.4.5.4 1 0 .2-.2.5-.5.7-.2.2-.5.4-.8.4s-.7 0-1-.3zm7.6 2l1.2.3v-2.8h-.8l-.2-1 2.5-.4.5.6v10c0 .3 0 .4.3.4h.3l.5.8c-.2.3-.5.5-1 .6h-.5c-.7 0-1 0-1.4-.6-.4.5-1 .8-1.8.8-1 0-1.7-.4-2.3-1-.6-.8-1-1.8-1-3 0-1.6.5-2.8 1.4-3.6.5-.5 1.4-1 2.3-1zm1.2 2c-.3-.2-.6-.3-1-.3-.8 0-1.3.4-1.5 1.3-.3.4-.3 1-.3 1.6 0 .6 0 1.2.4 1.5.3.4.7.6 1.2.6.2 0 .5 0 .7-.2l.3-.7v-4zm5.2 3.8c-1-.6-1.4-1.4-1.4-2.5 0-1 .4-1.7 1-2.3.8-.5 1.5-.8 2.4-.8s1.6 0 2.3.6l1.7-1h.4l.3 1.8-1.5.2.3 1.5s0 1-.2 1.4l-.8 1c-.7.5-1.5.8-2.4.8h-.4l-.3.5 1.6.5c1.8.3 2.7 1 2.7 2.4 0 1-.3 1.8-1 2.4-.8.5-1.8.8-3 .8-1 0-1.7-.2-2.3-.7-.7-.4-1-1-1-1.7 0-1 .5-1.6 1.4-2.2-.3-.2-.5-.6-.5-1s.2-1 .6-1.4zm1 3.2c-.5.3-.7.6-.7 1 0 .5.2.8 1 1h1.4l.6-.3c.4 0 .6-.3.6-.6s0-.4-.3-.5l-.7-.2c-.3 0-.7 0-1-.2h-1v-.2zm1-7.3c-.6 0-1 .3-1 1-.2 0-.3.4-.3.6l.3 1c.3.4.5.5 1 .5s.8 0 1-.4c.2-.2.3-.5.3-1l-.3-.6s0-.3-.2-.5c-.2-.4-.6-.6-1-.6zm7.3 3.4c0 1 .7 1.7 2 1.7.5 0 1-.2 1.2-.4l.8-.4.4 1.3c-.4.5-1 .7-1.8 1h-1c-.5 0-1 0-1.4-.2l-1.3-.7c-1-.8-1.3-1.8-1.3-3 0-1.5.4-2.6 1.2-3.4.6-.8 1.4-1 2.4-1s1.5 0 2 .4c.7.5 1 1 1 1.8 0 1-.4 1.5-1 2-.8.5-1.6.7-2.7.7h-1 .2zm0-1.6h.5c.8 0 1.4-.2 1.7-.6v-.6s0-.5 0-.5l-.6-.3c-.2 0-.5 0-.6.2l-.5.4c-.3.4-.5 1-.6 1.4zm16.5-5c0 1-.7 2.3-2 3.4l.4.5.4.5 1.3 1.4c0-.5.2-1 .3-1.3h-.7l-.3-1.6h3.2l.2.3c-.2 1.3-.6 2.5-1.2 3.7.5.7 1 1 1 1l.8-.7 1.3 1.7c0 .2-.4.4-.7.6-.3 0-.8.3-1.4.3-1 0-2-.3-2.5-1-.8.7-1.8 1-3 1-1 0-2-.3-2.8-.8-1-.7-1.4-1.7-1.4-3s.7-2.2 2-3c-.7-1-1-2-1-2.7 0-1.4.5-2.3 1.6-2.8.4-.2 1-.3 1.6-.3 1 0 1.5.2 2 .7s.8 1 .8 1.8zm-4 4.4c-.4.6-.7 1.2-.7 2 0 .4.2 1 .5 1.2.5.4 1 .6 1.5.6s1-.2 1.5-.6l-2-2.3-.7-1zm1-2.5c.6-.7 1-1.4 1-2 0-.2 0-.4-.3-.6-.2-.2-.4-.3-.7-.3s-.5 0-.7.3l-.2.7c0 .5.3 1 .8 1.8zm18.5 8h-6l-.3-1.6 1-.2V620h-1v-1.5h7.8l.3 3.5h-1.3l-.8-1.8H970v3h2.6v2H970v3.2l3 .4-.3 1.4h.3zm7.8-1v1h-5v-1l1-.4v-5.6h-1v-1l.4-.2.7-.2h1l.5.8c.3-.3.5-.5 1-.7h1c.4 0 .7 0 1 .2.5.3.8.7 1 1l-2 1-.5-.7c-.3 0-.6.3-.8.6-.3.4-.5 1-.5 1.4v3.2l.3.2h.7l1 .5zm4.2-2.4c0 1 .8 1.7 2 1.7.6 0 1-.2 1.4-.4l.7-.4.5 1.3c-.3.5-1 .7-1.8 1h-1c-.5 0-1 0-1.4-.2s-.8-.4-1.2-.7c-.7-.8-1-1.8-1-3 0-1.5.4-2.6 1-3.4.8-.8 1.6-1 2.6-1 .8 0 1.5 0 2 .4.7.5 1 1 1 1.8 0 1-.4 1.5-1 2-.8.5-1.6.7-2.7.7h-1zm0-1.6h.6c.8 0 1.4-.2 1.7-.6l.2-.6s0-.5-.3-.5c0-.2-.3-.3-.5-.3s-.5 0-.6.2l-.4.4c-.3.4-.5 1-.5 1.4zm7.8 1.5c0 1 .8 1.7 2 1.7.5 0 1-.2 1.3-.4l1-.4.2 1.3c-.3.5-1 .7-1.8 1h-1c-.4 0-.8 0-1.3-.2s-.7-.4-1-.7c-1-.8-1.3-1.8-1.3-3 0-1.5.4-2.6 1.2-3.4.6-.8 1.4-1 2.5-1 .8 0 1.5 0 2 .4.6.5 1 1 1 1.8 0 1-.5 1.5-1.2 2s-1.5.7-2.6.7h-1zm0-1.6h.5c.8 0 1.4-.2 1.8-.6.2 0 .2-.3.2-.6s0-.5-.2-.5c0-.2-.3-.3-.5-.3-.3 0-.5 0-.7.2l-.5.4c-.3.4-.5 1-.5 1.4zm5.7 3.2l3.5-5.2h-2.2l-.2 1.2h-1.2v-2.8h5.8v1.7l-3.5 5h2l.3-1h1.2v2.7h-5.7v-1.6zm9-1.8c.3 1.3 1 2 2 2 .7 0 1-.2 1.4-.4l.7-.5.4 1.3c-.2.5-.8.7-1.7 1h-1c-.5 0-1 0-1.4-.2l-1.4-.7c-.8-.8-1.2-1.8-1.2-3 0-1.5.4-2.6 1.2-3.4.7-.8 1.5-1 2.5-1s1.6 0 2 .4c.8.5 1 1 1 1.8 0 1-.3 1.5-1 2-.6.5-1.5.7-2.5.7h-1zm0-1.4H1008.2c.8 0 1.4-.2 1.7-.6v-.6s0-.5 0-.5l-.6-.3c-.3 0-.5 0-.7.2l-.5.4c-.3.4-.5 1-.6 1.4zm10.8 3.8v1h-5v-1l1-.4v-5.4h-1v-1l.4-.2.7-.2h1l.6.8c.3-.3.5-.5 1-.7h1c.4 0 .7 0 1 .2.5.3.8.7 1 1l-2 1-.5-.7c-.3 0-.6.3-.8.6-.3.4-.5 1-.5 1.4v3.2l.3.2h.7l1 .5z"/><path fill="#A0D7F9" d="M965.2 603.6l5.4-11-10-18-10.5 17.7 5.3 11-2.3 1.5-5-9.8-5 9.8-3.4-2 5.7-9.2-11.3.2v-2l12.7-1 10-18-19.6-.5-7 10.5-2.3-1.6 6-8.8H922v-3.2l12 .6-6.2-9.8 2-1.4 6.7 10.5 20.8.4-10.3-18-12.7-1 .5-2.4 10 1-5.2-10.2 3-2 6 9.8 4.4-9.5 2.5 2-5.2 10.6 10 17.5 10.4-18.5-5.7-10 2.5-1.5 4.3 9.5 6-9.7 3 2-5.3 9 10-.2v3h-11l-11.3 17.8H984l6.7-9.4 2 1.3-6 8H998v4h-10.5l5.3 8.5-2 1.6-7.2-10h-20l10.3 18 11.7 1.3v2H976l4.7 8.8-3 2-5.8-9-4.5 9"/></g><g><path fill="#BF4040" d="M577 640l63.5 63.8v48L529 640"/><path fill="#811616" d="M520 648l8-8 8 8m96.5 96.8v16l8-8"/><path fill="#FFF" d="M567 668.2l4.3-4 1.7 1.8-2.2 3c.5 1 1 1.8 1.7 2.5 1.4 1.4 2.7 2 4.2 1.5.5-.2 1-.5 1.5-1 .4-.5.7-1 .8-1.7 0-.7 0-1.5-.4-2.5l-1-3c-.5-1-.8-2-1-2.8 0-1 0-1.8.2-2.7.2-1 .7-1.7 1.5-2.5s1.5-1.3 2.4-1.5c.8-.3 1.6-.4 2.5-.3 1.7.3 3.3 1 4.8 2.5 1.4 1.5 2.5 3 3.3 5l-3.8 4.4-1.6-1.8 1.4-3.7c-.3-.6-.8-1.3-1.5-2-1-.8-1.6-1.2-2.5-1.4-1 0-1.7.2-2.3 1-.8.7-1 1.8-.8 3 0 .7.3 1.3.5 2l.8 2 .7 2.6v2.4c0 1.3-.6 2.4-1.5 3.3-1 1-2 1.5-2.8 1.8s-2 .5-2.8.4c-1.8-.3-3.5-1.2-5-3s-2.8-3.2-3.4-5v-.2zm18.4 18c-1.5 0-2.7-.6-3.8-1.6s-1.7-2.3-1.7-3.6c0-1.2.2-2.3 1-3 1-1 1.8-1.5 2.6-1.6 1 0 1.7 0 2.6.2 1.5.5 3 1.7 5 3.5l1.8-1.5c.3-.4.5-.8.4-1.4 0-.4-.4-1-1-1.6-.5-.6-1.2-1-1.7-1l-2 1-1.8-3.2c1.6-1 3.4-1 5.3 0 .7.4 1.3.8 2 1.5 1.2 1.3 2 2.5 2 4 0 1-.6 2.2-1.6 3.3l-6.2 6c-.3.3-.4.7 0 .8 0 .2.2.3.5.4l-.8 1.8c-1 0-1.6-.4-2.2-1-1-1-1-2-.6-3zm-2.5-4.4l.2.8c0 .2.3.4.6.7s.5.4 1 .5c.3.2.6.3 1 .3.5.2 1 0 1.6 0l2-2c-1-1.2-2-2-2.5-2.3-.8-.3-1.4-.5-2-.5s-1 .2-1.3.6c-.4.4-.7.8-.7 1v1zm11 11.7l1.2 2-1.3 1.2-5-5 1-1.4 2 1 14-14-1.5-1.3 1.3-1.7 3.5 2.5v1.6l-15.3 15zm18.6 5c-.5.5-1 .8-1.7 1-.8.4-1.6.5-2.4.4-2-.3-4.2-1.7-6.7-4-1 1.4-1.2 3-.6 4.3.2.5.5 1 1 1.5l1.2 1 1 .5 1.5.3-1 2.3c-.3 0-.8-.3-1.4-.6-2.3-1-4-2.4-5-4.5-.8-2-.8-4 0-6 .6-1 1.3-2 2.3-3 1-1 2-1.5 3-2s2-.7 3-.7c2 0 3.6.5 5 2 1.2 1 1.8 2.3 2 3.5 0 1.4-.3 2.5-1.3 3.5v.2zm-2.5-2c.6-.6 1-1 1-1.6 0-.6-.3-1-.7-1.6l-1.4-1h-1.6c-1.3 0-2.5.6-3.8 1.7 1 1.3 2 2 3 2.4.6.4 1.3.6 2 .6s1-.2 1.5-.7z"/></g><g><path fill="#BF4040" d="M705 640l64 63.8v48L657 640"/><path fill="#811616" d="M648 648l8-8 8 8m97 96.8v16l8-8"/><path fill="#FFF" d="M694 667l4.2-3.8 1.7 1.7-2.2 3c.5 1 1 1.7 1.7 2.4 1.3 1.3 2.7 1.8 4 1.5l1.6-1s.8-1 1-1.8c0-.8 0-1.6-.5-2.6l-1-3c-.5-1-.8-1.8-1-2.8v-2.6c.4-1 .8-1.8 1.6-2.6s1.7-1.3 2.6-1.5c.7-.2 1.5-.2 2.4 0 1.8 0 3.5 1 5 2.4 1.4 1.4 2.4 3 3.2 4.8l-3.8 4.5-1.7-1.7 1.5-3.7c-.2-.7-.8-1.4-1.5-2-.7-.8-1.5-1.3-2.4-1.4-.8-.3-1.6 0-2.3.7-.8.8-1 2-.7 3.2 0 .5.3 1 .5 1.7.3.6.5 1.3 1 2l.5 2.6s.2 1.6 0 2.3c0 1.3-.5 2.4-1.5 3.4s-1.8 1.5-2.7 1.8-1.8.3-2.7.2c-1.7-.3-3.4-1.2-5-3s-2.8-3.2-3.4-5zm17 7c1-1 1.8-1.8 2.8-2.2 1-.5 2-.7 3-.7 1.8 0 3.5.7 5 2.2 1.5 1.5 2 3.2 2 5.2s-1 4-2.8 5.7c-2 2-4 3-6 3s-3.6-.6-5-2c-1.5-1.5-2.2-3.3-2-5.3 0-2 1-4 3-5.8zm2 2.4c-1.4 1.3-2 2.5-2.2 3.7-.2 1.3 0 2.3 1 3 .8 1 1.8 1.4 3 1.2 1.2 0 2.5-.8 3.8-2 1.3-1.4 2-2.7 2.3-4s-.2-2.3-1-3c-1-1-2-1.4-3.3-1-1.2.2-2.5 1-3.8 2.3zm8.8 16.8l1 2-1.2 1.2-5-5 1-1.5 2 1 14-14-1.4-1.3 1.3-1.7 3.5 2.5v1.5l-15.2 15.2zm9 11c-1 0-2.2-.7-3-1.5-1-.8-1.5-1.7-1.8-2.5-.3-1-.4-1.8-.3-2.7 0-2 1-3.7 2.8-5.5 2.2-2 4.4-3 6.7-3 1.7 0 3.2.8 4.5 2.2.7.6 1.2 1.5 1.6 2.3l4.5-4.5-1.5-1.3 1.3-1.7 3.4 2.5v1.6L734.2 705c-.3.4-.4.7 0 1l.5.2-.8 1.8c-1 0-1.7-.5-2.4-1.2s-1-1.5-.7-2.3zm1.6-2l6.8-6.8c0-.3 0-.7-.3-1-.3-.6-.6-1-1-1.4l-1-.8c-.6-.3-1-.3-1.7-.3-1.4 0-3 .6-4.3 2-1.4 1.4-2 2.8-2.3 4 0 1.2.3 2.2 1 3 .8.8 1.8 1.2 2.8 1v.3z"/></g><g><path fill="#BF4040" d="M833 640l64 63.8v48L785 640"/><path fill="#811616" d="M776 648l8-8 8 8m97 96.8v16l8-8"/><path fill="#FFF" d="M818.8 664l4.2-4 1.6 1.7-2 3c.4 1 1 1.8 1.6 2.5 1.4 1.4 2.8 2 4.2 1.5.5-.2 1-.5 1.5-1s.7-1 .7-1.8 0-1.6-.3-2.6l-1-3c-.5-1-.8-1.8-1-2.7V655c.3-1 .8-2 1.6-2.6.8-.8 1.5-1.4 2.4-1.6.8-.3 1.6-.3 2.5-.2 1.6.2 3.3 1 4.7 2.5 1.4 1.6 2.5 3 3.4 5l-3.7 4.4-1.7-1.6 1.6-3.6c-.3-.7-.8-1.4-1.5-2-.8-1-1.5-1.3-2.4-1.5-.8 0-1.6 0-2.3.8-.8.8-1 2-.8 3.2l.5 1.8 1 2.2.6 2.5c.2.8.2 1.6 0 2.3 0 1.3-.6 2.5-1.5 3.4s-2 1.4-2.8 1.7-1.8.4-2.7.2c-1.7-.4-3.4-1.3-5-3s-2.8-3.3-3.4-5.2h-.3zm17 6.6c.8-1 1.7-1.6 2.7-2s2-.7 3-.7c2-.2 3.5.5 5 2 1.5 1.4 2.2 3 2 5.2 0 2-1 4-2.7 5.7-2 1.7-3.8 2.7-6 2.7-2 0-3.6-.6-5-2-1.5-1.5-2.2-3.2-2-5.3 0-2 1-4 3-5.8zm2 2.5c-1.4 1.4-2 2.6-2.3 4 0 1 .2 2 1 3 .8.7 2 1 3 1 1.2 0 2.5-1 3.8-2.2 1.4-1.4 2-2.6 2.4-4s0-2.3-1-3c-1-1-2-1.3-3.3-1-1.2.2-2.5 1-3.8 2.4zm9.7 9.5c1-1 2-1.5 3-2s2-.7 3-.7c1.8 0 3.5.6 5 2 1.4 1.5 2 3.3 2 5.3s-1 4-3 5.8c-1.7 2-3.7 2.8-5.8 3-2 0-3.7-.7-5-2-1.6-1.6-2.3-3.4-2-5.4 0-2 1-4 2.8-5.8zm2 2.6c-1.3 1.4-2 2.6-2 3.8-.3 1.2 0 2.2 1 3 .7 1 1.7 1.2 3 1s2.4-.7 3.7-2c1.3-1.4 2-2.7 2.3-4s0-2.3-1-3c-.8-1-2-1.3-3.2-1-1 .2-2.4 1-3.7 2.4zm18.2 8c1.4 0 2.6.8 3.8 2 1.6 1.6 2 3.3 1.5 5-.3.7-.7 1.3-1.3 2l-6.6 6.5 1 1.8-1.2 1.3-4.7-4.8 1-1.6 2 1 6.2-6.2c.8-.7 1-1.4 1-2 0-.5-.3-1-.8-1.6s-1-.8-1.8-1l-1.6-.5-7.2 7 1 2-1.3 1.2-4.8-4.8 1-1.5 2 1 8-8.2-1.4-1.2 1.2-1.7c.2 0 .5.3.8.5l1 .7 1 .6.6.6-.3 1.6z"/></g><g><path fill="#BF4040" d="M961 640l64 63.8v48L913 640"/><path fill="#811616" d="M904 648l8-8 8 8m97 96.8v16l8-8"/><path fill="#FFF" d="M955.6 666.6l-1.7 1.8c-.2 0-.3 0-.3.2l1 1.6-1.6 1.7-4.6-4.8 1.4-2 1.8 1.3 12.7-12.7-1.3-1.6 1.8-1.8 5 5-8.2 20.4 12.4-12.4-1.3-1.7 1.8-1.8 4.7 4.7-1.5 2-1.8-1-14.6 14.4-3.6-3.4L966 656l-10.4 10.6zm26 17l-1.7 1c-.8.3-1.6.4-2.4.3-2-.3-4.2-1.7-6.7-4-1 1.4-1.3 3-.6 4.3.2.5.5 1 1 1.5l1.2 1 1 .5 1.5.3-1 2.3c-.3 0-.8-.3-1.4-.6-2.3-1-4-2.4-5-4.5-.8-2-.8-4 0-6 .6-1 1.3-2 2.3-3s2-1.5 3-2 2-.7 3-.7c2 0 3.6.5 5 2 1.2 1 1.8 2.3 2 3.5 0 1.4-.3 2.5-1.3 3.5v.2zm-2.5-2.3c.6-.4 1-1 1-1.4 0-.6-.3-1-.8-1.6l-1.3-1h-1.6c-1.3 0-2.5.6-3.8 1.7 1 1.3 2 2 2.8 2.4 1 .4 1.5.6 2 .6s1.3-.2 1.7-.6zm-1.5 15l7.8-12-1-1 1.4-1.8 3.3 2.8-7.2 11L993 689l2.5 2.6-6.5 11.4 9.4-5.7-1-1 1.3-1.6 3 2.4-.4 1.4-13.5 8.3-3-3 6.4-10.7-10.8 6.3-3-2.7z"/></g><g><path fill="#BF4040" d="M16 640h112v32H16l16-16"/><path fill="#811616" d="M120 673v7.8l8-7.8"/><path fill="#FFF" d="M57 666.4l.3-5.8H60l.6 3.6c1 .4 2 .5 3 .5 2 0 3.2-.6 4-2l.2-1.5c0-.7-.2-1.3-.6-2-.4-.4-1-1-2-1.4l-3-1.3c-1-.4-1.7-.8-2.4-1.4-.8-.4-1.5-1-2-2-.4-.6-.6-1.6-.6-2.7s0-2 .5-2.7l1.6-2c1.6-1 3.3-1.5 5.4-1.5 2 0 4 .4 5.8 1l.5 6h-2.4l-1.5-3.7c-.7-.3-1.5-.4-2.6-.4-1 0-2 .2-2.6.6-.7.5-1 1.3-1 2.3 0 1 .5 2 1.6 2.7l1.7 1 2 .8 2.3 1.3c.7.5 1.3 1 1.7 1.6.8 1 1.2 2.2 1.2 3.5 0 1.2-.2 2.3-.7 3.2-.4.8-1 1.5-1.7 2-1.4 1-3.3 1.6-5.5 1.6-2.3 0-4.4-.5-6-1.3zM83 666c-1 1-2.3 1.6-3.8 1.6-1.6 0-3-.3-3.8-1.3-1-.8-1.5-1.8-1.5-3s.3-2 .8-3c.5-.6 1.2-1 2-1.5 1.4-.7 3.4-1 6-1V655c0-.5 0-1-.5-1.2-.5-.4-1-.6-2-.6s-1.5.2-2 .5l-.6 2.2-3.5-1c.4-2 1.6-3.3 3.7-4 .7 0 1.5-.3 2.5-.3 1.7 0 3 .3 4 1.2s1.4 2 1.4 3.5v8.7c0 .5.2.7.5.7.2 0 .5 0 .8-.2l.8 1.8c-.7.6-1.5 1-2.3 1-1.3 0-2-.6-2.5-1.6zm-4.8-1.3c.2.2.5.3.7.3l1 .2c.2 0 .6 0 1-.2l.8-.6c.5-.4 1-.8 1-1.4v-3c-1.5 0-2.5.3-3.3.5-.7.2-1.2.5-1.6 1-.3.3-.5.8-.5 1.3s.2 1 .4 1.3c0 .4.4.6.6.8zm16.2.4l2 .6v2h-7l-.2-2 2-.5v-20l-2 .3-.2-2 4.2-.7 1.2 1.2v21.4zm16.6-9.5c0 .7 0 1.4-.4 2-.2.7-.7 1.3-1.4 2-1.5 1-4 1.7-7.5 1.8.4 1.8 1.3 3 2.8 3.5.5.2 1 .3 1.7.3s1 0 1.5 0l1-.5c.8-.2 1.2-.5 1.5-.8l.7 2.4c-.3.4-.7.6-1.3 1-2.3.8-4.5 1-6.7 0-2-.6-3.4-2-4-4-.4-1-.6-2.2-.6-3.6s.3-2.5.6-3.6c.5-1 1-2 1.7-2.7 1.4-1.4 3-2 5-2 1.6 0 2.8.2 3.8 1 1 1 1.7 2 1.7 3.3v.2zm-3.3.3c0-.7 0-1.2-.5-1.6-.3-.5-.8-.7-1.5-.7s-1 .2-1.5.4c-.5 0-1 .4-1.3 1-.7.7-1.2 2-1.4 3.8 1.7 0 3 0 3.8-.4 1-.3 1.6-.6 2-1 .5-.5.7-1 .7-1.6h-.2z"/></g><g><path fill="#BF4040" d="M144 640h112v32H144l16-16"/><path fill="#811616" d="M248 673v7.8l8-7.8"/><path fill="#FFF" d="M182.2 666.4l.2-5.8h2.3l.7 3.6c1 .4 2 .5 3 .5 1.8 0 3-.6 4-2l.2-1.5c0-.7 0-1.3-.5-2-.3-.4-1-1-2-1.4l-2.8-1.3c-1-.4-1.8-.8-2.5-1.4-.8-.4-1.4-1-2-2-.4-.6-.7-1.6-.7-2.7s0-2 .5-2.7l1.6-2c1.7-1 3.4-1.5 5.4-1.5 2 0 4 .4 5.8 1l.5 6h-2.4l-1.5-3.7c-.7-.3-1.5-.4-2.6-.4-1 0-2 .2-2.6.6-.7.5-1 1.3-1 2.3 0 1 .5 2 1.7 2.7l1.6 1 2 .8c1 .4 1.6.8 2.3 1.3s1.3 1 1.7 1.6c.8 1 1.2 2.2 1.2 3.5 0 1.2-.2 2.3-.6 3.2-.4.8-1 1.5-1.8 2-1.4 1-3.3 1.6-5.5 1.6s-4.4-.5-6-1.3h-.2zm16.7-7.3c-.2-1.2 0-2.4.3-3.4.5-1 1-1.8 1.7-2.5 1.3-1.4 3-2 5-2s4 .6 5.2 2c1.4 1.6 2 3.6 2 6 0 2.8-.7 5-2 6.4-1.4 1.4-3.2 2-5.2 2s-3.8-.7-5-2.2c-1.5-1.5-2-3.5-2-6.2h-.2zm3 .5c0 2 .5 3.3 1.2 4.2.7 1 1.7 1.4 3 1.4 1 0 2-.4 2.8-1.4.7-.8 1-2.2 1-4 0-2-.3-3.5-1-4.5s-1.7-1.5-3-1.5-2.2.6-3 1.7c-.6 1-1 2.5-1 4.3zm18.2 5.6l2 .6v2h-6.8l-.4-2 2-.5v-20l-1.8.3-.4-2 4.3-.7 1.2 1.2v21.4zm14.3 1.5c-1 .8-2 1-3.4 1s-2 0-2.8-.5c-1-.3-1.5-.8-2-1.6-1.3-1.5-2-3.5-2-6 0-3 1-5.2 2.5-6.7 1.3-1 3-1.7 4.8-1.7 1 0 1.8 0 2.7.5v-6.3h-2l-.3-2 4.2-.7 1 1.3v20.7c0 .5.2.7.5.7.2 0 .5 0 .7-.3l.8 1.7c-.7.6-1.5 1-2.5 1s-1.8-.5-2-1.3h-.2zm-.3-2.5v-9.7l-1-.4c-.5-.4-1-.5-1.5-.5l-1.5.3c-.5 0-1 .5-1.3 1-1.2 1-1.7 2.4-1.7 4.5 0 2 .5 3.5 1.3 4.4.8 1 1.7 1.3 3 1.3 1 0 2-.3 2.5-1h.2z"/></g><g><path fill="#BF4040" d="M272 640h112v32H272l16-16"/><path fill="#811616" d="M376 673v7.8l8-7.8"/><path fill="#FFF" d="M301 666.4l.3-5.8h2.3l.6 3.6c1 .4 2 .5 3 .5 2 0 3.3-.6 4-2 .2-.3.4-1 .4-1.5 0-.7-.2-1.3-.6-2-.4-.4-1-1-2-1.4s-2-1-3-1.3c-1-.4-1.8-.8-2.6-1.4-.8-.4-1.4-1-2-2-.4-.6-.6-1.6-.6-2.7s.2-2 .6-2.7c.5-.7 1-1.4 1.7-2 1.6-1 3.3-1.5 5.3-1.5s4 .4 5.8 1l.6 6h-2.4l-1.5-3.7c-.7-.3-1.5-.4-2.5-.4s-2 .2-2.7.6c-.7.5-1 1.3-1 2.3 0 1 .4 2 1.6 2.7.6.4 1 .7 1.8 1l2 .8c1 .4 1.6.8 2.4 1.3.7.5 1.2 1 1.7 1.6.7 1 1 2.2 1 3.5 0 1.2 0 2.3-.5 3.2-.5.8-1 1.5-1.8 2-1.4 1-3.3 1.6-5.5 1.6s-4.4-.5-6-1.3h-.2zm16.7-7.3c0-1.2 0-2.4.5-3.4s1-1.8 1.6-2.5c1.3-1.4 3-2 5-2s4 .6 5.2 2c1.4 1.6 2 3.6 2 6 0 2.8-.6 5-2 6.4-1.4 1.4-3 2-5 2-2.2 0-4-.7-5.3-2.2-1.3-1.5-2-3.5-2-6.2zm3.2.5c0 2 .2 3.3 1 4.2.7 1 1.7 1.4 3 1.4 1 0 2-.4 2.8-1.4.7-.8 1-2.2 1-4 0-2-.3-3.5-1-4.5s-1.7-1.5-3-1.5-2.2.6-3 1.7c-.5 1-1 2.5-1 4.3zm13.5-.4c0-1.2.2-2.4.6-3.4.5-1 1-1.8 1.7-2.5 1.3-1.4 3-2 5-2s4 .6 5.2 2 2 3.6 2 6c0 2.8-.8 5-2.2 6.4-1.4 1.4-3 2-5 2-2.2 0-4-.7-5.2-2.2-1.3-1.5-2-3.5-2-6.2zm3.3.5c0 2 .3 3.3 1 4.2.8 1 1.7 1.4 3 1.4 1 0 2-.4 2.8-1.4.8-.8 1.2-2.2 1.2-4 0-2-.4-3.5-1-4.5-.8-1-1.8-1.5-3-1.5s-2.3.6-3 1.7c-.7 1-1 2.5-1 4.3zm18.3-7.3c1-.8 2.6-1.3 4-1.3 2.5 0 4 .8 4.8 2.5.3.6.4 1.3.4 2.2v9.3l2 .6v2h-6.7l-.4-2 2.2-.5v-8.8c0-1-.3-1.7-.8-2-.4-.5-1-.6-1.7-.6s-1.5 0-2 .4c-.8.3-1.2.6-1.6 1v10l2 .6v2h-6.5l-.5-2 2.2-.5v-11.4h-2l-.2-2h1l1-.3h1.2l1-.3 1 1.2z"/></g><g><path fill="#BF4040" d="M400 640h112v32H400l16-16"/><path fill="#811616" d="M504 673v7.8l8-7.8"/><path fill="#FFF" d="M440.5 662v2.8l2 .3v2.5H436l-.5-2.4 2-.4v-17.8l-2-.2V644h7l8.8 20.3v-17.5l-2-.3V644h6.6l.3 2.5-2.2.5v20.5h-5l-8.5-20.3V662zm30.4-6.5c0 .7-.3 1.4-.5 2-.3.7-.7 1.3-1.4 2-1.4 1-4 1.7-7.4 1.8.3 1.8 1.3 3 2.7 3.5.5.2 1 .3 1.7.3s1 0 1.6 0l1-.5c.7-.2 1-.5 1.4-.8l.8 2.4c-.3.4-.7.6-1.3 1-2.3.8-4.5 1-6.7 0-2-.6-3.3-2-4-4-.5-1-.6-2.2-.6-3.6s.2-2.5.6-3.6c.5-1 1-2 1.6-2.7 1.4-1.4 3-2 5-2 1.6 0 3 .2 4 1 1 1 1.4 2 1.4 3.3v.2zm-3.4.3c0-.7 0-1.2-.5-1.6-.2-.5-.7-.7-1.4-.7s-1 .2-1.6.4c-.5 0-.8.4-1.2 1-.8.7-1.3 2-1.4 3.8 1.7 0 3 0 3.7-.4 1-.3 1.6-.6 2-1 .4-.5.6-1 .6-1.6zm9.4 11.8l-3-14.3h-1.5l-.3-2 4.6-.4 2.6 13 3.2-12.6h3.7l3.5 12.5 2.6-10.6H491l-.4-2 3.8-.4.8 1-3.8 15.6h-4l-3.2-12.2-3.2 12h-4v.2z"/></g><g><radialGradient id="e" cx="698" cy="579.2" r="40.5" gradientUnits="userSpaceOnUse"><stop offset="0" stop-color="#43CDEE"/><stop offset="1" stop-color="#43CDEE" stop-opacity=".2"/></radialGradient><path fill="url(#e)" stroke="#0DA0C2" stroke-width="2.5" stroke-miterlimit="10" d="M747 541.6c.3-2.2-1.3-4.2-3.5-4.4 0 0-33.7-3.4-36-3.5h-8c-2 0-5.6.2-7.8.7l-21 4.8c-2.2.4-5 1.4-6.3 2.3s-2 3.4-2 5.6l5.3 50.4c.2 2.2 2 4.5 4 5.2L719 617c2 .5 4.8-.6 6-2.4l14.2-21.4c1.3-1.8 2.5-5 2.7-7.2l5-44.4z"/><path fill="#0DA0C2" d="M672.8 597.7c-.4 0 .3-1 1.6-2l19.4-14.6c1.3-1 2.4-3 2.4-4.7l.4-34.8c0-1.7.4-3 .7-3 .4 0 .7 1.2.8 2.8l.6 34.5c0 1.7 1.4 3.3 3 3.7l29.3 6.8c1.5.4 2.6 1 2.3 1s-2 .2-3.6 0l-28.8-5.7c-1.7-.3-4 .2-5.5 1L676 596.2c-1.2 1-2.7 1.8-3.2 1.7z" opacity=".5"/><path opacity=".5" fill="#F2F2F2" d="M721.8 613.8c-.2.8-.5.5-.5-.6l1.3-58.7c0-1-1-2-2-2.3l-52-7.5c-1.3 0-1.5-.4-.6-.5 1-.2 2.5-.3 3.6 0l51.8 5.6c1 .2 2.7-.2 3.7-.7l15.4-8.6c1-.5 1.7-.7 1.7-.4s-.6 1-1.6 1.7l-15 10c-1 .7-1.7 2-1.7 3l-3.4 55.8c0 1-.3 2.5-.5 3.3z"/><path fill="#18181B" d="M679 630h-7l-.4-2 1.4-.2v-10.3h-1.4v-2h9.6l.4 4.3H680l-.8-2h-3.4v3.6h3.2v2.2h-3.3v4l3.5.6v1.7zm10-1.4v1.4h-6l-.5-1.4 1.3-.3v-6.8h-1l-.3-1.3h.6l1-.3 1.4-.3.7 1 1-.8s1-.4 1.4-.4c.5 0 1 0 1.5.4.4.3.7.8 1 1.4l-2.6 1.4-.7-1c-.3 0-.6 0-1 .4-.2.5-.4 1-.4 1.7v3.8l.3.2.8.2 1.5.4zm5-2.8c.3 1.6 1 2.3 2.6 2.3.7 0 1 0 1.5-.3.6-.3 1-.5 1-.7l.6 1.8c-.4.5-1 1-2.3 1l-1.2.2s-1 0-1.5-.3-1-.5-1.5-1c-1-1-1.5-2.2-1.5-3.8 0-2 .5-3.2 1.5-4 .8-1 2-1.4 3.2-1.4 1 0 1.7.2 2.5.7.7.5 1 1.3 1 2.2 0 1-.4 2-1.3 2.6-.8.6-2 .8-3.2.8H694zm0-1.8h.7c1 0 1.8 0 2.2-.6v-.8s0-.5-.2-.7c0-.2-.4-.3-.6-.3l-.8.2-.6.4c-.4.5-.7 1-.7 1.7zm9.6 2c.2 1.4 1 2 2.5 2 .8 0 1.3 0 1.7-.3l1-.7.4 1.8c-.2.5-1 1-2 1l-1.4.2s-1 0-1.6-.3-1.2-.5-1.5-1c-1-1-1.5-2.2-1.5-3.8 0-2 .5-3.2 1.5-4 .8-1 1.8-1.4 3-1.4 1 0 2 .2 2.6.7.8.5 1.2 1.3 1.2 2.2 0 1-.5 2-1.4 2.6-.8.6-2 .8-3.2.8h-1zm0-2h.6c1 0 1.7 0 2-.6.3-.2.4-.5.4-.8s-.2-.5-.4-.7c0-.2-.3-.3-.6-.3l-.8.2-.7.4c-.4.5-.6 1-.7 1.7zm7 4l4.4-6.3h-2.7l-.3 1.4h-1.3v-3.4h7.2v2l-4.4 6.3h2.5l.4-1.6h1.5v3.5h-7.3v-2zm11.4-2c0 1.4 1 2 2.5 2 .7 0 1 0 1.5-.3l1-.7.5 1.8c-.4.5-1 1-2.3 1l-1.3.2c-.5 0-1 0-1.7-.3-.5-.2-1-.5-1.5-1-1-1-1.5-2.2-1.5-3.8 0-2 .5-3.2 1.5-4 .8-1 2-1.4 3.2-1.4 1 0 1.8.2 2.5.7.7.5 1 1.3 1 2.2 0 1-.4 2-1.3 2.6-.8.6-2 .8-3.2.8h-1zm0-2h.6c1 0 1.8 0 2.2-.6l.2-.8-.3-.7c-.2-.2-.5-.3-.7-.3s-.5 0-.7.2c-.2 0-.5.2-.6.4-.4.5-.6 1-.7 1.7zm13 4.6v1.4h-6l-.2-1.4 1.3-.3v-6.8h-1l-.2-1.3h.7l.8-.3 1.4-.3.7 1 1-.8s.8-.4 1.4-.4 1 0 1.5.4c.5.3.8.8 1 1.4l-2.5 1.4-.7-1c-.2 0-.5 0-1 .4-.2.5-.4 1-.4 1.7v3.8l.3.2.7.2 1.5.4z"/></g></svg>
